<svg width="73" height="25" viewBox="0 0 73 25" fill="none" xmlns="http://www.w3.org/2000/svg">
  <ellipse cx="35.1934" cy="3.84974" rx="1.32458" ry="1.37673" transform="rotate(10 35.1934 3.84974)" fill="#FD1717"/>
  <line x1="33.5706" y1="1.04927" x2="34.6646" y2="2.42645" stroke="#1A1717" stroke-width="0.8" stroke-linecap="round" stroke-linejoin="round"/>
  <line x1="35.6093" y1="0.834232" x2="35.3557" y2="2.27217" stroke="#1A1717" stroke-width="0.8" stroke-linecap="round" stroke-linejoin="round"/>
  <line x1="0.4" y1="-0.4" x2="1.21927" y2="-0.4" transform="matrix(-0.683279 0.730157 -0.716631 -0.697452 36.2533 5.20312)" stroke="#1A1717" stroke-width="0.8" stroke-linecap="round"/>
  <ellipse rx="2.19777" ry="1.36956" transform="matrix(0.98359 -0.18042 0.166978 0.985961 40.9376 4.85322)" fill="#FD1717"/>
  <line x1="0.4" y1="-0.4" x2="1.18086" y2="-0.4" transform="matrix(-0.198422 0.980117 -0.979713 -0.200405 38.8678 5.89551)" stroke="#1A1717" stroke-width="0.8" stroke-linecap="round"/>
  <line x1="0.4" y1="-0.4" x2="1.02645" y2="-0.4" transform="matrix(0.140435 0.99009 -0.98822 0.153039 40.0969 6.34009)" stroke="#1A1717" stroke-width="0.8" stroke-linecap="round"/>
  <line x1="37.5625" y1="6.25562" x2="37.3874" y2="7.2484" stroke="#1A1717" stroke-width="0.8" stroke-linecap="round"/>
  <ellipse cx="35.1934" cy="3.84974" rx="1.32458" ry="1.37673" transform="rotate(10 35.1934 3.84974)" fill="#FD1717"/>
  <circle cx="36.7398" cy="5.45063" r="0.75" transform="rotate(10 36.7398 5.45063)" fill="#FD1717"/>
  <line x1="33.5706" y1="1.04927" x2="34.6646" y2="2.42645" stroke="#1A1717" stroke-width="0.8" stroke-linecap="round" stroke-linejoin="round"/>
  <line x1="35.6093" y1="0.834232" x2="35.3557" y2="2.27217" stroke="#1A1717" stroke-width="0.8" stroke-linecap="round" stroke-linejoin="round"/>
  <line x1="0.4" y1="-0.4" x2="1.21927" y2="-0.4" transform="matrix(-0.683279 0.730157 -0.716631 -0.697452 36.2533 5.20312)" stroke="#1A1717" stroke-width="0.8" stroke-linecap="round"/>
  <ellipse rx="2.19777" ry="1.36956" transform="matrix(0.98359 -0.18042 0.166978 0.985961 40.9376 4.85322)" fill="#FD1717"/>
  <line x1="0.4" y1="-0.4" x2="1.18086" y2="-0.4" transform="matrix(-0.198422 0.980117 -0.979713 -0.200405 38.8678 5.89551)" stroke="#1A1717" stroke-width="0.8" stroke-linecap="round"/>
  <line x1="0.4" y1="-0.4" x2="1.02645" y2="-0.4" transform="matrix(0.140435 0.99009 -0.98822 0.153039 40.0969 6.34009)" stroke="#1A1717" stroke-width="0.8" stroke-linecap="round"/>
  <circle cx="38.1418" cy="5.84998" r="0.9" transform="rotate(10 38.1418 5.84998)" fill="#FD1717"/>
  <line x1="37.5625" y1="6.25562" x2="37.3874" y2="7.2484" stroke="#1A1717" stroke-width="0.8" stroke-linecap="round"/>
  <ellipse cx="14.3141" cy="20.8617" rx="1.32458" ry="1.37673" transform="rotate(-170 14.3141 20.8617)" fill="#FD1717"/>
  <line x1="15.937" y1="23.6622" x2="14.843" y2="22.285" stroke="#1A1717" stroke-width="0.8" stroke-linecap="round" stroke-linejoin="round"/>
  <line x1="13.8983" y1="23.8772" x2="14.1519" y2="22.4393" stroke="#1A1717" stroke-width="0.8" stroke-linecap="round" stroke-linejoin="round"/>
  <line x1="0.4" y1="-0.4" x2="1.21927" y2="-0.4" transform="matrix(0.683279 -0.730157 0.716631 0.697452 13.2543 19.5083)" stroke="#1A1717" stroke-width="0.8" stroke-linecap="round"/>
  <ellipse rx="2.19777" ry="1.36956" transform="matrix(-0.98359 0.18042 -0.166978 -0.985961 8.56994 19.8582)" fill="#FD1717"/>
  <line x1="0.4" y1="-0.4" x2="1.18086" y2="-0.4" transform="matrix(0.198422 -0.980117 0.979713 0.200405 10.6398 18.8159)" stroke="#1A1717" stroke-width="0.8" stroke-linecap="round"/>
  <line x1="0.4" y1="-0.4" x2="1.02645" y2="-0.4" transform="matrix(-0.140435 -0.99009 0.98822 -0.153039 9.41064 18.3713)" stroke="#1A1717" stroke-width="0.8" stroke-linecap="round"/>
  <line x1="11.9451" y1="18.4558" x2="12.1201" y2="17.463" stroke="#1A1717" stroke-width="0.8" stroke-linecap="round"/>
  <ellipse cx="14.3141" cy="20.8617" rx="1.32458" ry="1.37673" transform="rotate(-170 14.3141 20.8617)" fill="#FD1717"/>
  <circle cx="12.7677" cy="19.2608" r="0.75" transform="rotate(-170 12.7677 19.2608)" fill="#FD1717"/>
  <line x1="15.937" y1="23.6622" x2="14.843" y2="22.285" stroke="#1A1717" stroke-width="0.8" stroke-linecap="round" stroke-linejoin="round"/>
  <line x1="13.8983" y1="23.8772" x2="14.1519" y2="22.4393" stroke="#1A1717" stroke-width="0.8" stroke-linecap="round" stroke-linejoin="round"/>
  <line x1="0.4" y1="-0.4" x2="1.21927" y2="-0.4" transform="matrix(0.683279 -0.730157 0.716631 0.697452 13.2543 19.5083)" stroke="#1A1717" stroke-width="0.8" stroke-linecap="round"/>
  <ellipse rx="2.19777" ry="1.36956" transform="matrix(-0.98359 0.18042 -0.166978 -0.985961 8.56994 19.8582)" fill="#FD1717"/>
  <line x1="0.4" y1="-0.4" x2="1.18086" y2="-0.4" transform="matrix(0.198422 -0.980117 0.979713 0.200405 10.6398 18.8159)" stroke="#1A1717" stroke-width="0.8" stroke-linecap="round"/>
  <line x1="0.4" y1="-0.4" x2="1.02645" y2="-0.4" transform="matrix(-0.140435 -0.99009 0.98822 -0.153039 9.41064 18.3713)" stroke="#1A1717" stroke-width="0.8" stroke-linecap="round"/>
  <line x1="11.9451" y1="18.4558" x2="12.1201" y2="17.463" stroke="#1A1717" stroke-width="0.8" stroke-linecap="round"/>
  <circle cx="11.3658" cy="18.8614" r="0.9" transform="rotate(-170 11.3658 18.8614)" fill="#FD1717"/>
  <path fill-rule="evenodd" clip-rule="evenodd" d="M58.7641 18.8165V17.7157C58.8143 17.7444 58.8878 17.7786 58.9845 17.8182C59.0168 17.8314 59.0491 17.8443 59.0816 17.8568C59.2183 17.9098 59.3778 17.9379 59.56 17.9412C59.5723 17.9414 59.5845 17.9415 59.5967 17.9415C59.7199 17.9426 59.8426 17.9257 59.9608 17.8913C60.1121 17.8465 60.2507 17.767 60.3659 17.6593C60.4342 17.5942 60.496 17.5225 60.5502 17.4453C60.6587 17.294 60.7666 17.0987 60.8738 16.8595C60.9058 16.788 60.9364 16.7158 60.9657 16.6431L61.2762 15.8528L58.4254 8.52822H59.7096L61.8689 14.3004H61.883L64.0423 8.52822H65.2983L61.9818 16.9395C61.9018 17.1452 61.8126 17.3472 61.7145 17.545C61.4977 17.9782 61.2669 18.3056 61.0221 18.5272C60.674 18.8424 60.2553 19 59.7661 19C59.6148 19.0003 59.4637 18.9895 59.3141 18.9677C59.293 18.9646 59.272 18.9612 59.251 18.9577C59.0863 18.9294 58.924 18.8824 58.7641 18.8165ZM1 13.9335L2.14314 13.7359C2.21841 14.1122 2.41599 14.4368 2.73589 14.7097C2.92386 14.8673 3.14501 14.9804 3.38282 15.0406C3.57843 15.0928 3.79558 15.1189 4.03427 15.1189C4.22482 15.1201 4.41497 15.1013 4.60161 15.0629C4.82501 15.0174 5.0389 14.9337 5.23387 14.8155C5.54708 14.6231 5.71135 14.352 5.72669 14.0021C5.72746 13.9839 5.72784 13.9657 5.72782 13.9476C5.72981 13.7623 5.68173 13.5799 5.58866 13.4196C5.49558 13.2594 5.36096 13.1272 5.19901 13.0372C5.06221 12.9508 4.89892 12.8765 4.70915 12.8145C4.54821 12.7628 4.38405 12.7217 4.21774 12.6915L3.3004 12.5222C3.0398 12.4771 2.78465 12.4048 2.53915 12.3064C2.25326 12.1923 1.98829 12.0315 1.75504 11.8306C1.42601 11.5449 1.21816 11.1446 1.17373 10.7111C1.16118 10.6096 1.155 10.5075 1.15524 10.4052C1.15282 10.1665 1.19762 9.92968 1.28706 9.70834C1.3482 9.56072 1.42972 9.42239 1.52923 9.29738C1.7223 9.05588 1.96156 8.85528 2.23304 8.70732C2.32964 8.65377 2.4292 8.60575 2.53125 8.56351C2.87444 8.42255 3.23817 8.338 3.60835 8.31314C3.70782 8.30592 3.80752 8.30235 3.90726 8.30242C4.21259 8.30104 4.51705 8.335 4.81457 8.40361C4.93491 8.4318 5.05367 8.46633 5.17036 8.50705C5.56082 8.64348 5.89012 8.85988 6.15826 9.15625C6.32196 9.33983 6.44789 9.55385 6.52887 9.78611C6.5888 9.95245 6.63217 10.1346 6.65899 10.3324C6.65908 10.3332 6.65918 10.3339 6.65927 10.3347L5.55846 10.504C5.52881 10.368 5.4823 10.2363 5.42002 10.1118C5.31843 9.90626 5.15778 9.73569 4.95867 9.62197C4.7182 9.48671 4.45233 9.40271 4.1778 9.37528C4.08795 9.36559 3.99763 9.36078 3.90726 9.36088C3.73518 9.35986 3.56344 9.37627 3.39468 9.40986C3.18697 9.45059 2.98793 9.52714 2.80645 9.63609C2.50538 9.81955 2.35484 10.0712 2.35484 10.3911C2.35227 10.5093 2.37491 10.6268 2.42124 10.7356C2.46757 10.8444 2.53653 10.942 2.62355 11.0221C2.64599 11.0433 2.66934 11.0635 2.69355 11.0827C2.7758 11.1464 2.86455 11.2013 2.95831 11.2465C3.13867 11.3354 3.36287 11.4118 3.63093 11.4757C3.67586 11.4864 3.72093 11.4965 3.76613 11.506L4.81048 11.7177C5.47849 11.8495 5.99596 12.0917 6.3629 12.4446C6.61671 12.6911 6.78949 13.009 6.85826 13.3561C6.89609 13.5367 6.91454 13.7208 6.9133 13.9052C6.9153 14.1356 6.8795 14.3647 6.80731 14.5835C6.74406 14.7709 6.65119 14.9469 6.53225 15.1048C6.32812 15.3744 6.06951 15.5979 5.77326 15.7608C5.68518 15.8102 5.59465 15.855 5.50201 15.8952C5.20707 16.0216 4.89563 16.1054 4.57705 16.1441C4.39701 16.1667 4.21572 16.1778 4.03427 16.1774C3.64421 16.1796 3.256 16.1237 2.88238 16.0116C2.78998 15.9835 2.69874 15.9517 2.60887 15.9163C2.33036 15.8089 2.07043 15.6584 1.83859 15.4704C1.72177 15.3746 1.61353 15.2688 1.51512 15.1542C1.26844 14.865 1.1021 14.5161 1.03274 14.1423C1.01911 14.0732 1.00818 14.0035 1 13.9335V13.9335ZM51.8629 13.9335L53.006 13.7359C53.0813 14.1122 53.2789 14.4368 53.5988 14.7097C53.7867 14.8673 54.0079 14.9804 54.2457 15.0406C54.4413 15.0928 54.6584 15.1189 54.8971 15.1189C55.0877 15.1201 55.2778 15.1013 55.4645 15.0629C55.6879 15.0174 55.9018 14.9337 56.0967 14.8155C56.41 14.6231 56.5742 14.352 56.5896 14.0021C56.5903 13.9839 56.5907 13.9657 56.5907 13.9476C56.5927 13.7623 56.5446 13.5799 56.4515 13.4196C56.3585 13.2594 56.2238 13.1272 56.0619 13.0372C55.9251 12.9508 55.7618 12.8765 55.572 12.8145C55.4111 12.7628 55.2469 12.7217 55.0806 12.6915L54.1633 12.5222C53.9027 12.4771 53.6475 12.4048 53.402 12.3064C53.1161 12.1923 52.8512 12.0315 52.6179 11.8306C52.2889 11.5449 52.081 11.1446 52.0366 10.7111C52.024 10.6096 52.0179 10.5075 52.0181 10.4052C52.0157 10.1665 52.0605 9.92968 52.1499 9.70834C52.2111 9.56072 52.2926 9.42239 52.3921 9.29738C52.5852 9.05588 52.8244 8.85528 53.0959 8.70732C53.1925 8.65377 53.2921 8.60575 53.3941 8.56351C53.7373 8.42255 54.101 8.338 54.4712 8.31314C54.5707 8.30592 54.6704 8.30235 54.7701 8.30242C55.0755 8.30104 55.3799 8.335 55.6774 8.40361C55.7978 8.4318 55.9165 8.46633 56.0332 8.50705C56.4237 8.64348 56.753 8.85988 57.0211 9.15625C57.1848 9.33983 57.3108 9.55385 57.3917 9.78611C57.4517 9.95245 57.495 10.1346 57.5219 10.3324C57.522 10.3332 57.522 10.3339 57.5221 10.3347L56.4213 10.504C56.3917 10.368 56.3452 10.2363 56.2829 10.1118C56.1813 9.90626 56.0207 9.73569 55.8215 9.62197C55.5811 9.48671 55.3152 9.40271 55.0407 9.37528C54.9508 9.36559 54.8605 9.36078 54.7701 9.36088C54.5981 9.35986 54.4263 9.37627 54.2575 9.40986C54.0498 9.45059 53.8508 9.52714 53.6693 9.63609C53.3682 9.81955 53.2177 10.0712 53.2177 10.3911C53.2151 10.5093 53.2378 10.6268 53.2841 10.7356C53.3304 10.8444 53.3994 10.942 53.4864 11.0221C53.5089 11.0433 53.5322 11.0635 53.5564 11.0827C53.6387 11.1464 53.7274 11.2013 53.8212 11.2465C54.0015 11.3354 54.2257 11.4118 54.4938 11.4757C54.5387 11.4864 54.5838 11.4965 54.629 11.506L55.6734 11.7177C56.3414 11.8495 56.8588 12.0917 57.2258 12.4446C57.4796 12.6911 57.6524 13.009 57.7211 13.3561C57.759 13.5367 57.7774 13.7208 57.7762 13.9052C57.7782 14.1356 57.7424 14.3647 57.6702 14.5835C57.6069 14.7709 57.5141 14.9469 57.3951 15.1048C57.191 15.3744 56.9324 15.5979 56.6361 15.7608C56.5481 15.8102 56.4575 15.855 56.3649 15.8952C56.0699 16.0216 55.7585 16.1054 55.4399 16.1441C55.2599 16.1667 55.0786 16.1778 54.8971 16.1774C54.5071 16.1796 54.1189 16.1237 53.7452 16.0116C53.6529 15.9835 53.5616 15.9517 53.4717 15.9163C53.1932 15.8089 52.9333 15.6584 52.7015 15.4704C52.5846 15.3746 52.4764 15.2688 52.378 15.1542C52.1313 14.865 51.965 14.5161 51.8956 14.1423C51.882 14.0732 51.8711 14.0035 51.8629 13.9335V13.9335ZM65.8629 13.9335L67.006 13.7359C67.0813 14.1122 67.2789 14.4368 67.5987 14.7097C67.7867 14.8673 68.0079 14.9804 68.2457 15.0406C68.4413 15.0928 68.6584 15.1189 68.8971 15.1189C69.0877 15.1201 69.2778 15.1013 69.4645 15.0629C69.6879 15.0174 69.9018 14.9337 70.0967 14.8155C70.4099 14.6231 70.5742 14.352 70.5896 14.0021C70.5903 13.9839 70.5907 13.9657 70.5907 13.9476C70.5927 13.7623 70.5446 13.5799 70.4515 13.4196C70.3584 13.2594 70.2238 13.1272 70.0619 13.0372C69.9251 12.9508 69.7618 12.8765 69.572 12.8145C69.4111 12.7628 69.2469 12.7217 69.0806 12.6915L68.1633 12.5222C67.9027 12.4771 67.6475 12.4048 67.402 12.3064C67.1161 12.1923 66.8512 12.0315 66.6179 11.8306C66.2889 11.5449 66.081 11.1446 66.0366 10.7111C66.024 10.6096 66.0179 10.5075 66.0181 10.4052C66.0157 10.1665 66.0605 9.92968 66.1499 9.70834C66.2111 9.56072 66.2926 9.42239 66.3921 9.29738C66.5852 9.05588 66.8244 8.85528 67.0959 8.70732C67.1925 8.65377 67.2921 8.60575 67.3941 8.56351C67.7373 8.42255 68.101 8.338 68.4712 8.31314C68.5707 8.30592 68.6704 8.30235 68.7701 8.30242C69.0754 8.30104 69.3799 8.335 69.6774 8.40361C69.7978 8.4318 69.9165 8.46633 70.0332 8.50705C70.4237 8.64348 70.753 8.85988 71.0211 9.15625C71.1848 9.33983 71.3108 9.55385 71.3917 9.78611C71.4517 9.95245 71.495 10.1346 71.5218 10.3324C71.5219 10.3332 71.522 10.3339 71.5221 10.3347L70.4213 10.504C70.3917 10.368 70.3452 10.2363 70.2829 10.1118C70.1813 9.90626 70.0206 9.73569 69.8215 9.62197C69.5811 9.48671 69.3152 9.40271 69.0407 9.37528C68.9508 9.36559 68.8605 9.36078 68.7701 9.36088C68.598 9.35986 68.4263 9.37627 68.2575 9.40986C68.0498 9.45059 67.8508 9.52714 67.6693 9.63609C67.3682 9.81955 67.2177 10.0712 67.2177 10.3911C67.2151 10.5093 67.2378 10.6268 67.2841 10.7356C67.3304 10.8444 67.3994 10.942 67.4864 11.0221C67.5088 11.0433 67.5322 11.0635 67.5564 11.0827C67.6387 11.1464 67.7274 11.2013 67.8212 11.2465C68.0015 11.3354 68.2257 11.4118 68.4938 11.4757C68.5387 11.4864 68.5838 11.4965 68.629 11.506L69.6733 11.7177C70.3414 11.8495 70.8588 12.0917 71.2258 12.4446C71.4796 12.6911 71.6523 13.009 71.7211 13.3561C71.759 13.5367 71.7774 13.7208 71.7762 13.9052C71.7782 14.1356 71.7424 14.3647 71.6702 14.5835C71.6069 14.7709 71.5141 14.9469 71.3951 15.1048C71.191 15.3744 70.9324 15.5979 70.6361 15.7608C70.548 15.8102 70.4575 15.855 70.3649 15.8952C70.0699 16.0216 69.7585 16.1054 69.4399 16.1441C69.2599 16.1667 69.0786 16.1778 68.8971 16.1774C68.5071 16.1796 68.1189 16.1237 67.7452 16.0116C67.6528 15.9835 67.5616 15.9517 67.4717 15.9163C67.1932 15.8089 66.9333 15.6584 66.7014 15.4704C66.5846 15.3746 66.4764 15.2688 66.378 15.1542C66.1313 14.865 65.965 14.5161 65.8956 14.1423C65.882 14.0732 65.871 14.0035 65.8629 13.9335V13.9335ZM28.9718 15.9516H27.7863V8.52822H28.9153V9.50201H28.9718C29.1051 9.24604 29.2926 9.02223 29.5213 8.84619C29.6178 8.77071 29.7194 8.70219 29.8256 8.64113C30.216 8.41532 30.6653 8.30242 31.1734 8.30242C31.4293 8.30043 31.6846 8.32693 31.9346 8.38145C32.292 8.46236 32.5998 8.60537 32.858 8.81048C32.9445 8.8792 33.0253 8.95471 33.0998 9.03629C33.3779 9.34534 33.5733 9.71969 33.6678 10.1245C33.736 10.3985 33.7701 10.6991 33.7701 11.0262V15.9516H32.5847V11.1814C32.5847 10.5323 32.4224 10.0712 32.0978 9.79838C31.8353 9.57932 31.5138 9.44281 31.1739 9.40605C31.0801 9.3946 30.9856 9.38895 30.8911 9.38911C30.713 9.38785 30.5354 9.40996 30.363 9.45488C30.1867 9.50137 30.0194 9.57692 29.8679 9.67843C29.581 9.8713 29.3599 10.1253 29.2046 10.4405C29.0494 10.7557 28.9718 11.1062 28.9718 11.4919V15.9516ZM45.1592 19H43.9738V8.52822H45.1028V9.61492H45.1592C45.2741 9.40039 45.4252 9.20735 45.6059 9.04433C45.7427 8.91863 45.9006 8.80154 46.0794 8.69306C46.0808 8.69221 46.0822 8.69137 46.0836 8.69052C46.5117 8.43179 46.9892 8.30242 47.5161 8.30242C47.8425 8.29998 48.1675 8.34417 48.4814 8.43367C48.7597 8.51444 49.0243 8.63672 49.2661 8.79637C49.7648 9.12567 50.1505 9.58669 50.4234 10.1794C50.59 10.5469 50.705 10.9357 50.765 11.3347C50.8111 11.6342 50.8337 11.9369 50.8326 12.2399C50.8326 13.0208 50.6939 13.7077 50.4163 14.3004C50.2701 14.6187 50.0777 14.9136 49.8453 15.1757C49.672 15.3689 49.475 15.5395 49.259 15.6835C48.8643 15.944 48.4125 16.1053 47.942 16.1538C47.8006 16.1698 47.6584 16.1777 47.5161 16.1774C47.2835 16.1788 47.0513 16.1565 46.8232 16.1109C46.5503 16.0571 46.2884 15.9579 46.0484 15.8175C45.893 15.7265 45.746 15.622 45.6089 15.5054C45.4503 15.3688 45.3188 15.2223 45.2144 15.0659C45.1952 15.037 45.1768 15.0077 45.1592 14.9778H45.1028L45.1592 15.9516V19ZM26.1351 12.4657H20.6028C20.6302 13.0746 20.7558 13.5827 20.9796 13.9901C21.0612 14.1396 21.1597 14.2792 21.2732 14.4062C21.4588 14.6157 21.6857 14.7844 21.9398 14.9017C22.1939 15.019 22.4695 15.0824 22.7492 15.0879C22.7911 15.0898 22.8331 15.0907 22.875 15.0907C23.2585 15.0907 23.5819 15.0385 23.8452 14.9342C23.9815 14.8816 24.1089 14.8082 24.2228 14.7167C24.5285 14.4674 24.752 14.1452 24.8931 13.75L25.9375 14.0323C25.7923 14.6118 25.4642 15.1291 25.0018 15.5075C24.9822 15.524 24.9625 15.5403 24.9425 15.5564C24.6677 15.774 24.3519 15.9341 24.0139 16.027C23.7641 16.099 23.4905 16.1452 23.193 16.1656C23.073 16.1736 22.9528 16.1775 22.8326 16.1774C22.5043 16.1799 22.1772 16.1369 21.8607 16.0497C21.5615 15.9659 21.2774 15.8351 21.0191 15.6623C20.5206 15.3266 20.1214 14.863 19.8634 14.3202C19.8533 14.2995 19.8434 14.2788 19.8337 14.2581C19.6312 13.8199 19.502 13.3515 19.4512 12.8715C19.4283 12.6665 19.417 12.4603 19.4173 12.254C19.4152 11.8718 19.4554 11.4905 19.537 11.1171C19.6059 10.8055 19.7102 10.5027 19.8478 10.2147C20.0162 9.85705 20.2427 9.52977 20.5181 9.24615C20.6787 9.08269 20.8561 8.93666 21.0474 8.81048C21.5024 8.51199 22.0283 8.33941 22.5717 8.31032C22.6539 8.30501 22.7362 8.30237 22.8185 8.30242C23.1588 8.29962 23.4983 8.33685 23.8299 8.41335C24.388 8.53663 24.8962 8.82499 25.2883 9.24093C25.651 9.63578 25.9064 10.1172 26.0298 10.6389C26.1104 10.9588 26.1545 11.3073 26.1622 11.6844C26.1629 11.7238 26.1633 11.7631 26.1633 11.8024C26.1633 11.9247 26.1609 12.0447 26.1562 12.1623C26.1527 12.2523 26.1477 12.3327 26.1413 12.4035C26.1394 12.4243 26.1374 12.445 26.1351 12.4657V12.4657ZM17.8649 15.9516H16.6794V5H17.8649V15.9516ZM10.6288 16.0637C10.9462 16.1414 11.272 16.1796 11.5988 16.1774C11.8165 16.1781 12.0338 16.1617 12.249 16.1284C12.6847 16.0641 13.1024 15.9102 13.4758 15.6764C14.0027 15.3424 14.4096 14.879 14.6966 14.2863C14.9835 13.6935 15.127 13.0114 15.127 12.2399C15.1281 11.9483 15.1061 11.657 15.0614 11.3689C14.9992 10.9588 14.8763 10.5603 14.6966 10.1865C14.4096 9.59845 14.0027 9.13743 13.4758 8.80343C13.1912 8.62399 12.8793 8.49196 12.5524 8.4125C12.2402 8.33723 11.9199 8.30027 11.5988 8.30242C10.8743 8.30242 10.2463 8.46942 9.71471 8.80343C9.18313 9.13743 8.7715 9.59845 8.47983 10.1865C8.32133 10.5094 8.20652 10.8521 8.13844 11.2053C8.07274 11.5462 8.04055 11.8927 8.04233 12.2399C8.04165 12.4955 8.05891 12.7508 8.09399 13.004C8.15355 13.4492 8.28381 13.8821 8.47983 14.2863C8.48096 14.2886 8.48209 14.2909 8.48322 14.2932C8.75536 14.861 9.18222 15.3404 9.71471 15.6764C9.99704 15.853 10.3056 15.9837 10.6288 16.0637V16.0637ZM37.9231 16.0637C38.2405 16.1414 38.5663 16.1796 38.8931 16.1774C39.1108 16.1781 39.3282 16.1617 39.5433 16.1284C39.9791 16.0641 40.3968 15.9102 40.7701 15.6764C41.297 15.3424 41.7039 14.879 41.9909 14.2863C42.2779 13.6935 42.4213 13.0114 42.4213 12.2399C42.4224 11.9483 42.4004 11.657 42.3557 11.3689C42.2936 10.9588 42.1706 10.5603 41.9909 10.1865C41.7039 9.59845 41.297 9.13743 40.7701 8.80343C40.4855 8.62399 40.1737 8.49196 39.8467 8.4125C39.5345 8.33723 39.2143 8.30027 38.8931 8.30242C38.1687 8.30242 37.5406 8.46942 37.009 8.80343C36.4775 9.13743 36.0658 9.59845 35.7742 10.1865C35.6157 10.5094 35.5009 10.8521 35.4328 11.2053C35.3671 11.5462 35.3349 11.8927 35.3367 12.2399C35.336 12.4955 35.3533 12.7508 35.3883 13.004C35.4479 13.4492 35.5781 13.8821 35.7742 14.2863C35.7753 14.2886 35.7764 14.2909 35.7776 14.2932C36.0497 14.861 36.4766 15.3404 37.009 15.6764C37.2914 15.853 37.5999 15.9837 37.9231 16.0637V16.0637ZM11.5988 15.0907C11.8845 15.094 12.1685 15.0455 12.4369 14.9476C12.7686 14.8215 13.0629 14.6134 13.2923 14.3427C13.5214 14.0735 13.69 13.7583 13.7867 13.4183C13.8609 13.1707 13.9085 12.8981 13.9292 12.6006C13.9375 12.4806 13.9416 12.3603 13.9415 12.2399C13.9433 11.9638 13.9199 11.688 13.8717 11.4161C13.815 11.1088 13.7239 10.8336 13.5983 10.5907C13.5147 10.4278 13.412 10.2756 13.2923 10.1371C13.1026 9.9134 12.8683 9.73173 12.6043 9.60372C12.3404 9.4757 12.0527 9.40415 11.7595 9.39363C11.706 9.39058 11.6524 9.38907 11.5988 9.38911C11.2806 9.38518 10.9651 9.44687 10.6718 9.57032C10.3756 9.70036 10.1115 9.89383 9.89818 10.1371C9.50462 10.5763 9.28436 11.1724 9.23741 11.9253C9.23095 12.0301 9.22775 12.135 9.22782 12.2399C9.226 12.5162 9.25015 12.792 9.29993 13.0637C9.36006 13.3792 9.45758 13.6607 9.59249 13.9083C9.67719 14.0645 9.77978 14.2103 9.89818 14.3427C10.0947 14.5689 10.3359 14.7518 10.6067 14.8801C10.8775 15.0083 11.1719 15.079 11.4713 15.0878C11.5138 15.0897 11.5563 15.0907 11.5988 15.0907V15.0907ZM38.8931 15.0907C39.1789 15.094 39.4628 15.0455 39.7313 14.9476C40.0629 14.8215 40.3572 14.6134 40.5867 14.3427C40.8157 14.0735 40.9843 13.7583 41.081 13.4183C41.1553 13.1707 41.2028 12.8981 41.2236 12.6006C41.2319 12.4806 41.236 12.3603 41.2359 12.2399C41.2376 11.9638 41.2142 11.688 41.166 11.4161C41.1094 11.1088 41.0182 10.8336 40.8926 10.5907C40.8091 10.4278 40.7064 10.2756 40.5867 10.1371C40.3969 9.9134 40.1626 9.73173 39.8987 9.60372C39.6347 9.4757 39.347 9.40415 39.0539 9.39363C39.0003 9.39058 38.9467 9.38907 38.8931 9.38911C38.575 9.38518 38.2594 9.44687 37.9662 9.57032C37.6699 9.70036 37.4058 9.89383 37.1925 10.1371C36.799 10.5763 36.5787 11.1724 36.5318 11.9253C36.5253 12.0301 36.5221 12.135 36.5222 12.2399C36.5203 12.5162 36.5445 12.792 36.5943 13.0637C36.6544 13.3792 36.7519 13.6607 36.8868 13.9083C36.9715 14.0645 37.0741 14.2103 37.1925 14.3427C37.389 14.5689 37.6303 14.7518 37.901 14.8801C38.1718 15.0083 38.4662 15.079 38.7657 15.0878C38.8081 15.0897 38.8506 15.0907 38.8931 15.0907V15.0907ZM47.3891 15.0907C47.6733 15.0941 47.9554 15.0429 48.2203 14.94C48.5304 14.8141 48.8047 14.6138 49.0191 14.3569C49.2234 14.1129 49.3767 13.8304 49.4699 13.5262C49.5456 13.2907 49.5971 13.03 49.6243 12.7443C49.6399 12.5766 49.6475 12.4083 49.6471 12.2399C49.6487 11.9717 49.6282 11.7037 49.5858 11.4389C49.5381 11.1515 49.4624 10.893 49.3587 10.6634C49.2718 10.468 49.1574 10.286 49.0191 10.123C48.838 9.90477 48.613 9.72707 48.3588 9.60142C48.1045 9.47578 47.8267 9.40498 47.5433 9.39363C47.492 9.39061 47.4405 9.3891 47.3891 9.38911C47.06 9.38468 46.7343 9.45524 46.4366 9.59544C46.1753 9.72357 45.9425 9.90298 45.752 10.123C45.5344 10.3742 45.3721 10.6683 45.2754 10.9863C45.1603 11.3466 45.1028 11.7645 45.1028 12.2399C45.1012 12.5082 45.1224 12.7762 45.1662 13.041C45.2167 13.3346 45.2973 13.5981 45.4081 13.8316C45.4974 14.022 45.6132 14.1988 45.752 14.3569C45.9395 14.5772 46.1709 14.756 46.4314 14.8819C46.692 15.0077 46.9759 15.0778 47.265 15.0878C47.3064 15.0897 47.3477 15.0907 47.3891 15.0907ZM20.6593 11.4778H24.9214C24.9034 10.8664 24.7371 10.3731 24.4226 9.99794C24.408 9.98055 24.3932 9.96343 24.378 9.94657C24.0752 9.61059 23.6353 9.42275 23.0582 9.38304C22.9784 9.37762 22.8985 9.37493 22.8185 9.375C22.5691 9.37251 22.3211 9.41236 22.0851 9.49284C21.8299 9.58251 21.5965 9.72511 21.4002 9.91129C21.0652 10.2255 20.8339 10.6669 20.7061 11.2355C20.6882 11.3158 20.6725 11.3966 20.6593 11.4778V11.4778Z" fill="#F10303" stroke="#F10303" stroke-width="0.5" stroke-linecap="round"/>
</svg>
