<svg width="42" height="39" viewBox="0 0 42 39" fill="none" xmlns="http://www.w3.org/2000/svg">
<path d="M13.4932 18.9221C12.5401 20.1545 11.6793 21.3869 10.921 22.598C10.798 22.7892 10.6853 22.9804 10.5725 23.161C10.4598 23.3416 10.3573 23.5222 10.2446 23.7028C10.1934 23.7878 10.1524 23.8728 10.1011 23.9472C10.0601 24.0109 10.0191 24.0853 9.97815 24.149C9.91666 24.2447 9.86542 24.3509 9.80394 24.4465C9.68096 24.6696 9.55798 24.9033 9.43501 25.1264C7.62112 23.0229 6.04294 20.8982 4.75169 18.8372C6.11467 16.7868 7.75434 14.6833 9.60923 12.6329C9.62972 12.6647 9.63997 12.7072 9.66046 12.7391C9.70146 12.8241 9.7527 12.9197 9.79369 13.0153C9.84493 13.1216 9.90642 13.2278 9.95765 13.334C9.99865 13.419 10.0499 13.504 10.0909 13.589C10.2139 13.8227 10.3471 14.0565 10.4803 14.2902C10.5213 14.3752 10.5725 14.4602 10.6238 14.5345L10.634 14.5452C10.6648 14.5983 10.6955 14.6514 10.7263 14.7045C10.7672 14.7789 10.8185 14.8639 10.8595 14.9382C10.921 15.0445 10.9825 15.1507 11.0542 15.2569C11.1157 15.3632 11.1874 15.48 11.2489 15.5863C11.3104 15.6925 11.3821 15.8094 11.4539 15.9156C11.4539 15.9156 11.4539 15.9156 11.4539 15.9262C11.5768 16.1281 11.6998 16.3193 11.833 16.5212C11.9253 16.6593 12.0072 16.7974 12.0995 16.9249C12.2327 17.1161 12.3659 17.318 12.4991 17.5198C12.5094 17.5411 12.5299 17.5623 12.5401 17.5729C12.6119 17.6685 12.6836 17.7748 12.7451 17.881C12.7656 17.9023 12.7758 17.9341 12.7963 17.9554C12.8681 18.051 12.9296 18.1466 13.0013 18.2422C13.0628 18.3378 13.1345 18.4335 13.196 18.5184C13.2165 18.5397 13.2268 18.5716 13.2473 18.5928C13.319 18.699 13.401 18.8053 13.483 18.9115C13.4932 18.9115 13.4932 18.9221 13.4932 18.9221Z" fill="black"/>
<path d="M26.3134 6.84297C26.2519 6.87484 26.2006 6.91733 26.1392 6.95983C26.0469 7.02357 25.9547 7.07669 25.8727 7.14043C25.801 7.18293 25.7292 7.23605 25.6575 7.28917C25.6063 7.33166 25.5448 7.36353 25.4935 7.40603C25.3296 7.52289 25.1656 7.62912 25.0016 7.74599C24.9299 7.7991 24.8479 7.85222 24.7762 7.90534C24.52 8.08595 24.2638 8.27718 24.0076 8.4684C23.9563 8.5109 23.8949 8.55339 23.8436 8.59589C23.3722 8.9571 22.9008 9.32893 22.4294 9.71138C22.3577 9.7645 22.2859 9.82824 22.2244 9.88136C22.1015 9.97698 21.9887 10.0726 21.8658 10.1788C21.7838 10.2532 21.6915 10.3276 21.6096 10.3913C21.5276 10.455 21.4456 10.5294 21.3636 10.6038C21.2406 10.71 21.1177 10.8163 20.9947 10.9225C19.2115 9.35018 17.4181 7.99033 15.676 6.84297C17.4796 5.36626 19.273 4.10203 20.9947 3.08215C22.7266 4.10203 24.5097 5.36626 26.3134 6.84297Z" fill="black"/>
<path d="M26.2417 31.3838C24.479 32.8818 22.7061 34.1672 20.9947 35.2296C19.2833 34.1672 17.5206 32.8711 15.7477 31.3838C15.881 31.2882 16.0142 31.2032 16.1474 31.1076C16.2089 31.0651 16.2806 31.012 16.3421 30.9695C16.5983 30.7889 16.8648 30.5977 17.121 30.3958C17.3157 30.2577 17.5001 30.109 17.6949 29.9602C17.8281 29.854 17.9613 29.7584 18.0945 29.6521C18.1765 29.5884 18.2585 29.5247 18.3405 29.4609C18.3507 29.4503 18.361 29.4503 18.3712 29.4397C18.4532 29.3759 18.5352 29.3016 18.6274 29.2378C18.8529 29.0572 19.0681 28.8766 19.2935 28.696C19.3755 28.6216 19.4678 28.5473 19.5497 28.4835C19.6112 28.4304 19.6727 28.3773 19.7342 28.3242C19.8162 28.2604 19.8982 28.1861 19.9801 28.1117C20.3183 27.8142 20.6565 27.5168 20.9947 27.2087C21.3329 27.5168 21.6711 27.8142 22.0092 28.1117C22.0912 28.1861 22.1732 28.2498 22.2552 28.3242C22.3167 28.3773 22.3782 28.4304 22.4397 28.4835C22.5216 28.5579 22.6139 28.6323 22.6959 28.696C22.9213 28.8872 23.1365 29.0678 23.362 29.2378C23.444 29.3016 23.5259 29.3759 23.6182 29.4397C23.6284 29.4503 23.6387 29.4503 23.6489 29.4609C23.7309 29.5247 23.8129 29.5884 23.8949 29.6521C24.0281 29.7584 24.1613 29.8646 24.2945 29.9602C24.4892 30.109 24.6737 30.2577 24.8684 30.3958C25.1246 30.587 25.3911 30.7783 25.6473 30.9695C25.7088 31.012 25.7805 31.0651 25.842 31.1076C25.9752 31.2032 26.1084 31.2988 26.2417 31.3838Z" fill="black"/>
<path d="M37.2377 18.8478C35.9465 20.9088 34.3785 23.0442 32.5544 25.137C31.4886 23.1292 30.1154 21.0256 28.4962 18.9221L28.5065 18.9115C28.5884 18.8053 28.6602 18.699 28.7422 18.5928C28.7627 18.5716 28.7729 18.5397 28.7934 18.5184C28.8651 18.4228 28.9266 18.3272 28.9881 18.2422C29.0599 18.1466 29.1213 18.051 29.1931 17.9554C29.2136 17.9341 29.2238 17.9023 29.2443 17.881C29.3161 17.7748 29.3878 17.6792 29.4493 17.5729C29.4595 17.5517 29.48 17.5304 29.4903 17.5198C29.6235 17.318 29.7567 17.1267 29.8899 16.9249C29.9822 16.7868 30.0642 16.6487 30.1564 16.5212C30.2896 16.3193 30.4126 16.1281 30.5356 15.9262C30.5356 15.9262 30.5356 15.9262 30.5356 15.9156C30.6073 15.8094 30.6688 15.6925 30.7405 15.5863C30.8123 15.48 30.8737 15.3632 30.9352 15.2569C30.9967 15.1507 31.0582 15.0445 31.1299 14.9382C31.1709 14.8639 31.2222 14.7789 31.2632 14.7045C31.2939 14.6514 31.3247 14.5983 31.3554 14.5452L31.3656 14.5345C31.4169 14.4495 31.4579 14.3645 31.5091 14.2902C31.6423 14.0565 31.7653 13.8227 31.8985 13.589C31.9395 13.504 31.9908 13.419 32.0318 13.334C32.083 13.2278 32.1445 13.1216 32.1957 13.0153C32.247 12.9197 32.288 12.8347 32.329 12.7391C32.3494 12.7072 32.3597 12.6647 32.3802 12.6329C34.2351 14.6939 35.8747 16.7868 37.2377 18.8478Z" fill="black"/>
<path d="M15.758 31.3838C15.2354 31.745 14.7127 32.085 14.2003 32.4037C14.1286 32.4462 14.0466 32.4993 13.9749 32.5418C13.8826 32.6055 13.7801 32.6587 13.6777 32.7224C13.5957 32.7755 13.5137 32.818 13.4317 32.8711C13.319 32.9349 13.2063 32.9986 13.0935 33.0624C13.0013 33.1155 12.8988 33.1686 12.8066 33.2217C12.7656 33.243 12.7144 33.2748 12.6734 33.2961C12.6119 33.328 12.5606 33.3598 12.4991 33.3917C12.202 33.5511 11.915 33.6998 11.6281 33.8485C11.4539 33.9335 11.2796 34.0185 11.1054 34.1035C11.0337 34.1354 10.962 34.1779 10.88 34.2097C10.7672 34.2629 10.6545 34.316 10.5418 34.3585C10.4701 34.3903 10.3983 34.4222 10.3266 34.4541C9.67071 34.7409 9.03534 34.9853 8.42046 35.1871C8.33848 35.219 8.2565 35.2402 8.17451 35.2615C8.11302 35.2827 8.06178 35.2934 8.0003 35.3146C7.9593 35.3252 7.91831 35.3358 7.87732 35.3465C7.80559 35.3677 7.73385 35.389 7.66211 35.4102C7.60063 35.4315 7.52889 35.4421 7.4674 35.4633C7.28294 35.5165 7.10872 35.559 6.92426 35.5908C6.78079 35.049 6.69881 34.4435 6.69881 33.7954C6.69881 33.721 6.69881 33.6467 6.69881 33.5829C6.69881 33.5723 6.69881 33.5617 6.69881 33.5511C6.69881 33.4873 6.6988 33.4236 6.70905 33.3598C6.70905 33.2748 6.7193 33.2005 6.7193 33.1155C6.7193 33.0836 6.7193 33.0624 6.72955 33.0305C6.7398 32.9668 6.7398 32.903 6.75005 32.8286C6.76029 32.7755 6.76029 32.7118 6.77054 32.6587V32.648C6.77054 32.6162 6.78079 32.5737 6.78079 32.5418C6.79104 32.4781 6.80128 32.4037 6.81153 32.3399C6.82178 32.2975 6.82178 32.255 6.83203 32.2125C6.83203 32.1806 6.84228 32.1593 6.84228 32.1275C6.85253 32.085 6.85252 32.0425 6.86277 32.0106C6.87302 31.9681 6.88327 31.915 6.88327 31.8619C6.89352 31.8088 6.90376 31.7556 6.91401 31.7025V31.6919C6.91401 31.6707 6.92426 31.6494 6.92426 31.6282C6.92426 31.6282 6.92426 31.6282 6.92426 31.6175C6.93451 31.5644 6.94476 31.5219 6.95501 31.4688C6.996 31.2669 7.04724 31.0651 7.09848 30.8526C7.11897 30.7889 7.12922 30.7145 7.14972 30.6508C7.15996 30.6189 7.17021 30.587 7.17021 30.5552C7.18046 30.5127 7.19071 30.4702 7.2112 30.4171C7.22145 30.3639 7.24195 30.3108 7.2522 30.2577C7.26244 30.2152 7.27269 30.1727 7.29319 30.1302C7.30343 30.0771 7.32393 30.0346 7.33418 29.9815C7.34443 29.939 7.36492 29.8965 7.37517 29.854C7.56988 29.2272 7.79534 28.5898 8.07203 27.9311C8.09253 27.8886 8.10278 27.8461 8.12327 27.8036C8.14377 27.7505 8.17451 27.6867 8.19501 27.6336C8.2155 27.5911 8.22575 27.5486 8.24625 27.5168C8.27699 27.4318 8.31798 27.3468 8.35897 27.2618C8.39997 27.1662 8.44096 27.0812 8.48195 26.9856C8.67666 26.5606 8.88162 26.1357 9.09683 25.7001C9.13782 25.6151 9.17881 25.5407 9.2198 25.4558C9.23005 25.4451 9.2403 25.4239 9.2403 25.4026C9.27104 25.3495 9.29154 25.2964 9.32228 25.2433C9.35303 25.1902 9.37352 25.1477 9.40427 25.0945C10.0806 25.8701 10.7877 26.6562 11.5256 27.4211C12.9398 28.8872 14.3438 30.1939 15.758 31.3838Z" fill="black"/>
<path d="M28.4962 18.9116C28.4142 19.0178 28.3323 19.124 28.2605 19.2303C28.1888 19.3259 28.1171 19.4215 28.0453 19.5171C27.8609 19.7615 27.6661 20.0164 27.4714 20.2608C27.4202 20.3245 27.3689 20.3989 27.3075 20.4626C27.1947 20.6114 27.0718 20.7601 26.9488 20.8982C26.8873 20.9832 26.8156 21.0576 26.7438 21.1425C26.6823 21.2169 26.6208 21.3019 26.5491 21.3763C26.5389 21.3869 26.5389 21.3869 26.5286 21.3975C26.4569 21.4825 26.3851 21.5781 26.3032 21.6631C26.2417 21.7269 26.1904 21.8012 26.1289 21.865C26.047 21.9606 25.965 22.0562 25.883 22.1518C25.8215 22.2262 25.7498 22.3005 25.6883 22.3749C25.0529 23.1079 24.3868 23.8304 23.6899 24.5528C23.5567 24.6909 23.4337 24.8184 23.3005 24.9459C23.2185 25.0308 23.1365 25.1158 23.0546 25.1902C22.9213 25.3177 22.7984 25.4452 22.6651 25.5727C22.5524 25.6789 22.4499 25.7851 22.3372 25.8914C22.0913 26.1251 21.8556 26.3588 21.6096 26.5819C21.5276 26.6563 21.4456 26.7306 21.3636 26.805C21.2304 26.9219 21.1074 27.0494 20.9742 27.1662C20.841 27.0494 20.718 26.9325 20.5848 26.805C20.5028 26.7306 20.4208 26.6563 20.3389 26.5819C20.0929 26.3588 19.8572 26.1251 19.6112 25.8914C19.4985 25.7851 19.396 25.6789 19.2833 25.5727C19.1501 25.4452 19.0271 25.3177 18.8939 25.1902C18.8119 25.1052 18.7299 25.0308 18.6479 24.9459C18.5147 24.8184 18.3917 24.6803 18.2585 24.5528C17.5617 23.8304 16.8955 23.1079 16.2602 22.3749C16.1884 22.3005 16.1269 22.2262 16.0655 22.1518C15.9835 22.0562 15.9015 21.9606 15.8195 21.865C15.758 21.8012 15.7068 21.7269 15.6453 21.6631C15.5736 21.5781 15.4916 21.4825 15.4198 21.3975C15.4096 21.3869 15.4096 21.3869 15.3993 21.3763C15.3378 21.3019 15.2661 21.2169 15.2046 21.1425C15.1329 21.0576 15.0714 20.9832 14.9997 20.8982C14.8767 20.7495 14.764 20.6007 14.641 20.4626C14.5897 20.3989 14.5385 20.3245 14.477 20.2608C14.2823 20.0058 14.0876 19.7615 13.9031 19.5171C13.8314 19.4215 13.7597 19.3259 13.6879 19.2303C13.6059 19.124 13.524 19.0178 13.4522 18.9116C13.524 18.8159 13.6059 18.7097 13.6879 18.6141C13.7494 18.5397 13.8109 18.4547 13.8724 18.3804C13.9749 18.2529 14.0773 18.1148 14.1901 17.9873C14.2618 17.9023 14.3335 17.8067 14.4053 17.7217C14.4463 17.6686 14.4873 17.6261 14.5283 17.573C14.5693 17.5198 14.6102 17.4773 14.6512 17.4242C14.7332 17.3286 14.8152 17.2224 14.8972 17.1268C15.4506 16.4681 16.0245 15.8094 16.6291 15.1614C16.7316 15.0551 16.8341 14.9383 16.9365 14.832C17.1415 14.6089 17.3567 14.3965 17.5617 14.1734C17.6539 14.0777 17.7461 13.9821 17.8383 13.8971C17.9101 13.8228 17.9818 13.7484 18.0536 13.674C18.2585 13.4722 18.4532 13.2703 18.6582 13.0685C18.7504 12.9835 18.8427 12.8879 18.9349 12.8029C19.1193 12.6223 19.3038 12.4523 19.4883 12.2717C19.6215 12.1442 19.7547 12.0167 19.8982 11.8892C19.9699 11.8255 20.0417 11.7618 20.1134 11.698C20.2569 11.5705 20.4003 11.443 20.5438 11.3156C20.6873 11.1881 20.8308 11.0606 20.9742 10.9331C22.1117 11.9317 23.2493 13.0154 24.3663 14.1734C25.8932 15.7244 27.2665 17.318 28.4962 18.9116Z" fill="black"/>
<path d="M34.5835 5.20683C34.5835 5.25995 34.5835 5.31307 34.5732 5.37681C34.5732 5.39806 34.5732 5.41931 34.5732 5.44056C34.5732 5.49367 34.563 5.55742 34.563 5.61054C34.563 5.63178 34.563 5.65303 34.563 5.67428C34.563 5.7274 34.5527 5.76989 34.5527 5.82301C34.5527 5.85488 34.5527 5.87613 34.5425 5.908C34.5425 5.96112 34.5322 6.00361 34.522 6.05673C34.522 6.09923 34.5117 6.1311 34.5117 6.17359C34.4707 6.51356 34.4092 6.86414 34.3375 7.22535C34.3273 7.26784 34.317 7.31034 34.3068 7.35283C34.2965 7.40595 34.2863 7.44845 34.276 7.50157C34.2658 7.57593 34.2453 7.63967 34.2248 7.71404C34.2145 7.76716 34.2043 7.82028 34.1838 7.8734C34.1735 7.91589 34.1633 7.96901 34.153 8.0115C34.1121 8.17086 34.0711 8.33022 34.0198 8.48957C33.9993 8.55332 33.9788 8.61706 33.9583 8.69143C33.9378 8.75517 33.9276 8.81891 33.9071 8.87203C33.8969 8.92515 33.8764 8.97827 33.8559 9.03139C33.8456 9.08451 33.8251 9.127 33.8046 9.18012C33.7944 9.21199 33.7841 9.24386 33.7739 9.26511C33.7534 9.31823 33.7431 9.37135 33.7226 9.42447C33.7124 9.46696 33.6919 9.50946 33.6816 9.55195C33.6611 9.60507 33.6407 9.66881 33.6202 9.72193C33.5894 9.80692 33.5587 9.89191 33.5279 9.9769C33.4357 10.2319 33.3332 10.4975 33.2205 10.7631C33.2 10.8162 33.1795 10.8693 33.159 10.9224C33.1283 10.9968 33.0975 11.0712 33.0668 11.1349C33.036 11.1986 33.0053 11.273 32.9745 11.3367C32.9438 11.4005 32.913 11.4749 32.8823 11.5386C32.8311 11.6555 32.7798 11.7723 32.7183 11.8892C32.6876 11.9529 32.6568 12.0167 32.6363 12.0804C32.5544 12.261 32.4621 12.4416 32.3802 12.6222C31.9702 12.176 31.5501 11.7192 31.1197 11.273C29.5415 9.63694 27.9223 8.14962 26.3134 6.83227C26.4056 6.76853 26.4978 6.71541 26.5901 6.65166C26.6515 6.60917 26.713 6.5773 26.7745 6.5348C26.8975 6.46044 27.0102 6.38607 27.1332 6.3117C27.1742 6.27983 27.2254 6.25858 27.2664 6.22671C27.3996 6.14172 27.5329 6.05673 27.6661 5.98237C27.7583 5.92925 27.8403 5.87613 27.9325 5.82301C28.0248 5.76989 28.1068 5.71677 28.199 5.66366C28.2502 5.63178 28.3117 5.59991 28.363 5.56804C28.5987 5.44055 28.8241 5.31307 29.0598 5.18559C29.1418 5.14309 29.234 5.08997 29.316 5.04747C29.4697 4.96248 29.6235 4.88812 29.7874 4.81375C29.8489 4.78188 29.9001 4.76063 29.9616 4.72876C30.1768 4.62252 30.3818 4.52691 30.597 4.4313C30.679 4.3888 30.761 4.35693 30.843 4.31444C30.9249 4.28256 31.0069 4.24007 31.0889 4.2082C31.1709 4.17633 31.2529 4.13383 31.3349 4.10196C31.4168 4.07009 31.4988 4.03822 31.5808 4.00635C31.8268 3.91073 32.0625 3.81512 32.3084 3.73013C32.3904 3.69826 32.4621 3.67701 32.5441 3.64514C32.6773 3.60264 32.8003 3.56015 32.9335 3.51765C32.954 3.50703 32.9745 3.50703 32.995 3.4964C33.0258 3.48578 33.0668 3.47516 33.0975 3.46453C33.282 3.41142 33.4562 3.3583 33.6304 3.30518C33.6714 3.29455 33.7226 3.28393 33.7636 3.27331C33.8149 3.26268 33.8764 3.24143 33.9276 3.23081C33.9993 3.20956 34.0711 3.19894 34.1428 3.17769C34.2145 3.15644 34.2863 3.14582 34.358 3.12457C34.5322 3.75137 34.604 4.45254 34.5835 5.20683Z" fill="black"/>
<path d="M15.6862 6.84294C14.0773 8.16029 12.4581 9.64762 10.8799 11.2837C10.4495 11.7299 10.0294 12.1761 9.61945 12.6329C9.52722 12.4523 9.44523 12.2717 9.36325 12.0911C9.3325 12.0273 9.30176 11.9636 9.28126 11.8999C9.23002 11.783 9.17878 11.6661 9.11729 11.5493C9.08655 11.4855 9.05581 11.4112 9.02506 11.3474C8.99432 11.2837 8.96358 11.2093 8.93283 11.1456C8.90209 11.0712 8.87135 10.9968 8.8406 10.9331C8.82011 10.88 8.79961 10.8269 8.77911 10.7737C8.66639 10.5081 8.57415 10.2532 8.47167 9.98758C8.44093 9.90259 8.41019 9.8176 8.37944 9.73261C8.35895 9.67949 8.33845 9.61575 8.31795 9.56263C8.29746 9.52013 8.28721 9.47764 8.27696 9.43514C8.25647 9.38203 8.23597 9.32891 8.22572 9.27579C8.21548 9.24392 8.20523 9.21204 8.19498 9.1908C8.17448 9.13768 8.16423 9.09518 8.14374 9.04206C8.12324 8.98895 8.11299 8.93583 8.0925 8.88271C8.072 8.81896 8.05151 8.75522 8.04126 8.7021C8.02076 8.63836 8.00027 8.56399 7.97977 8.50025C7.92853 8.34089 7.88754 8.18154 7.84655 8.02218C7.8363 7.97969 7.82605 7.92657 7.81581 7.88407C7.80556 7.83096 7.78506 7.77784 7.77481 7.72472C7.75432 7.65035 7.74407 7.58661 7.72357 7.51224C7.71333 7.45912 7.70308 7.41663 7.69283 7.36351C7.68258 7.32102 7.67233 7.27852 7.66209 7.23602C7.59035 6.87482 7.52886 6.52423 7.48787 6.18427C7.47762 6.14178 7.47762 6.1099 7.47762 6.06741C7.46737 6.01429 7.46737 5.9718 7.45713 5.91868C7.45713 5.88681 7.44688 5.86556 7.44688 5.83369C7.43663 5.78057 7.43663 5.73807 7.43663 5.68495C7.43663 5.66371 7.43663 5.64246 7.43663 5.62121C7.43663 5.56809 7.42638 5.50435 7.42638 5.45123C7.42638 5.42998 7.42638 5.40874 7.42638 5.38749C7.42638 5.33437 7.41614 5.27063 7.41614 5.21751C7.39564 4.46322 7.46737 3.76205 7.63134 3.14587C9.98837 3.65581 12.7656 4.93067 15.6862 6.84294Z" fill="black"/>
<path d="M35.0549 35.5908C34.8807 35.5483 34.6962 35.5058 34.5118 35.4633C34.4503 35.4527 34.3888 35.4315 34.3171 35.4102C34.2453 35.389 34.1736 35.3677 34.1019 35.3465C34.0609 35.3358 34.0199 35.3252 33.9789 35.3146C33.9174 35.2933 33.8662 35.2827 33.8047 35.2615C33.7227 35.2402 33.6407 35.2084 33.5587 35.1871C32.9438 34.9853 32.3085 34.7409 31.6526 34.4541C31.5809 34.4222 31.5091 34.3903 31.4374 34.3585C31.3247 34.3053 31.2119 34.2628 31.0992 34.2097C31.0275 34.1779 30.9557 34.1354 30.8737 34.1035C30.6995 34.0185 30.5253 33.9335 30.3511 33.8485C30.0642 33.6998 29.7772 33.5511 29.48 33.3917C29.4185 33.3598 29.3673 33.3279 29.3058 33.2961C29.2648 33.2748 29.2136 33.243 29.1726 33.2217C29.0804 33.1686 28.9779 33.1155 28.8856 33.0624C28.7729 32.9986 28.6602 32.9349 28.5475 32.8711C28.4655 32.818 28.3835 32.7755 28.3015 32.7224C28.2093 32.6693 28.1068 32.6055 28.0043 32.5418C27.9326 32.4993 27.8506 32.4462 27.7789 32.4037C27.2665 32.085 26.7438 31.745 26.2212 31.3838C27.6251 30.1939 29.0394 28.8766 30.4126 27.453C31.1504 26.6881 31.8576 25.9126 32.5339 25.1264C34.7885 29.3122 35.7415 33.073 35.0549 35.5908Z" fill="black"/>
<path d="M9.435 25.1263C7.20095 29.3121 6.25814 33.0835 6.94475 35.6013C4.47499 36.1431 2.45615 35.8457 1.23664 34.5815C-1.34585 31.9043 0.252834 25.615 4.76194 18.8477C6.04293 20.9087 7.62112 23.0334 9.435 25.1263Z" fill="#0090D7"/>
<path d="M34.3683 3.13511C32.0113 3.65567 29.2341 4.93052 26.3134 6.8428C24.5098 5.3661 22.7164 4.10187 20.9947 3.08199C26.3954 -0.126389 31.1402 -1.00816 33.3435 1.28657C33.8252 1.78589 34.1633 2.41269 34.3683 3.13511Z" fill="#0090D7"/>
<path d="M20.9947 3.08197C19.273 4.10185 17.4796 5.36608 15.676 6.84279C12.7553 4.93051 9.97811 3.65566 7.62108 3.13509C7.81579 2.40205 8.15397 1.78587 8.63563 1.28656C10.8492 -0.997552 15.594 -0.126404 20.9947 3.08197Z" fill="#0090D7"/>
<path d="M31.1197 11.2835C31.5501 11.7297 31.9703 12.1759 32.3802 12.6327C32.3597 12.6646 32.3494 12.7071 32.3289 12.739C32.2879 12.824 32.2367 12.9196 32.1957 13.0152C32.1445 13.1214 32.083 13.2277 32.0317 13.3339C31.9908 13.4189 31.9395 13.5039 31.8985 13.5889C31.8268 13.7163 31.7653 13.8438 31.6936 13.9713C31.6321 14.0776 31.5808 14.1838 31.5193 14.29C31.4784 14.375 31.4271 14.46 31.3759 14.5344L31.3656 14.545C31.3349 14.5981 31.3041 14.6512 31.2734 14.7044C31.2324 14.7787 31.1812 14.8637 31.1402 14.9381C31.0787 15.0443 31.0172 15.1506 30.9455 15.2568C30.884 15.363 30.8122 15.4799 30.7507 15.5861C30.6893 15.6924 30.6175 15.8092 30.5458 15.9155C30.5458 15.9155 30.5458 15.9155 30.5458 15.9261C30.4228 16.1279 30.2998 16.3192 30.1666 16.521C30.0744 16.6591 29.9924 16.7972 29.9002 16.9247C29.7669 17.116 29.6337 17.3178 29.5005 17.5197C29.4902 17.5409 29.4697 17.5622 29.4595 17.5728C29.3878 17.6684 29.316 17.7746 29.2545 17.8809C29.234 17.9021 29.2238 17.934 29.2033 17.9552C29.1316 18.0508 29.0701 18.1465 28.9983 18.2421C28.9369 18.3377 28.8651 18.4333 28.8036 18.5183C28.7831 18.5395 28.7729 18.5714 28.7524 18.5927C28.6807 18.6989 28.5987 18.8051 28.5167 18.9114L28.5064 18.922C27.2767 17.3284 25.9035 15.7349 24.397 14.1626C23.28 13.0046 22.1425 11.9209 21.0049 10.9223C22.7881 9.34998 24.5815 7.99014 26.3236 6.84277C27.9223 8.16012 29.5415 9.64745 31.1197 11.2835Z" fill="#0090D7"/>
<path d="M40.763 34.5815C39.5333 35.8563 37.5247 36.1431 35.0549 35.6013C35.7415 33.0835 34.7987 29.3227 32.5646 25.1263C34.3785 23.0228 35.9567 20.898 37.248 18.837C41.7468 25.615 43.3455 31.8936 40.763 34.5815Z" fill="#0090D7"/>
<path d="M20.9947 10.9223C19.8572 11.9209 18.7197 13.0046 17.6026 14.1626C16.0962 15.7242 14.723 17.3178 13.4932 18.922L13.483 18.9114C13.401 18.8051 13.3292 18.6989 13.2473 18.5927C13.2268 18.5714 13.2165 18.5395 13.196 18.5183C13.1243 18.4227 13.0628 18.3271 13.0013 18.2421C12.9296 18.1465 12.8681 18.0508 12.7963 17.9552C12.7758 17.934 12.7656 17.9021 12.7451 17.8809C12.6734 17.7746 12.6016 17.679 12.5401 17.5728C12.5299 17.5515 12.5094 17.5303 12.4992 17.5197C12.3659 17.3178 12.2327 17.1266 12.0995 16.9247C12.0072 16.7866 11.9253 16.6485 11.833 16.521C11.6998 16.3192 11.5768 16.1279 11.4539 15.9261C11.4539 15.9261 11.4539 15.9261 11.4539 15.9155C11.3821 15.8092 11.3206 15.6924 11.2489 15.5861C11.1772 15.4799 11.1157 15.363 11.0542 15.2568C10.9927 15.1506 10.9312 15.0443 10.8595 14.9381C10.8185 14.8637 10.7672 14.7787 10.7263 14.7044C10.6955 14.6512 10.6648 14.5981 10.634 14.545L10.6238 14.5344C10.5725 14.4494 10.5315 14.3644 10.4803 14.29C10.4188 14.1838 10.3573 14.0776 10.3061 13.9713C10.2344 13.8438 10.1626 13.7163 10.1011 13.5889C10.0601 13.5039 10.0089 13.4189 9.96791 13.3339C9.91667 13.2277 9.85518 13.1214 9.80394 13.0152C9.7527 12.9196 9.71171 12.8346 9.67072 12.739C9.65022 12.7071 9.63997 12.6646 9.61948 12.6327C10.0294 12.1865 10.4496 11.7297 10.88 11.2835C12.4582 9.64745 14.0773 8.16012 15.6863 6.84277C17.4182 7.99014 19.2116 9.34998 20.9947 10.9223Z" fill="#0090D7"/>
<path d="M20.9947 35.2401C15.3071 38.7884 10.2651 39.8402 7.95931 37.4605C7.47766 36.9611 7.13947 36.3343 6.94476 35.6119C7.0165 35.6013 7.08824 35.5801 7.15997 35.5588C7.23171 35.5482 7.29319 35.5269 7.36493 35.5057C7.40592 35.4951 7.44691 35.4844 7.47766 35.4738C7.53914 35.4632 7.60063 35.4419 7.67237 35.4207C7.7441 35.3995 7.81584 35.3782 7.88757 35.357C7.92857 35.3463 7.96956 35.3357 8.01055 35.3251C8.07204 35.3038 8.12328 35.2932 8.18477 35.272C8.2565 35.2507 8.32824 35.2295 8.39997 35.1976C9.0251 34.9958 9.67072 34.7514 10.3266 34.4539C10.3983 34.4221 10.4701 34.3902 10.5418 34.3583C10.6545 34.3052 10.7673 34.2627 10.88 34.2096C10.9517 34.1777 11.0235 34.1352 11.1054 34.1034C11.2796 34.0184 11.4539 33.9334 11.6281 33.8484C11.915 33.6997 12.202 33.5509 12.4992 33.3916C12.5811 33.3491 12.6734 33.2959 12.7554 33.2428C12.7861 33.2216 12.8168 33.211 12.8476 33.1897C12.9296 33.1472 13.0116 33.0941 13.0935 33.0516C13.3087 32.9347 13.5137 32.8073 13.7289 32.6798C13.8006 32.6373 13.8724 32.5948 13.9441 32.5523C14.2721 32.3504 14.6102 32.138 14.9484 31.9149C15.0202 31.8724 15.0919 31.8192 15.1636 31.7661C15.3583 31.6386 15.553 31.5112 15.7478 31.373C17.5207 32.8816 19.2833 34.1777 20.9947 35.2401Z" fill="#E62890"/>
<path d="M37.2377 18.837C35.8747 16.7866 34.235 14.6831 32.3801 12.6327C32.4724 12.4521 32.5544 12.2715 32.6363 12.0909C32.6671 12.0272 32.6978 11.9634 32.7183 11.8997C32.7696 11.7828 32.8208 11.666 32.8823 11.5491C32.913 11.4854 32.9438 11.411 32.9745 11.3473C33.0053 11.2835 33.036 11.2091 33.0668 11.1454C33.0975 11.071 33.1282 10.9967 33.159 10.9329C33.1795 10.8798 33.2 10.8267 33.2205 10.7736C33.3332 10.508 33.4254 10.253 33.5279 9.98741C33.5587 9.90242 33.5894 9.81743 33.6201 9.73244C33.6406 9.67932 33.6611 9.61558 33.6816 9.56246C33.7021 9.51997 33.7124 9.47747 33.7226 9.43498C33.7431 9.38186 33.7636 9.32874 33.7739 9.27562C33.7841 9.24375 33.7944 9.21188 33.8046 9.19063C33.8251 9.13751 33.8354 9.09502 33.8559 9.0419C33.8763 8.98878 33.8866 8.93566 33.9071 8.88254C33.9276 8.8188 33.9481 8.75505 33.9583 8.70194C33.9788 8.63819 33.9993 8.56383 34.0198 8.50008C34.0711 8.34073 34.112 8.18137 34.153 8.02201C34.1633 7.97952 34.1735 7.9264 34.1838 7.88391C34.194 7.83079 34.2145 7.77767 34.2248 7.72455C34.2453 7.65018 34.2555 7.58644 34.276 7.51208C34.2863 7.45896 34.2965 7.41646 34.3068 7.36334C34.317 7.32085 34.3273 7.27835 34.3375 7.23586C34.4092 6.87465 34.4707 6.52407 34.5117 6.18411C34.522 6.14161 34.522 6.10974 34.522 6.06724C34.5322 6.01412 34.5322 5.97163 34.5425 5.91851C34.5425 5.88664 34.5527 5.86539 34.5527 5.83352C34.563 5.7804 34.563 5.73791 34.563 5.68479C34.563 5.66354 34.563 5.64229 34.563 5.62104C34.563 5.56792 34.5732 5.50418 34.5732 5.45107C34.5732 5.42982 34.5732 5.40857 34.5732 5.38732C34.5732 5.3342 34.5835 5.27046 34.5835 5.21734C34.6039 4.46305 34.5322 3.76189 34.3682 3.14571C36.838 2.6039 38.8569 2.90136 40.0764 4.16559C42.5256 6.70467 41.2139 12.4734 37.2377 18.837Z" fill="#E62890"/>
<path d="M9.6194 12.6328C7.75428 14.6938 6.12485 16.7867 4.76187 18.8371C0.785663 12.4734 -0.526074 6.70472 1.92319 4.15501C3.15294 2.88016 5.16154 2.59332 7.6313 3.13513C7.45708 3.75131 7.3956 4.45248 7.41609 5.20676C7.41609 5.25988 7.41609 5.313 7.42634 5.37675C7.42634 5.39799 7.42634 5.41924 7.42634 5.44049C7.42634 5.49361 7.43659 5.55735 7.43659 5.61047C7.43659 5.63172 7.43659 5.65296 7.43659 5.67421C7.43659 5.72733 7.44684 5.76983 7.44684 5.82295C7.44684 5.85482 7.44684 5.87606 7.45708 5.90793C7.45708 5.96105 7.46733 6.00355 7.47758 6.05667C7.47758 6.09916 7.48783 6.13103 7.48783 6.17353C7.52882 6.51349 7.59031 6.86407 7.66204 7.22528C7.67229 7.26778 7.68254 7.31027 7.69279 7.35277C7.70303 7.40589 7.71328 7.44838 7.72353 7.5015C7.73378 7.57587 7.75428 7.63961 7.77477 7.71397C7.78502 7.76709 7.79527 7.82021 7.81576 7.87333C7.82601 7.91583 7.83626 7.96894 7.84651 8.01144C7.8875 8.17079 7.92849 8.33015 7.97973 8.48951C8.00023 8.55325 8.02072 8.617 8.04122 8.69136C8.06171 8.7551 8.07196 8.81884 8.09246 8.87196C8.1027 8.92508 8.1232 8.9782 8.1437 9.03132C8.15394 9.08444 8.17444 9.12693 8.19494 9.18005C8.20518 9.21192 8.21543 9.2438 8.22568 9.26504C8.24618 9.31816 8.25642 9.37128 8.27692 9.4244C8.28717 9.4669 8.30766 9.50939 8.31791 9.55188C8.33841 9.605 8.3589 9.66875 8.3794 9.72186C8.41014 9.80685 8.44089 9.89184 8.47163 9.97683C8.56386 10.2318 8.66634 10.4974 8.77907 10.763C8.79957 10.8161 8.82006 10.8692 8.84056 10.9224C8.8713 10.9967 8.90205 11.0711 8.93279 11.1348C8.96353 11.1986 8.99428 11.2729 9.02502 11.3367C9.05576 11.4004 9.08651 11.4748 9.11725 11.5385C9.16849 11.6554 9.21973 11.7723 9.28122 11.8891C9.31196 11.9529 9.34271 12.0166 9.3632 12.0803C9.44519 12.2716 9.52717 12.4522 9.6194 12.6328Z" fill="#E62890"/>
<path d="M20.9947 27.2085C20.8717 27.3148 20.7487 27.4316 20.636 27.5379C20.5335 27.6335 20.4311 27.7185 20.3286 27.8141C20.2261 27.9097 20.1236 27.9947 20.0211 28.0903C19.9084 28.1859 19.8059 28.2815 19.6932 28.3771C19.5805 28.4728 19.478 28.5684 19.3653 28.6534C19.1193 28.8552 18.8836 29.0571 18.6479 29.2483C18.5659 29.312 18.4839 29.3864 18.3917 29.4501C18.3815 29.4608 18.3712 29.4608 18.361 29.4714C18.279 29.5351 18.197 29.5989 18.115 29.6626C17.9613 29.7795 17.8076 29.907 17.6539 30.0238C17.4796 30.1513 17.3157 30.2788 17.1415 30.4063C16.8853 30.5975 16.6188 30.7887 16.3626 30.98C16.3011 31.0225 16.2294 31.0756 16.1679 31.1181C16.0347 31.2137 15.9015 31.2987 15.7682 31.3943C14.3643 30.2044 12.95 28.8871 11.5768 27.4635C10.839 26.6986 10.1319 25.9231 9.45549 25.1369C10.5213 23.129 11.8945 21.0255 13.5137 18.922C13.5957 19.0282 13.6776 19.1345 13.7494 19.2407C13.8211 19.3363 13.8929 19.4319 13.9646 19.5276C14.1491 19.7719 14.3438 20.0269 14.5385 20.2712C14.5897 20.335 14.641 20.4093 14.7024 20.4731C14.8664 20.6749 15.0201 20.8768 15.1841 21.0786C15.2763 21.1849 15.3583 21.2911 15.4505 21.3973L15.4608 21.408C15.553 21.5248 15.6555 21.6311 15.7477 21.7479C15.7477 21.7585 15.758 21.7585 15.758 21.7692C15.8502 21.886 15.9527 22.0029 16.0552 22.1091C16.1474 22.2154 16.2294 22.311 16.3216 22.4172C16.957 23.1396 17.6129 23.862 18.2995 24.5738C18.4327 24.712 18.5557 24.8394 18.6889 24.9669C18.7709 25.0519 18.8529 25.1369 18.9349 25.2113C19.0681 25.3388 19.191 25.4662 19.3243 25.5937C19.437 25.7 19.5395 25.8062 19.6522 25.9124C19.7854 26.0399 19.9187 26.178 20.0621 26.3055C20.1544 26.3905 20.2466 26.4755 20.3286 26.5605C20.4413 26.6667 20.554 26.773 20.6668 26.8792C20.7692 26.9961 20.882 27.1023 20.9947 27.2085Z" fill="#E62890"/>
<path d="M35.0447 35.6013C34.85 36.3343 34.5118 36.9505 34.0301 37.4498C31.7346 39.8296 26.6824 38.7778 20.9947 35.2295C22.7061 34.1671 24.4688 32.871 26.2417 31.3837C26.4364 31.5218 26.6311 31.6493 26.8258 31.7767C26.8976 31.8299 26.9693 31.8724 27.041 31.9255C27.3792 32.1486 27.7174 32.3611 28.0453 32.5629C28.1171 32.6054 28.1888 32.6479 28.2605 32.6904C28.4757 32.8179 28.6807 32.9454 28.8959 33.0622C28.9779 33.1047 29.0599 33.1578 29.1419 33.2003C29.1726 33.2216 29.2033 33.2322 29.2341 33.2535C29.3161 33.3066 29.4083 33.3491 29.4903 33.4022C29.7875 33.5615 30.0744 33.7103 30.3614 33.859C30.5356 33.944 30.7098 34.029 30.884 34.114C30.9557 34.1458 31.0275 34.1883 31.1095 34.2202C31.2222 34.2733 31.3349 34.3265 31.4477 34.3689C31.5194 34.4008 31.5911 34.4327 31.6629 34.4646C32.329 34.7514 32.9746 35.0064 33.5895 35.2082C33.6612 35.2295 33.7329 35.2507 33.8047 35.2826C33.8662 35.3038 33.9277 35.3145 33.9789 35.3357C34.0199 35.3463 34.0609 35.357 34.1019 35.3676C34.1736 35.3888 34.2453 35.4101 34.3171 35.4313C34.3786 35.4526 34.4503 35.4632 34.5118 35.4844C34.5528 35.4951 34.5938 35.5057 34.6245 35.5163C34.6963 35.5376 34.7577 35.5482 34.8295 35.5694C34.9012 35.5694 34.9729 35.5907 35.0447 35.6013Z" fill="#E62890"/>
<path d="M32.5544 25.1263C31.878 25.9018 31.1709 26.688 30.4331 27.4529C29.0496 28.8871 27.6456 30.1938 26.2416 31.3837C26.1084 31.2881 25.9752 31.2031 25.842 31.1075C25.7805 31.065 25.7088 31.0118 25.6473 30.9693C25.3911 30.7887 25.1246 30.5975 24.8684 30.3957C24.6942 30.2682 24.5302 30.1407 24.356 30.0132C24.2023 29.8963 24.0486 29.7795 23.8949 29.652C23.8129 29.5883 23.7309 29.5245 23.6489 29.4608C23.6387 29.4501 23.6284 29.4501 23.6182 29.4395C23.5362 29.3758 23.4542 29.3014 23.362 29.2377C23.1263 29.0464 22.8803 28.8446 22.6446 28.6427C22.5319 28.5471 22.4294 28.4621 22.3167 28.3665C22.204 28.2709 22.1015 28.1753 21.9887 28.0797C21.8863 27.9947 21.7838 27.8991 21.6813 27.8035C21.5788 27.7078 21.4763 27.6229 21.3739 27.5272C21.2509 27.421 21.1279 27.3148 21.0152 27.1979C21.1279 27.0917 21.2406 26.9854 21.3534 26.8898C21.4661 26.7942 21.5788 26.6773 21.6916 26.5711C21.7838 26.4861 21.876 26.4011 21.958 26.3161C22.0912 26.1886 22.2347 26.0612 22.3679 25.9231C22.4806 25.8168 22.5831 25.7106 22.6959 25.6043C22.8291 25.4769 22.9521 25.3494 23.0853 25.2219C23.1673 25.1369 23.2492 25.0519 23.3312 24.9775C23.4645 24.8501 23.5874 24.7119 23.7207 24.5845C24.4073 23.8727 25.0631 23.1503 25.6985 22.4278C25.7907 22.3216 25.8727 22.226 25.965 22.1197C26.0674 22.0029 26.1597 21.886 26.2621 21.7798C26.2724 21.7692 26.2724 21.7692 26.2724 21.7585C26.3646 21.6417 26.4671 21.5354 26.5593 21.4186L26.5696 21.408C26.6618 21.3017 26.7438 21.1955 26.836 21.0892C27 20.8874 27.164 20.6855 27.3177 20.4837C27.3689 20.4199 27.4202 20.3456 27.4817 20.2818C27.6764 20.0269 27.8711 19.7825 28.0555 19.5382C28.1273 19.4426 28.199 19.3469 28.2707 19.2513C28.3527 19.1451 28.4347 19.0389 28.5064 18.9326C30.1256 21.0255 31.4886 23.129 32.5544 25.1263Z" fill="#E62890"/>
</svg>
