<svg width="158" height="92" viewBox="0 0 158 92" fill="none" xmlns="http://www.w3.org/2000/svg">
<path d="M90.6216 91.968V0H124.519C130.911 0 136.538 1.35048 141.4 4.05146C146.262 6.66239 150.043 10.2637 152.744 14.8553C155.535 19.447 156.93 24.7139 156.93 30.656C156.93 36.5981 155.535 41.865 152.744 46.4567C150.043 51.0483 146.262 54.6496 141.4 57.2605C136.538 59.7814 130.911 61.0419 124.519 61.0419H103.181V46.1866H122.493C128.075 46.1866 132.487 44.8361 135.728 42.1351C139.059 39.3441 140.725 35.5177 140.725 30.656C140.725 25.4341 139.059 21.5177 135.728 18.9068C132.487 16.2058 128.075 14.8553 122.493 14.8553H103.046L106.287 11.3441V91.968H90.6216ZM140.725 91.968L119.927 54.0194H137.078L157.876 91.968H140.725Z" fill="#44B6D9"/>
<path d="M83.5242 91.968H67.8586V0H83.5242V91.968Z" fill="#44B6D9"/>
<path d="M55.0998 32.2766V91.968H39.164V59.9615L36.7332 55.0998L45.3763 32.2766H55.0998ZM0 69.5499V59.9615L23.2283 0H39.029L15.5306 61.8522L13.0997 54.4245H67.7943V69.5499H0Z" fill="#44B6D9"/>
</svg>
