<svg width="455" height="150" viewBox="0 0 455 150" fill="none" xmlns="http://www.w3.org/2000/svg">
<path d="M101.09 19.5684C102.966 19.7022 103.75 20.2979 105.069 21.555C106.196 23.2426 105.91 25.2146 105.733 27.1839C105.007 28.9362 103.953 29.5282 102.287 30.2751C102.111 30.3476 101.934 30.4202 101.753 30.4949C102.844 30.6334 102.844 30.6334 104.075 30.4949C104.348 30.2218 104.622 29.9486 104.904 29.6672C105.733 28.8394 105.733 28.8394 106.831 28.6532C109.802 29.1056 112.042 30.9421 114.024 33.1438C114.024 34.1371 114.024 34.1371 113.479 34.6946C113.241 34.8862 113.004 35.0779 112.76 35.2753C111.811 36.0467 111.095 36.7927 110.376 37.7793C110.592 37.7392 110.808 37.6991 111.03 37.6578C112.007 37.4766 112.984 37.2969 113.962 37.1171C114.302 37.0539 114.641 36.9908 114.991 36.9257C115.317 36.8659 115.643 36.8062 115.979 36.7446C116.43 36.6614 116.43 36.6614 116.89 36.5765C117.672 36.4549 117.672 36.4549 118.667 36.4549C118.558 36.2364 118.448 36.0178 118.336 35.7927C118.286 35.0281 118.262 34.2617 118.253 33.4956C118.244 33.0829 118.236 32.6701 118.227 32.2449C118.336 31.1572 118.336 31.1572 118.793 30.5079C119.331 30.1638 119.331 30.1638 120.056 30.2673C120.254 30.3424 120.453 30.4175 120.657 30.4949C120.329 30.8227 120.329 30.8227 119.994 31.1572C119.878 32.2255 119.895 32.928 120.346 33.9095C121.266 34.7091 122.12 34.7097 123.31 34.7994C123.25 34.9919 123.19 35.1843 123.128 35.3827C122.777 37.1252 123.722 38.7077 124.628 40.1346C125.033 40.731 125.443 41.3237 125.853 41.9162C127.198 43.8794 128.395 45.9135 129.57 47.9816C129.752 48.2975 129.933 48.6134 130.12 48.9389C133.018 54.0805 133.018 54.0805 133.177 56.8595C133.196 57.1369 133.215 57.4143 133.234 57.7002C133.247 58.0011 133.247 58.0011 133.26 58.3081C132.603 58.3081 131.947 58.3081 131.27 58.3081C131.152 58.0541 131.035 57.8001 130.914 57.5385C129.674 54.9573 128.281 52.5067 126.772 50.0717C126.592 49.7808 126.413 49.4898 126.228 49.19C125.396 47.8623 124.546 46.5762 123.589 45.3353C122.691 44.1638 122.019 42.9927 121.362 41.6699C121.26 41.4718 121.158 41.2738 121.054 41.0697C120.508 39.9713 120.325 39.3664 120.325 38.1104C120.018 38.2607 119.71 38.4109 119.393 38.5657C118.3 39.0509 117.301 39.2095 116.118 39.3521C115.175 39.4804 115.175 39.4804 114.356 39.766C113.717 40.744 113.717 40.744 113.427 41.4603C112.543 42.8463 110.864 43.4825 109.381 44.0704C108.365 44.2816 107.438 44.3512 106.396 44.4015C106.287 44.5108 106.177 44.62 106.064 44.7326C105.033 44.8584 103.993 44.8882 102.955 44.9396C102.664 44.9566 102.374 44.9737 102.074 44.9913C101.795 45.0058 101.515 45.0203 101.227 45.0353C100.97 45.0488 100.714 45.0623 100.449 45.0762C99.763 45.0637 99.763 45.0637 98.7681 44.7326C98.6586 44.9511 98.5492 45.1697 98.4364 45.3948C97.5609 45.3948 96.6853 45.3948 95.7832 45.3948C95.7832 44.9578 95.7832 44.5207 95.7832 44.0704C100.216 43.7426 100.216 43.7426 104.738 43.4082C104.59 41.5059 104.59 41.5059 104.43 39.6046C104.298 37.6357 104.298 37.6357 104.897 36.5946C105.063 36.4392 105.23 36.2839 105.401 36.1238C104.397 35.5336 103.831 35.4036 102.686 35.5857C100.173 35.9064 97.6483 35.819 95.1199 35.7927C95.1199 36.4483 95.1199 37.1039 95.1199 37.7793C94.901 37.5608 94.6821 37.3423 94.4566 37.1171C94.2446 37.1717 94.0325 37.2264 93.814 37.2827C93.4754 37.3646 93.4754 37.3646 93.13 37.4482C92.8017 37.2297 92.4733 37.0112 92.135 36.786C92.2445 36.1304 92.3539 35.4748 92.4667 34.7994C92.2581 34.7383 92.0494 34.6773 91.8345 34.6144C89.3796 33.7839 88.0578 32.532 86.4969 30.4949C86.8907 29.3155 87.2813 29.0616 88.2589 28.322C88.5175 28.1236 88.7762 27.9251 89.0426 27.7206C89.8135 27.1839 89.8135 27.1839 90.5558 26.8191C91.1917 26.5695 91.1917 26.5695 91.4303 25.9215C91.9762 24.8617 92.8838 24.2984 93.7933 23.5417C94.2485 22.8298 94.2485 22.8298 94.4566 22.2172C94.6755 22.2172 94.8944 22.2172 95.1199 22.2172C95.7766 24.0747 96.4333 25.9323 97.1098 27.8461C97.1098 27.0812 97.1098 26.3164 97.1098 25.5283C98.1048 26.5216 98.1048 26.5216 99.0997 27.515C99.7548 27.565 100.412 27.5884 101.069 27.5977C101.428 27.6063 101.786 27.6148 102.156 27.6236C102.461 27.5878 102.766 27.5519 103.08 27.515C103.711 26.5697 103.896 26.0517 104.116 24.9696C104.172 24.702 104.227 24.4343 104.284 24.1586C104.325 23.955 104.365 23.7514 104.406 23.5417C104.187 23.5417 103.968 23.5417 103.743 23.5417C103.757 23.8968 103.77 24.2519 103.784 24.6178C103.725 26.3857 103.725 26.3857 103.08 27.1839C102.209 27.4322 102.209 27.4322 101.421 27.515C101.421 27.0779 101.421 26.6408 101.421 26.1905C100.984 26.0813 100.546 25.972 100.095 25.8594C100.861 25.8594 101.627 25.8594 102.416 25.8594C102.053 24.2124 101.694 22.9769 100.758 21.555C100.594 21.0633 100.594 21.0633 100.426 20.5617C100.645 20.2339 100.864 19.9061 101.09 19.5684ZM107.059 31.4883C106.306 32.0966 106.306 32.0966 106.331 33.0119C106.339 33.3422 106.347 33.6726 106.355 34.013C106.368 34.6003 106.382 35.1876 106.396 35.7927C107.6 35.7927 108.804 35.7927 110.044 35.7927C109.892 34.2389 109.729 33.045 108.718 31.8194C107.892 31.4666 107.892 31.4666 107.059 31.4883Z" fill="#06121B"/>
<path d="M135.582 9.96613C135.413 11.4648 135.072 12.4057 134.193 13.629C134.003 13.8992 133.814 14.1694 133.619 14.4477C132.007 16.3531 130.474 17.2189 128.139 17.9645C127.739 18.0984 127.739 18.0984 127.331 18.235C126.482 18.5181 125.632 18.7951 124.782 19.0716C123.669 19.4391 122.556 19.8089 121.444 20.1788C121.175 20.2675 120.906 20.3563 120.629 20.4478C118.702 21.088 116.812 21.7894 114.929 22.5504C113.554 23.0504 112.152 23.3235 110.708 23.5416C110.708 23.7601 110.708 23.9786 110.708 24.2038C111.255 24.2038 111.802 24.2038 112.366 24.2038C111.65 24.9182 111.218 25.0899 110.272 25.4041C109.895 25.5334 109.895 25.5334 109.509 25.6653C108.718 25.8593 108.718 25.8593 107.059 25.8593C107.059 24.7667 107.059 23.674 107.059 22.5483C107.612 22.2723 108.165 21.9964 108.718 21.7205C109.266 21.4465 109.266 21.4465 109.825 21.1669C110.637 20.7616 111.45 20.3582 112.264 19.9563C115.073 18.5647 117.856 17.1302 120.618 15.6444C120.873 15.5086 121.128 15.3728 121.39 15.2328C121.617 15.111 121.844 14.9891 122.078 14.8636C122.647 14.6017 122.647 14.6017 123.31 14.6017C123.42 14.2739 123.529 13.9461 123.642 13.6083C124.277 13.2325 124.277 13.2325 125.105 12.8827C125.406 12.7545 125.707 12.6262 126.017 12.4941C126.335 12.3632 126.652 12.2324 126.979 12.0976C127.288 11.9655 127.596 11.8334 127.914 11.6973C130.467 10.6246 132.788 9.84991 135.582 9.96613Z" fill="#061821"/>
<path d="M86.1651 9.63501C88.5634 9.73478 89.986 10.7949 91.6529 12.4675C93.3547 14.3964 93.5951 16.0825 93.5431 18.5762C93.2948 21.5947 91.5821 23.9251 89.378 25.9214C88.329 26.7767 87.2107 27.3846 86.0161 28.0128C84.2441 29.0505 82.3142 30.3662 80.8587 31.8193C80.0849 31.8328 79.3108 31.8333 78.5371 31.8193C78.5578 31.2192 78.5578 31.2192 78.8688 30.4949C79.6376 30.1522 80.4115 29.8209 81.1903 29.5015C81.6392 28.5472 81.6392 28.5472 81.1903 27.846C80.6431 27.846 80.0959 27.846 79.5321 27.846C79.4295 28.0509 79.3269 28.2557 79.2211 28.4668C78.9931 28.9221 78.7651 29.3774 78.5371 29.8326C77.7729 29.9175 77.0046 29.967 76.2363 29.9982C74.5477 29.9661 74.5477 29.9661 73.2307 30.826C72.9023 30.826 72.574 30.826 72.2357 30.826C72.4546 29.8426 72.6735 28.8592 72.899 27.846C74.5407 27.846 76.1824 27.846 77.8738 27.846C77.8738 27.6275 77.8738 27.4089 77.8738 27.1838C78.6303 26.6728 79.4143 26.2249 80.2057 25.7701C80.9563 25.2421 80.9563 25.2421 80.952 24.3034C80.9058 23.9263 80.9058 23.9263 80.8587 23.5416C81.1391 23.644 81.4196 23.7464 81.7085 23.852C82.8641 24.2086 83.9745 24.371 85.1702 24.5349C85.2796 24.6442 85.3891 24.7534 85.5018 24.866C85.8575 24.7294 86.2132 24.5928 86.5797 24.4521C86.7798 24.3753 86.9798 24.2985 87.186 24.2193C88.0506 23.7491 88.5525 23.3392 89.15 22.5482C89.2559 21.654 89.2919 20.9099 89.2536 20.0235C89.2504 19.7982 89.2472 19.5728 89.2439 19.3406C89.2242 18.0878 89.2242 18.0878 88.8183 16.9194C88.7738 16.0346 88.804 15.1571 88.8183 14.2705C89.0372 14.2705 89.2561 14.2705 89.4816 14.2705C88.725 12.1909 88.1297 11.036 86.1651 9.96612C86.1651 9.85685 86.1651 9.74759 86.1651 9.63501Z" fill="#05121B"/>
<path d="M114.025 2.35083C114.913 4.12453 114.551 7.07862 114.141 8.9743C113.098 11.8904 110.632 13.38 108.2 15.1399C107.99 15.2936 107.78 15.4472 107.563 15.6055C107.15 15.9059 106.736 16.204 106.32 16.4996C105.769 16.8943 105.228 17.3036 104.688 17.7138C103.743 18.244 103.743 18.244 102.94 18.2221C101.84 17.8242 100.755 17.4041 99.6805 16.9403C99.4693 16.8526 99.2581 16.7649 99.0406 16.6745C97.4827 16.0077 97.4827 16.0077 97.1102 15.2641C97.4044 15.148 97.6985 15.0319 98.0015 14.9123C101.354 13.4626 104.293 11.6799 107.06 9.30411C107.38 9.05357 107.7 8.80302 108.03 8.54489C109.183 7.58685 110.057 6.45982 110.957 5.26872C113.193 2.35083 113.193 2.35083 114.025 2.35083Z" fill="#1C2B30"/>
<path d="M77.8717 35.7164C78.5376 35.7927 78.5376 35.7927 79.5326 36.4549C79.5947 37.6552 79.5947 37.6552 79.5326 38.7727C79.7514 38.7727 79.9703 38.7727 80.1959 38.7727C80.1959 39.2097 80.1959 39.6468 80.1959 40.0971C79.977 40.0971 79.7581 40.0971 79.5326 40.0971C79.5685 40.462 79.5685 40.462 79.6051 40.8343C79.5129 42.0017 79.1552 42.3439 78.3718 43.2012C77.0353 44.7784 76.1111 46.3979 75.1751 48.2234C74.5857 49.3681 73.9766 50.4497 73.2312 51.4997C71.7523 53.6124 70.7037 55.9936 69.583 58.3081C69.0358 58.3081 68.4885 58.3081 67.9247 58.3081C67.8887 57.5703 67.8631 56.8321 67.8418 56.0938C67.8264 55.6828 67.811 55.2717 67.7952 54.8482C67.9504 53.4395 68.3234 53.064 69.2513 52.017C69.8181 51.094 70.3212 50.1394 70.8267 49.1819C70.9631 48.932 71.0994 48.6821 71.2399 48.4246C71.433 48.0613 71.433 48.0613 71.6299 47.6906C71.7465 47.4723 71.8631 47.2539 71.9832 47.029C72.3173 46.2976 72.3173 46.2976 72.2362 45.0637C72.2362 44.8452 72.2362 44.6267 72.2362 44.4015C72.5645 44.4015 72.8929 44.4015 73.2312 44.4015C73.3575 44.1288 73.3575 44.1288 73.4864 43.8505C74.1343 42.6226 74.9653 41.5135 75.7639 40.3791C76.4216 39.0056 76.0586 38.0918 75.6771 36.6825C75.636 36.4982 75.595 36.3138 75.5527 36.1238C76.175 35.5025 77.0445 35.7331 77.8717 35.7164Z" fill="#0A1317"/>
<path d="M113.028 43.7393C113.217 47.3275 113.217 47.3275 112.033 48.7059C110.395 50.3824 108.602 50.9815 106.395 51.6859C106.117 51.7857 105.838 51.8856 105.551 51.9885C103.456 52.7011 101.64 52.764 99.4307 52.6792C99.5401 51.0402 99.6496 49.4012 99.7623 47.7126C100.963 47.5077 100.963 47.5077 102.188 47.2987C105.488 46.698 108.382 45.6461 111.339 44.0548C112.033 43.7393 112.033 43.7393 113.028 43.7393Z" fill="#011A28"/>
<path d="M78.8686 19.8994C79.0875 20.2272 79.3063 20.555 79.5319 20.8927C79.8705 21.3844 79.8705 21.3844 80.2159 21.8861C80.8492 22.865 81.1901 23.4915 81.1901 24.6591C80.6997 25.9444 79.7269 26.539 78.5369 27.1838C78.318 27.1838 78.0991 27.1838 77.8736 27.1838C77.8736 27.4023 77.8736 27.6209 77.8736 27.846C74.7528 28.2262 74.7528 28.2262 73.2305 28.1771C72.9021 28.942 72.5738 29.7069 72.2355 30.4949C71.1864 29.248 70.2456 27.7774 70.2456 26.1077C70.5773 25.5283 70.5773 25.5283 71.3442 25.1144C72.4555 24.392 72.7018 23.6986 73.2473 22.5276C73.6818 21.6423 74.0735 21.1268 74.8887 20.5616C76.2296 20.2131 77.5471 20.0669 78.8686 20.5616C78.8686 20.3431 78.8686 20.1246 78.8686 19.8994Z" fill="#324147"/>
<path d="M113.361 2.68181C112.637 3.57396 111.91 4.46364 111.178 5.35008C110.718 5.90902 110.261 6.47056 109.813 7.03925C107.397 9.9975 104.193 12.1048 100.904 13.9809C100.678 14.1102 100.453 14.2395 100.221 14.3727C99.0711 15.0064 98.4523 15.2639 97.1102 15.2639C97.2673 13.1728 98.0281 11.6054 99.5795 10.1916C100.742 9.21139 101.954 8.299 103.181 7.40059C103.659 7.04847 104.129 6.68541 104.597 6.32013C106.246 5.07653 107.979 4.18329 109.858 3.34403C110.09 3.23956 110.322 3.1351 110.561 3.02747C112.242 2.30946 112.242 2.30946 113.361 2.68181Z" fill="#C2C6BE"/>
<path d="M121.983 7.97974C122.001 8.62116 122.014 9.26272 122.025 9.9043C122.033 10.2616 122.04 10.6188 122.048 10.9869C121.983 11.953 121.983 11.953 121.32 12.9464C120.764 13.2836 120.764 13.2836 120.11 13.5827C118.751 14.227 117.445 14.9363 116.138 15.678C115.911 15.8061 115.684 15.9343 115.449 16.0663C114.323 16.7022 113.199 17.3423 112.078 17.9867C110.099 19.1238 108.124 20.2371 106.064 21.2241C105.401 20.2308 105.401 20.2308 105.42 19.5918C105.874 18.5959 106.529 18.1832 107.411 17.5405C107.586 17.4134 107.76 17.2862 107.939 17.1552C109.607 15.9588 111.347 14.8801 113.096 13.8066C114.893 12.7031 116.623 11.5274 118.335 10.2975C118.949 9.86185 119.564 9.42725 120.18 8.99376C120.454 8.79955 120.728 8.60535 121.01 8.40526C121.652 7.97974 121.652 7.97974 121.983 7.97974Z" fill="#81837B"/>
<path d="M136.577 2.01953C136.686 2.01953 136.795 2.01953 136.908 2.01953C137.01 5.04998 137.072 7.76359 135.913 10.6284C135.804 10.4098 135.694 10.1913 135.582 9.96614C132.386 10.5023 129.577 11.2274 126.627 12.615C126.385 11.72 126.385 11.72 126.295 10.6284C126.797 9.80576 126.797 9.80576 127.518 9.05559C127.752 8.80462 127.986 8.55365 128.227 8.29507C128.901 7.69083 129.468 7.37324 130.275 6.98616C130.429 6.82909 130.583 6.67202 130.742 6.51019C131.68 5.59173 132.899 5.1001 134.058 4.50285C134.824 4.06078 135.305 3.63531 135.913 3.01286C136.132 3.01286 136.351 3.01286 136.577 3.01286C136.577 2.68506 136.577 2.35726 136.577 2.01953Z" fill="#38474F"/>
<path d="M77.2107 0.0329599C80.0674 -0.151041 82.2099 0.4214 84.5485 2.10239C85.3813 3.3218 85.4366 4.25491 85.1703 5.66181C84.7884 6.90228 84.3385 8.10431 83.8437 9.304C84.5004 9.304 85.1571 9.304 85.8336 9.304C85.8336 9.52253 85.8336 9.74106 85.8336 9.96622C85.5395 10.0345 85.2454 10.1028 84.9423 10.1732C83.8563 10.6232 83.6488 10.7802 82.9939 11.6632C82.1854 12.6151 82.1854 12.6151 81.2527 12.7393C80.8936 12.6778 80.8936 12.6778 80.5272 12.6151C80.3807 10.8598 80.6549 9.86455 81.4911 8.3262C82.2218 6.96089 82.8488 5.62065 82.8488 4.04765C82.5745 3.27888 82.5745 3.27888 81.7838 2.97284C80.7986 2.66287 80.0232 2.60417 78.9933 2.61975C78.6812 2.62188 78.3691 2.62401 78.0476 2.62621C77.1689 2.64929 77.1689 2.64929 76.2157 3.01294C75.0342 3.07502 75.0342 3.07502 73.8941 3.01294C73.2308 2.35072 73.2308 2.35072 73.2308 1.02629C75.2009 0.862387 75.2009 0.862387 77.2107 0.695177C77.2107 0.476645 77.2107 0.258114 77.2107 0.0329599Z" fill="#131B21"/>
<path d="M137.239 0.695068C137.239 2.11552 137.239 3.53598 137.239 4.99948C137.13 4.99948 137.021 4.99948 136.908 4.99948C136.744 4.01609 136.744 4.01609 136.576 3.01283C136.163 3.38224 136.163 3.38224 135.741 3.75912C134.594 4.71226 133.379 5.3375 132.037 5.97211C131.568 6.20444 131.1 6.43682 130.631 6.66925C129.809 7.07059 128.992 7.43698 128.146 7.78933C127.173 8.22454 126.419 8.58358 125.632 9.30389C125.146 10.6279 124.998 11.8725 124.968 13.2772C124.476 13.4411 124.476 13.4411 123.973 13.6083C123.973 11.5323 123.973 9.4562 123.973 7.31724C123.536 7.20797 123.098 7.09871 122.647 6.98613C123.057 6.87004 123.468 6.75394 123.89 6.63433C125.967 5.94666 127.75 4.80195 129.611 3.67505C134.739 0.695068 134.739 0.695068 137.239 0.695068Z" fill="#96978F"/>
<path d="M93.4612 52.3481C94.2349 52.5264 94.9382 52.7386 95.6791 53.0311C98.6995 53.8845 102.291 53.21 105.401 53.0104C105.22 54.2928 105.13 54.6069 104.157 55.5558C101.73 57.2797 99.3182 57.1847 96.4461 56.9837C95.2637 56.7274 94.4359 56.3689 93.6478 55.4109C93.3894 54.3791 93.4204 53.4062 93.4612 52.3481Z" fill="#151A71"/>
<path d="M95.4517 38.4417C98.1879 38.4417 100.924 38.4417 103.743 38.4417C104.556 42.0928 104.556 42.0928 104.406 43.0772C103.338 43.7883 102.894 43.8525 101.646 43.9489C101.305 43.9767 100.964 44.0044 100.612 44.033C100.079 44.072 100.079 44.072 99.5352 44.1119C98.9962 44.1548 98.9962 44.1548 98.4463 44.1985C97.5588 44.2688 96.6712 44.3364 95.7834 44.4016C95.7834 44.7294 95.7834 45.0572 95.7834 45.3949C94.1298 45.2298 92.9122 44.9013 91.4719 44.0705C91.212 43.9339 90.952 43.7973 90.6842 43.6566C90.1453 43.0772 90.1453 43.0772 90.0624 41.8562C90.0897 41.4943 90.1171 41.1323 90.1453 40.7594C90.4223 40.963 90.4223 40.963 90.705 41.1707C93.6901 43.275 96.1513 43.4935 99.7632 43.7394C99.7632 42.2097 99.7632 40.6799 99.7632 39.1039C99.2365 39.1175 98.7098 39.1312 98.1671 39.1453C96.8926 39.1783 96.5507 39.1731 95.4517 38.4417Z" fill="#254655"/>
<path d="M125.936 35.4972C126.935 35.9241 127.185 36.5293 127.712 37.4675C127.903 37.807 128.095 38.1466 128.293 38.4964C128.489 38.8539 128.685 39.2113 128.887 39.5796C129.19 40.1139 129.19 40.1139 129.5 40.659C130.592 42.6159 130.592 42.6159 130.939 43.4081C130.829 43.6266 130.72 43.8451 130.607 44.0703C130.388 43.961 130.169 43.8518 129.944 43.7392C129.944 44.067 129.944 44.3948 129.944 44.7325C129.397 44.7325 128.849 44.7325 128.286 44.7325C128.286 44.951 128.286 45.1696 128.286 45.3947C128.067 45.3947 127.848 45.3947 127.622 45.3947C127.11 44.6098 126.635 43.8278 126.171 43.0149C125.467 41.7902 124.793 40.6195 123.899 39.5214C123.329 38.7957 123.113 38.3482 122.979 37.4481C123.334 37.1051 123.694 36.7682 124.057 36.4341C124.257 36.2459 124.457 36.0576 124.663 35.8637C125.301 35.4615 125.301 35.4615 125.936 35.4972Z" fill="#303F43"/>
<path d="M81.1905 8.64209C81.1905 9.63542 81.1905 9.63542 80.8588 10.2976C80.8455 11.0701 80.8445 11.8429 80.8588 12.6154C81.1872 12.7247 81.5155 12.8339 81.8538 12.9465C81.2316 14.3959 80.3762 15.296 79.014 16.092C78.1682 16.6117 77.785 17.1213 77.2107 17.9131C76.9918 17.9131 76.7729 17.9131 76.5474 17.9131C76.4516 18.118 76.3558 18.3229 76.2572 18.534C75.8841 19.2376 75.8841 19.2376 75.2207 19.8998C74.3502 19.9412 74.3502 19.9412 73.5625 19.8998C73.3384 19.3397 73.3384 19.3397 73.2308 18.5753C74.5687 15.687 76.8951 13.1176 78.8689 10.6287C79.1002 10.3206 79.3315 10.0124 79.5698 9.69491C80.1955 8.9732 80.1955 8.9732 81.1905 8.64209Z" fill="#AAAFA7"/>
<path d="M75.878 9.7605C75.878 10.4762 75.878 10.4762 75.6903 10.9533C75.6827 11.5099 75.6822 12.0667 75.6903 12.6233C75.8761 12.702 76.0619 12.7808 76.2534 12.8619C75.9012 13.9062 75.4171 14.5547 74.6462 15.1283C74.1675 15.5027 73.9506 15.8698 73.6256 16.4404C73.5017 16.4404 73.3778 16.4404 73.2502 16.4404C73.196 16.588 73.1418 16.7356 73.0859 16.8877C72.8748 17.3946 72.8748 17.3946 72.4994 17.8718C72.0067 17.9016 72.0067 17.9016 71.5609 17.8718C71.434 17.4683 71.434 17.4683 71.3732 16.9175C72.1303 14.8365 73.4469 12.9852 74.5641 11.1919C74.695 10.9699 74.8259 10.7478 74.9607 10.5191C75.3149 9.99907 75.3149 9.99907 75.878 9.7605Z" fill="#E5E9E2"/>
<path d="M90.4761 35.1303C89.8157 38.6212 89.8157 38.6212 88.8179 40.097C87.7175 40.509 87.288 40.4708 86.1647 40.097C84.2559 40.0313 82.4187 40.1832 80.5266 40.4281C79.8633 39.4348 79.8633 39.4348 79.9876 38.7105C80.056 38.5124 80.1244 38.3144 80.1949 38.1103C80.8787 37.9984 81.5628 37.8884 82.247 37.7792C82.6279 37.7178 83.0089 37.6563 83.4013 37.593C84.3419 37.4697 85.2185 37.4196 86.1647 37.4481C86.2536 37.2501 86.3425 37.052 86.4341 36.848C87.4839 34.9174 88.3747 35.0272 90.4761 35.1303Z" fill="#0A0F12"/>
<path d="M86.4967 45.7259C85.6518 48.8443 85.6518 48.8443 84.8384 50.2373C83.7359 52.2778 83.543 54.722 83.1801 56.9836C82.1852 56.6525 82.1852 56.6525 81.8704 56.0847C81.2217 54.135 81.0746 52.4092 81.1902 50.3614C81.628 50.3614 82.0658 50.3614 82.5168 50.3614C82.5784 49.8698 82.5784 49.8698 82.6412 49.3681C82.8384 48.0094 83.1247 46.7134 83.5118 45.3948C84.5733 44.8649 85.4098 45.3843 86.4967 45.7259Z" fill="#0E171D"/>
<path d="M94.7881 17.9127C97.0354 17.8042 99.0031 18.0051 101.09 18.9061C101.199 19.1246 101.308 19.3431 101.421 19.5683C101.312 19.78 101.202 19.9917 101.09 20.2098C100.642 20.9297 100.642 20.9297 101.09 21.886C100.323 22.5416 99.5573 23.1972 98.7679 23.8727C98.4396 23.6542 98.1113 23.4356 97.773 23.2105C98.2208 21.7473 98.8546 21.1101 100.095 20.2305C98.3848 20.3285 98.3848 20.3285 97.006 21.2652C96.3605 22.3632 96.0743 23.2994 95.7831 24.5349C95.2987 23.6583 95.1198 23.2454 95.1198 22.2171C94.3793 22.5118 94.3793 22.5118 93.9797 23.3553C93.4615 24.2038 93.4615 24.2038 92.4666 24.866C92.8495 23.8466 93.2951 22.903 93.8139 21.9481C94.5085 20.5946 94.6801 19.4229 94.7881 17.9127Z" fill="#1D2830"/>
<path d="M89.8136 45.7261C90.3263 46.4938 90.741 47.2182 91.1402 48.0438C91.3591 47.6068 91.578 47.1697 91.8035 46.7194C92.8542 46.6694 93.667 46.6743 94.664 47.0298C96.3321 47.5541 98.0244 47.606 99.7632 47.7127C99.5144 50.2788 99.5144 50.2788 98.7682 51.0238C98.0855 51.0393 98.0855 51.0393 97.2965 50.941C96.9073 50.8975 96.9073 50.8975 96.5101 50.8531C95.7834 50.6927 95.7834 50.6927 94.7884 50.0305C94.0154 49.914 93.2415 49.8042 92.4668 49.6994C90.6474 49.2538 90.6474 49.2538 90.0209 48.4577C89.7616 47.5258 89.7698 46.6884 89.8136 45.7261Z" fill="#364E5A"/>
<path d="M117.009 43.7393C117.672 44.0704 117.672 44.0704 118.027 45.1219C119.127 49.2516 119.642 52.6854 117.672 56.6525C117.563 56.6525 117.454 56.6525 117.341 56.6525C117.308 56.4032 117.276 56.154 117.242 55.8972C116.907 53.5201 116.436 51.229 115.789 48.9199C115.404 47.492 115.226 46.2095 115.351 44.7326C116.139 44.0704 116.139 44.0704 117.009 43.7393Z" fill="#092A34"/>
<path d="M70.4451 44.0056C70.776 44.0133 71.1069 44.021 71.4479 44.0289C71.9468 44.0379 71.9468 44.0379 72.4558 44.047C72.7114 44.0547 72.9671 44.0624 73.2305 44.0703C72.9022 44.1796 72.5738 44.2888 72.2355 44.4014C72.3655 44.6472 72.4955 44.8931 72.6294 45.1464C72.7183 45.4469 72.8072 45.7473 72.8988 46.0569C72.5755 46.5045 72.2413 46.9442 71.9039 47.3814C71.3161 48.4915 70.7917 49.6347 70.2618 50.7733C69.6504 52.0401 69.19 52.9458 67.9241 53.6724C67.7689 50.591 68.0894 47.7037 68.919 44.7325C69.5823 44.0703 69.5823 44.0703 70.4451 44.0056Z" fill="#7C807F"/>
<path d="M73.9162 43.9216C73.6141 43.9152 73.3119 43.9087 73.0006 43.902C72.545 43.8945 72.545 43.8945 72.0802 43.8868C71.8467 43.8803 71.6133 43.8739 71.3727 43.8672C71.6726 43.7753 71.9724 43.6833 72.2813 43.5886C72.1626 43.3818 72.0439 43.1749 71.9217 42.9618C71.8405 42.709 71.7593 42.4561 71.6756 42.1957C71.9709 41.8191 72.2761 41.4491 72.5842 41.0813C73.1209 40.1472 73.5997 39.1853 74.0836 38.2273C74.642 37.1614 75.0624 36.3994 76.2184 35.788C76.3601 38.3807 76.0674 40.81 75.3098 43.31C74.7041 43.8672 74.7041 43.8672 73.9162 43.9216Z" fill="#C5D0C9"/>
<path d="M81.5227 27.846C81.6322 28.1738 81.7416 28.5016 81.8544 28.8393C80.9144 29.9168 80.3002 30.3362 78.8695 30.4949C78.7601 30.9319 78.6506 31.369 78.5379 31.8193C79.1945 31.8193 79.8512 31.8193 80.5278 31.8193C79.4392 32.9061 78.2498 32.8764 76.7552 32.9161C75.0255 32.9046 74.1832 32.6347 72.8998 31.4882C72.7903 31.2697 72.6809 31.0511 72.5681 30.826C73.4147 30.0128 73.8479 29.8366 75.04 29.7356C75.4555 29.7472 75.8711 29.7587 76.2992 29.7706C76.7182 29.7795 77.1371 29.7885 77.5688 29.7977C78.0485 29.815 78.0485 29.815 78.5379 29.8327C78.6405 29.6278 78.7431 29.4229 78.8488 29.2118C79.5445 27.8226 79.8548 27.2909 81.5227 27.846Z" fill="#0F1171"/>
<path d="M71.1164 6.13798C72.5482 7.07755 73.7775 8.44784 74.5573 9.96642C74.4942 11.2752 74.0151 12.0409 73.21 13.0499C73.0283 13.2808 72.8466 13.5117 72.6594 13.7496C72.5196 13.9216 72.3798 14.0936 72.2357 14.2708C71.9041 13.2775 71.9041 13.2775 72.1528 12.2014C72.2512 10.7279 71.9866 10.2515 71.0814 9.14124C69.6999 7.77267 68.144 7.50505 66.266 7.31755C66.1565 6.88049 66.0471 6.44343 65.9343 5.99312C67.7481 5.38951 69.3391 5.43435 71.1164 6.13798Z" fill="#12181D"/>
<path d="M121.652 30.1638C123.114 30.3307 123.903 30.8135 124.969 31.8194C125.582 32.6546 125.632 33.0716 125.632 34.1164C125.174 35.5163 124.493 35.9317 123.31 36.786C123.091 36.4582 122.872 36.1304 122.647 35.7927C122.756 35.5741 122.866 35.3556 122.979 35.1304C121.994 34.9665 121.994 34.9665 120.989 34.7993C120.595 33.619 120.57 32.728 120.657 31.4883C121.155 30.6812 121.155 30.6812 121.652 30.1638Z" fill="#1A272F"/>
<path d="M87.4917 15.9259C87.4917 16.4722 87.4917 17.0186 87.4917 17.5814C87.0505 17.6941 87.0505 17.6941 86.6004 17.8091C85.4513 18.175 85.4513 18.175 84.6727 19.1128C83.8435 19.8992 83.8435 19.8992 82.7864 20.0441C81.8536 19.8992 81.8536 19.8992 81.1903 19.237C81.1748 18.5437 81.1748 18.5437 81.2732 17.747C81.3023 17.4841 81.3314 17.2212 81.3613 16.9503C81.522 16.257 81.522 16.257 82.1853 15.5948C84.0331 15.0414 85.6677 15.4904 87.4917 15.9259Z" fill="#EEFCFE"/>
<path d="M78.2056 16.9194C78.4245 16.9194 78.6433 16.9194 78.8689 16.9194C78.8689 18.1214 78.8689 19.3233 78.8689 20.5616C78.597 20.5702 78.3251 20.5787 78.0449 20.5875C77.5088 20.6157 77.5088 20.6157 76.9619 20.6444C76.4309 20.6675 76.4309 20.6675 75.8892 20.691C74.6886 20.9332 74.3025 21.258 73.5624 22.2172C73.2491 22.891 73.2491 22.891 73.0649 23.583C72.643 24.8125 72.643 24.8125 71.9249 25.3213C71.6992 25.3896 71.4734 25.4579 71.2409 25.5283C70.9946 25.6512 70.7484 25.7741 70.4946 25.9008C70.3031 25.9964 70.1116 26.092 69.9142 26.1905C69.5707 24.5184 69.5486 22.9211 69.5826 21.2238C69.993 21.2853 70.4034 21.3468 70.8263 21.4101C72.226 21.5971 72.226 21.5971 73.5624 21.2238C73.6719 20.896 73.7813 20.5683 73.8941 20.2305C74.9885 20.012 76.083 19.7935 77.2106 19.5683C77.3132 19.2542 77.4158 18.94 77.5215 18.6164C77.8739 17.5817 77.8739 17.5817 78.2056 16.9194Z" fill="#5D6D6E"/>
<path d="M103.743 35.1304C104.564 35.6221 104.564 35.6221 105.401 36.1237C105.293 36.3943 105.184 36.6649 105.072 36.9437C104.682 38.3066 104.663 39.478 104.696 40.8834C104.699 41.1271 104.702 41.3708 104.705 41.6219C104.713 42.2173 104.725 42.8127 104.738 43.4081C104.3 43.5174 103.862 43.6266 103.411 43.7392C103.521 43.5207 103.63 43.3021 103.743 43.077C103.962 43.077 104.181 43.077 104.406 43.077C104.187 41.5473 103.968 40.0175 103.743 38.4415C103.271 38.473 102.799 38.5046 102.313 38.5372C101.684 38.5745 101.055 38.6115 100.426 38.6484C99.9614 38.6804 99.9614 38.6804 99.4871 38.7131C97.5484 38.8214 95.9733 38.7268 94.125 38.1103C93.9061 37.8918 93.6872 37.6733 93.4617 37.4481C93.6669 37.3594 93.8721 37.2706 94.0835 37.1791C94.8876 36.8006 94.8876 36.8006 95.4516 35.7926C95.4516 36.2297 95.4516 36.6667 95.4516 37.117C99.8081 37.2325 99.8081 37.2325 104.075 36.4548C103.965 36.0177 103.856 35.5807 103.743 35.1304Z" fill="#0A2E3A"/>
<path d="M117.341 15.9261C117.28 16.5273 117.28 16.5273 117.009 17.2505C116.276 17.7551 116.276 17.7551 115.32 18.2257C114.978 18.3977 114.636 18.5697 114.285 18.747C113.925 18.9224 113.565 19.0978 113.195 19.2786C112.486 19.6295 111.778 19.9821 111.07 20.3365C110.597 20.5684 110.597 20.5684 110.114 20.8049C109.337 21.1595 109.337 21.1595 109.049 21.886C108.283 22.2349 107.509 22.5672 106.728 22.8794C106.618 22.2238 106.509 21.5682 106.396 20.8927C107.539 20.2424 108.684 19.5945 109.829 18.9486C110.409 18.6213 110.987 18.2923 111.565 17.9632C111.933 17.7562 112.301 17.5492 112.679 17.3359C113.016 17.1451 113.353 16.9544 113.7 16.7579C116.332 15.4227 116.332 15.4227 117.341 15.9261Z" fill="#182E3A"/>
<path d="M88.8185 20.2305C89.0374 20.2305 89.2563 20.2305 89.4818 20.2305C89.6477 21.2445 89.6477 21.2445 89.4818 22.5482C88.412 23.8426 87.1998 24.9356 85.502 25.1971C85.0326 25.2185 84.5623 25.2256 84.0925 25.2178C83.4769 25.2075 83.4769 25.2075 82.8488 25.1971C82.8488 24.9786 82.8488 24.76 82.8488 24.5349C82.3038 24.1912 81.7502 23.8608 81.1905 23.5416C80.5272 22.8793 80.5272 22.8793 80.5272 21.886C80.7461 21.886 80.965 21.886 81.1905 21.886C81.3 21.6675 81.4094 21.4489 81.5222 21.2238C81.7274 21.4423 81.9326 21.6609 82.144 21.886C83.5902 22.8101 84.8216 22.8662 86.497 22.5482C87.5308 21.9866 88.2843 21.2971 88.8185 20.2305Z" fill="#8C0002"/>
<path d="M91.8038 36.4551C92.3578 36.7521 92.3578 36.7521 92.9231 37.0552C93.2348 37.2223 93.2348 37.2223 93.5527 37.3928C94.1253 37.7795 94.1253 37.7795 94.7886 38.7728C94.9531 40.0313 94.8777 40.608 94.229 41.7114C93.462 42.415 93.462 42.415 92.6536 42.6427C91.3528 42.2942 90.9292 41.5014 90.1455 40.4284C90.6927 39.1172 91.24 37.806 91.8038 36.4551Z" fill="#C5D0C9"/>
<path d="M129.944 43.7393C130.746 43.9514 130.746 43.9514 131.602 44.4015C131.909 45.2655 131.909 45.2655 132.038 46.3053C132.084 46.6451 132.131 46.9848 132.179 47.3349C132.264 48.3495 132.282 49.3438 132.266 50.3614C131.937 50.3614 131.609 50.3614 131.271 50.3614C131.161 50.58 131.052 50.7985 130.939 51.0236C130.431 50.1636 129.927 49.3013 129.426 48.4369C129.208 48.0703 129.208 48.0703 128.986 47.6964C128.85 47.4606 128.715 47.2248 128.575 46.9818C128.448 46.765 128.321 46.5483 128.191 46.325C127.954 45.7259 127.954 45.7259 128.286 44.7326C128.833 44.7326 129.38 44.7326 129.944 44.7326C129.944 44.4048 129.944 44.077 129.944 43.7393Z" fill="#1B3C44"/>
<path d="M97.773 39.1035C98.4297 39.1035 99.0863 39.1035 99.7629 39.1035C99.7629 40.6332 99.7629 42.163 99.7629 43.739C97.4101 43.7924 95.3691 43.822 93.1299 43.0768C92.911 42.8583 92.6921 42.6398 92.4666 42.4146C93.1091 42.2284 93.1091 42.2284 93.7932 42.0835C93.9026 42.1928 94.0121 42.302 94.1248 42.4146C95.0761 42.2746 95.0761 42.2746 96.1147 41.7524C96.5749 41.0764 96.9379 40.3992 97.2859 39.6597C97.4466 39.4761 97.6074 39.2926 97.773 39.1035Z" fill="#8B9492"/>
<path d="M89.482 46.7192C89.9105 47.3609 90.3227 48.0139 90.7141 48.6787C91.5801 49.8449 92.3987 50.3961 93.6484 51.1271C93.8397 51.2417 94.031 51.3563 94.2282 51.4744C97.266 53.2689 100.464 52.9402 103.785 52.0998C107.019 51.2433 110.226 50.2404 113.029 48.3748C111.967 50.5721 111.967 50.5721 111.09 50.9719C110.726 51.0795 110.726 51.0795 110.355 51.1892C110.088 51.2707 109.821 51.3523 109.546 51.4362C109.273 51.5186 108.999 51.601 108.718 51.6859C108.22 51.8572 107.723 52.0297 107.225 52.2032C103.704 53.3691 98.5862 54.7613 95.0825 53.0245C94.8761 52.9106 94.6696 52.7966 94.4568 52.6792C94.1853 52.5345 93.9139 52.3898 93.6342 52.2407C91.9038 51.2685 90.5436 50.4016 89.482 48.7059C89.3784 47.5884 89.3784 47.5884 89.482 46.7192Z" fill="#72BFC4"/>
<path d="M122.647 22.5484C121.035 23.8427 119.702 24.4728 117.685 24.9411C117.462 25.0257 117.239 25.1102 117.009 25.1972C116.9 25.525 116.79 25.8528 116.677 26.1906C116.021 26.2998 115.364 26.4091 114.687 26.5217C114.797 26.3031 114.906 26.0846 115.019 25.8595C114.472 25.7502 113.925 25.6409 113.361 25.5283C113.361 24.982 113.361 24.4357 113.361 23.8728C115.596 22.9061 117.446 22.4029 119.89 22.5341C121.042 22.5555 121.493 22.1642 122.647 22.5484Z" fill="#4BD3D2"/>
<path d="M118.004 31.8196C118.113 31.8196 118.223 31.8196 118.335 31.8196C118.5 34.1142 118.5 34.1142 118.667 36.4551C117.596 36.6778 116.525 36.8982 115.454 37.1173C115.152 37.1805 114.849 37.2437 114.538 37.3087C114.097 37.3984 114.097 37.3984 113.647 37.4898C113.378 37.5453 113.109 37.6008 112.831 37.658C112.001 37.7846 111.215 37.8004 110.376 37.7795C112.149 36.2857 114.025 35.087 116.138 34.1373C117.109 33.6737 117.299 33.5516 117.838 32.5646C117.893 32.3187 117.947 32.0729 118.004 31.8196Z" fill="#656B6B"/>
<path d="M91.1405 49.0369C93.2178 49.3505 94.8985 49.7321 96.7786 50.6924C97.8568 50.7758 97.8568 50.7758 98.7685 50.6924C98.9874 50.1461 99.2063 49.5997 99.4318 49.0369C99.5413 49.0369 99.6507 49.0369 99.7635 49.0369C99.7635 50.1295 99.7635 51.2222 99.7635 52.348C100.201 52.5665 100.639 52.785 101.09 53.0102C97.3709 53.3336 94.8586 52.5263 91.8556 50.3354C91.5016 50.0204 91.5016 50.0204 91.1405 49.6991C91.1405 49.4806 91.1405 49.262 91.1405 49.0369Z" fill="#122735"/>
<path d="M87.8233 15.595C89.4613 17.1775 89.4613 17.1775 89.514 18.2257C89.5032 18.894 89.4924 19.5622 89.4816 20.2305C89.2627 20.2305 89.0438 20.2305 88.8183 20.2305C88.7294 20.4354 88.6405 20.6402 88.5488 20.8513C88.155 21.5549 88.155 21.5549 87.16 22.2171C87.16 21.9986 87.16 21.7801 87.16 21.5549C86.175 21.5549 85.19 21.5549 84.1752 21.5549C84.3941 20.8993 84.613 20.2437 84.8385 19.5683C85.0574 19.5683 85.2763 19.5683 85.5018 19.5683C85.5018 19.3497 85.5018 19.1312 85.5018 18.9061C86.3798 18.4224 86.7934 18.2438 87.8233 18.2438C87.8233 17.3697 87.8233 16.4956 87.8233 15.595Z" fill="#FF1A1A"/>
<path d="M87.4921 10.6282C88.6487 11.3595 89.0888 11.9683 89.482 13.277C89.482 13.6048 89.482 13.9326 89.482 14.2704C89.2631 14.2704 89.0442 14.2704 88.8187 14.2704C88.8187 14.926 88.8187 15.5816 88.8187 16.257C88.5891 16.0835 88.5891 16.0835 88.3549 15.9065C86.7408 14.7823 85.5123 14.407 83.546 14.3493C82.849 14.2704 82.849 14.2704 82.1857 13.6082C82.5173 12.9459 82.5173 12.9459 83.0718 12.7403C84.0303 12.5845 84.9459 12.5836 85.9168 12.5941C86.2742 12.5971 86.6316 12.6001 86.9998 12.6032C87.2717 12.607 87.5436 12.6109 87.8238 12.6148C87.7143 11.9592 87.6049 11.3036 87.4921 10.6282Z" fill="#0F2534"/>
<path d="M83.8438 8.97294C84.9631 8.93155 84.9631 8.93155 86.1653 8.97294C87.361 10.1667 87.8656 11.3022 88.1552 12.9462C87.8671 12.9424 87.5789 12.9386 87.2821 12.9346C86.8999 12.9316 86.5177 12.9286 86.1239 12.9255C85.5583 12.9198 85.5583 12.9198 84.9812 12.9139C83.8475 12.9154 83.8475 12.9154 82.7685 13.1545C81.8538 13.2773 81.8538 13.2773 80.8589 12.6151C81.0983 12.5468 81.3377 12.4785 81.5844 12.4082C82.515 11.954 82.7547 11.7131 83.3463 10.9182C84.1754 9.96626 84.1754 9.96626 85.1082 9.8421C85.3476 9.88307 85.587 9.92405 85.8337 9.96626C85.8337 9.74773 85.8337 9.5292 85.8337 9.30404C85.177 9.30404 84.5203 9.30404 83.8438 9.30404C83.8438 9.19478 83.8438 9.08551 83.8438 8.97294Z" fill="#5C625C"/>
<path d="M131.27 16.2573C131.489 16.3666 131.708 16.4759 131.934 16.5884C130.672 17.7332 129.598 18.1647 127.954 18.5751C127.844 18.6844 127.735 18.7936 127.622 18.9062C127.95 19.0155 128.279 19.1247 128.617 19.2373C128.617 19.6744 128.617 20.1114 128.617 20.5617C128.179 20.5617 127.741 20.5617 127.29 20.5617C127.29 20.7803 127.29 20.9988 127.29 21.224C126.251 21.8391 125.508 21.9529 124.306 21.8862C124.306 21.6676 124.306 21.4491 124.306 21.224C124.962 21.224 125.619 21.224 126.295 21.224C126.295 20.8962 126.295 20.5684 126.295 20.2306C124.873 20.2306 123.45 20.2306 121.984 20.2306C121.984 20.0121 121.984 19.7936 121.984 19.5684C122.254 19.4799 122.523 19.3913 122.801 19.3001C123.798 18.972 124.795 18.643 125.792 18.3134C126.224 18.1708 126.656 18.0285 127.088 17.8866C127.708 17.6829 128.328 17.4778 128.947 17.2726C129.508 17.088 129.508 17.088 130.079 16.8996C130.904 16.6694 130.904 16.6694 131.27 16.2573Z" fill="#8961DA"/>
<path d="M72.5673 13.6084C72.899 14.2706 72.899 14.2706 72.6528 15.0855C72.5288 15.4039 72.4049 15.7223 72.2771 16.0503C71.8691 17.1071 71.4876 18.1308 71.2407 19.2372C71.569 19.3465 71.8974 19.4558 72.2357 19.5684C72.6295 20.2513 72.6295 20.2513 72.899 20.8928C72.5706 20.8928 72.2423 20.8928 71.904 20.8928C71.904 20.6743 71.904 20.4557 71.904 20.2306C71.6851 20.2306 71.4662 20.2306 71.2407 20.2306C71.2407 20.5584 71.2407 20.8862 71.2407 21.2239C70.6935 21.2239 70.1463 21.2239 69.5824 21.2239C69.5824 21.8795 69.5824 22.5351 69.5824 23.2105C69.473 23.2105 69.3636 23.2105 69.2508 23.2105C69.1432 19.9337 69.2596 16.502 71.5724 13.9395C71.9007 13.8302 72.229 13.721 72.5673 13.6084Z" fill="#CEDFDB"/>
<path d="M103.743 35.1304C103.853 35.5674 103.962 36.0045 104.075 36.4548C101.427 37.568 98.9537 37.6303 96.1151 37.4481C95.8962 37.3389 95.6773 37.2296 95.4518 37.117C95.4518 36.68 95.4518 36.2429 95.4518 35.7926C95.9975 35.7625 95.9975 35.7625 96.5543 35.7318C97.0366 35.7038 97.519 35.6758 98.0014 35.6477C98.2406 35.6347 98.4798 35.6217 98.7262 35.6083C100.418 35.508 102.055 35.1304 103.743 35.1304Z" fill="#CC2020"/>
<path d="M108.718 52.0169C107.915 54.6394 107.915 54.6394 106.72 55.4547C105.959 55.7842 105.192 56.0542 104.407 56.3213C104.065 56.5125 103.723 56.7037 103.37 56.9008C101.497 57.7265 99.1205 57.3844 97.1102 57.3146C97.1102 57.2054 97.1102 57.0961 97.1102 56.9835C97.5309 56.9707 97.5309 56.9707 97.9601 56.9577C100.596 56.8261 102.84 56.6402 104.718 54.6451C105.115 53.9662 105.115 53.9662 105.402 53.0102C104.854 53.0102 104.307 53.0102 103.743 53.0102C103.743 52.901 103.743 52.7917 103.743 52.6791C105.476 52.1935 106.921 51.9421 108.718 52.0169Z" fill="#3C8C91"/>
<path d="M107.059 31.4883C107.868 31.509 107.868 31.509 108.717 31.8194C109.728 33.045 109.891 34.2389 110.044 35.7927C108.84 35.7927 107.636 35.7927 106.396 35.7927C106.331 33.0119 106.331 33.0119 106.396 32.1505C106.615 31.932 106.834 31.7134 107.059 31.4883Z" fill="#243033"/>
<path d="M123.166 7.29663C123.566 7.30687 123.566 7.30687 123.974 7.31733C123.984 8.35893 123.989 9.40053 123.995 10.4422C123.997 10.7394 124 11.0367 124.003 11.343C124.004 11.6258 124.005 11.9085 124.006 12.1999C124.008 12.4617 124.01 12.7235 124.012 12.9933C123.974 13.6084 123.974 13.6084 123.642 13.9395C123.09 13.953 122.537 13.9536 121.984 13.9395C121.974 12.8979 121.969 11.8563 121.963 10.8147C121.961 10.5174 121.958 10.2201 121.955 9.91381C121.954 9.63104 121.953 9.34828 121.952 9.05694C121.949 8.6642 121.949 8.6642 121.946 8.26352C122.006 7.28522 122.181 7.32061 123.166 7.29663Z" fill="#080B0E"/>
<path d="M106.727 55.9902C105.351 57.5222 103.981 58.3375 101.908 58.4516C101.359 58.4572 100.809 58.4575 100.26 58.4529C99.9851 58.4595 99.7102 58.4661 99.427 58.4729C97.5654 58.4714 96.5466 58.1943 95.1194 56.9836C95.0099 56.765 94.9005 56.5465 94.7877 56.3213C95.1195 56.4285 95.4512 56.5356 95.793 56.646C99.8656 57.8025 102.929 55.7581 106.727 55.9902Z" fill="#E64646"/>
<path d="M93.4619 16.5884C93.5713 16.5884 93.6807 16.5884 93.7935 16.5884C93.7935 17.681 93.7935 18.7737 93.7935 19.8995C94.0124 19.8995 94.2313 19.8995 94.4568 19.8995C94.5663 19.4624 94.6757 19.0253 94.7885 18.575C94.919 20.2691 94.5503 21.258 93.7313 22.7346C93.5351 23.097 93.3389 23.4593 93.1367 23.8327C92.4499 24.8923 91.7677 25.7005 90.8086 26.5216C89.71 26.6251 89.71 26.6251 88.8187 26.5216C88.9431 26.3812 89.0675 26.2408 89.1957 26.0961C91.8718 23.0341 93.1063 20.7085 93.4619 16.5884Z" fill="#94DEDC"/>
<path d="M68.1523 5.31023C68.5544 5.31471 68.5544 5.31471 68.9646 5.31928C69.2705 5.32504 69.2705 5.32504 69.5826 5.33092C69.5826 5.44019 69.5826 5.54945 69.5826 5.66203C68.4881 5.88056 67.3937 6.09909 66.2661 6.32425C66.4849 6.54278 66.7038 6.76131 66.9294 6.98647C66.5977 7.64868 66.5977 7.64868 65.6649 8.10396C64.5912 8.57604 64.5912 8.57604 63.903 9.387C63.6978 9.57822 63.4926 9.76943 63.2812 9.96644C62.5454 9.90348 62.1485 9.82896 61.6229 9.30423C61.6094 8.75254 61.6087 8.20035 61.6229 7.64868C62.2651 7.32365 62.9078 6.99964 63.5506 6.67605C63.9085 6.49551 64.2663 6.31496 64.635 6.12895C65.8832 5.52671 66.7815 5.29039 68.1523 5.31023Z" fill="#1F262C"/>
<path d="M123.683 20.0445C124.058 20.0705 124.058 20.0705 124.441 20.0969C125.059 20.1399 125.677 20.1851 126.294 20.2308C126.294 20.5586 126.294 20.8864 126.294 21.2241C125.638 21.2241 124.981 21.2241 124.305 21.2241C124.305 21.4426 124.305 21.6612 124.305 21.8863C120.283 23.0866 120.283 23.0866 118.666 22.8797C118.448 22.6611 118.229 22.4426 118.003 22.2174C118.769 21.9989 119.535 21.7804 120.325 21.5552C120.106 21.3367 119.887 21.1182 119.661 20.893C119.88 20.893 120.099 20.893 120.325 20.893C120.325 20.6745 120.325 20.4559 120.325 20.2308C121.39 19.6988 122.523 19.9576 123.683 20.0445Z" fill="#322CD9"/>
<path d="M95.1194 45.7261C99.7161 45.89 99.7161 45.89 104.406 46.0572C104.187 46.4942 103.968 46.9313 103.742 47.3816C102.602 47.3912 101.462 47.3971 100.322 47.4023C99.8364 47.4065 99.8364 47.4065 99.3408 47.4107C99.0298 47.4118 98.7188 47.4129 98.3983 47.414C98.1118 47.4157 97.8252 47.4174 97.5299 47.4192C96.7776 47.3816 96.7776 47.3816 95.7827 47.0505C95.7827 46.832 95.7827 46.6134 95.7827 46.3883C95.5638 46.3883 95.3449 46.3883 95.1194 46.3883C95.1194 46.1698 95.1194 45.9512 95.1194 45.7261Z" fill="#68F4F4"/>
<path d="M81.1899 16.5884C81.6285 17.464 81.5537 18.1372 81.5423 19.1131C81.5393 19.4451 81.5363 19.7772 81.5332 20.1193C81.5294 20.3746 81.5255 20.6298 81.5216 20.8928C82.2877 20.8928 83.0538 20.8928 83.8431 20.8928C84.062 20.4557 84.2809 20.0187 84.5064 19.5684C84.6159 19.7869 84.7253 20.0054 84.8381 20.2306C84.5272 20.9342 84.5272 20.9342 84.1748 21.555C84.5031 21.4457 84.8315 21.3365 85.1697 21.2239C85.836 21.3152 86.5003 21.4233 87.1597 21.555C87.1597 21.8828 87.1597 22.2106 87.1597 22.5483C85.9229 23.1657 84.5265 23.065 83.1798 22.8794C82.1217 22.3426 81.4499 21.566 80.7339 20.6238C80.4024 19.4655 80.4488 18.4549 80.5266 17.2506C80.7455 17.0321 80.9644 16.8135 81.1899 16.5884Z" fill="#E54646"/>
<path d="M89.4814 44.0706C90.4467 44.4107 91.1819 44.7639 92.0103 45.3743C95.1663 47.2998 98.8251 47.2598 102.416 47.3816C102.416 47.4909 102.416 47.6002 102.416 47.7128C101.352 47.7321 100.288 47.7438 99.2237 47.7541C98.924 47.7597 98.6243 47.7652 98.3156 47.771C96.6542 47.7831 95.3606 47.6613 93.7929 47.0505C92.7149 46.9949 92.7149 46.9949 91.803 47.0505C91.5841 47.4876 91.3652 47.9247 91.1397 48.375C90.9277 48.1018 90.7156 47.8286 90.4971 47.5472C90.2714 47.274 90.0457 47.0009 89.8131 46.7194C89.7037 46.7194 89.5942 46.7194 89.4814 46.7194C89.4814 45.8453 89.4814 44.9712 89.4814 44.0706Z" fill="#33868D"/>
<path d="M121.652 11.9529C121.871 12.0621 122.09 12.1714 122.315 12.284C122.315 12.9396 122.315 13.5952 122.315 14.2706C121.564 14.7232 120.811 15.1707 120.056 15.6158C119.843 15.7449 119.629 15.874 119.41 16.007C118.845 16.3372 118.259 16.6308 117.672 16.9195C117.344 16.8102 117.015 16.701 116.677 16.5884C116.677 16.3699 116.677 16.1513 116.677 15.9262C116.458 15.8169 116.239 15.7077 116.014 15.5951C116.71 15.1509 117.408 14.7099 118.107 14.2706C118.305 14.1443 118.502 14.018 118.705 13.8878C120.212 12.9462 120.212 12.9462 121.32 12.9462C121.43 12.6184 121.539 12.2906 121.652 11.9529Z" fill="#1F343B"/>
<path d="M82.5172 44.0706C83.0645 44.5076 83.6117 44.9447 84.1755 45.395C83.9566 45.395 83.7377 45.395 83.5122 45.395C83.4711 45.7843 83.4301 46.1735 83.3878 46.5746C83.2255 47.8919 82.9134 49.096 82.5172 50.3616C82.0795 50.3616 81.6417 50.3616 81.1906 50.3616C81.1294 46.5467 81.1294 46.5467 81.5223 44.7328C81.8506 44.7328 82.1789 44.7328 82.5172 44.7328C82.5172 44.5142 82.5172 44.2957 82.5172 44.0706Z" fill="#728A89"/>
<path d="M112.366 42.0835C112.585 42.1928 112.803 42.302 113.029 42.4146C113.029 42.5239 113.029 42.6331 113.029 42.7457C113.248 42.7457 113.467 42.7457 113.692 42.7457C113.895 47.3771 113.895 47.3771 112.138 49.3265C111.922 49.5109 111.922 49.5109 111.702 49.699C111.484 49.5897 111.265 49.4805 111.039 49.3679C111.249 49.1955 111.46 49.023 111.676 48.8454C112.548 47.8316 112.622 47.1237 112.78 45.8085C112.83 45.4209 112.879 45.0334 112.931 44.6341C112.963 44.3387 112.996 44.0433 113.029 43.739C112.708 43.8961 112.386 44.0532 112.055 44.215C110.629 44.8274 109.255 44.9371 107.723 45.0635C106.947 45.1643 106.175 45.2796 105.401 45.3946C106.727 44.5117 108.145 44.0588 109.637 43.5127C110.711 43.1095 110.711 43.1095 111.632 42.5064C111.874 42.3669 112.116 42.2273 112.366 42.0835Z" fill="#FF0B0B"/>
<path d="M123.706 22.0077C123.904 22.0768 124.102 22.146 124.306 22.2172C123.947 22.5655 123.947 22.5655 123.58 22.9208C122.93 23.5628 122.359 24.2285 121.798 24.9489C120.96 25.8918 120.828 26.0104 119.663 26.1905C119.138 26.2122 118.612 26.2189 118.087 26.2112C117.822 26.2082 117.557 26.2052 117.284 26.2022C117.084 26.1983 116.884 26.1945 116.678 26.1905C117.009 25.1972 117.009 25.1972 117.758 24.7962C118.072 24.6691 118.386 24.5419 118.709 24.4108C119.911 23.9004 120.936 23.3945 121.963 22.5897C122.979 21.8861 122.979 21.8861 123.706 22.0077Z" fill="#797DE4"/>
<path d="M83.5121 14.6018C86.5037 14.3453 86.5037 14.3453 87.72 15.3054C88.2451 16.4538 88.1588 17.0447 87.8236 18.244C87.0575 18.4625 86.2914 18.6811 85.502 18.9062C85.502 19.1247 85.502 19.3433 85.502 19.5684C85.29 19.664 85.0779 19.7596 84.8595 19.8582C84.125 20.1738 84.125 20.1738 83.8438 20.8929C83.0777 20.8929 82.3115 20.8929 81.5222 20.8929C81.4128 20.3465 81.3033 19.8002 81.1906 19.2373C81.5189 19.4012 81.5189 19.4012 81.8539 19.5684C82.8067 19.7343 82.8067 19.7343 83.8438 19.5684C84.4035 19.0236 84.9561 18.4715 85.502 17.9129C86.6006 17.6439 86.6006 17.6439 87.4919 17.5818C87.4919 17.0355 87.4919 16.4891 87.4919 15.9262C85.1936 15.7623 85.1936 15.7623 82.8488 15.5951C83.0677 15.4859 83.2866 15.3766 83.5121 15.264C83.5121 15.0455 83.5121 14.827 83.5121 14.6018Z" fill="#E64646"/>
<path d="M96.1151 22.2173C96.2245 22.2173 96.334 22.2173 96.4468 22.2173C96.5562 22.8729 96.6656 23.5285 96.7784 24.2039C96.9973 23.9854 97.2162 23.7669 97.4417 23.5417C97.5264 23.8113 97.5264 23.8113 97.6127 24.0862C97.7333 24.4416 97.7333 24.4416 97.8563 24.8041C97.9332 25.0384 98.0102 25.2727 98.0895 25.5141C98.5282 26.3689 98.926 26.713 99.7633 27.1839C100.622 27.3032 100.622 27.3032 101.504 27.246C102.024 27.2255 102.544 27.205 103.08 27.1839C103.299 25.982 103.518 24.7801 103.743 23.5417C103.962 23.5417 104.181 23.5417 104.406 23.5417C104.377 24.0112 104.341 24.4802 104.303 24.9489C104.284 25.2101 104.264 25.4714 104.244 25.7405C104.036 26.7017 103.794 27.1651 103.08 27.8461C101.734 28.1409 100.452 28.0972 99.1 27.8461C98.2623 27.2508 97.9706 26.7647 97.4417 25.8595C97.4417 26.6243 97.4417 27.3892 97.4417 28.1772C96.3995 27.3259 96.0734 26.4999 95.7834 25.1973C95.8262 24.1914 95.9516 23.2102 96.1151 22.2173Z" fill="#345C66"/>
<path d="M120.325 20.8929C120.544 21.1114 120.763 21.3299 120.989 21.5551C113.822 24.2539 113.822 24.2539 110.707 24.204C110.707 23.9854 110.707 23.7669 110.707 23.5417C111.056 23.4376 111.404 23.3334 111.763 23.2261C115.163 22.2028 115.163 22.2028 118.403 20.7609C119.173 20.5037 119.575 20.6049 120.325 20.8929Z" fill="#FC1693"/>
<path d="M123.311 13.9397C123.311 14.1582 123.311 14.3768 123.311 14.6019C115.667 18.811 115.667 18.811 112.097 20.5205C111.867 20.6327 111.638 20.745 111.402 20.8606C109.833 21.5951 109.833 21.5951 108.718 21.2241C108.965 21.0975 109.212 20.971 109.466 20.8406C110.613 20.2521 111.759 19.6623 112.905 19.0719C113.11 18.9664 113.315 18.8609 113.526 18.7522C116.233 17.3567 118.908 15.9283 121.518 14.3562C122.316 13.9397 122.316 13.9397 123.311 13.9397Z" fill="#A3C4C8"/>
<path d="M101.09 21.8862C102.189 23.2408 102.583 24.1167 102.417 25.8595C100.409 25.9242 100.409 25.9242 99.7636 25.8595C99.5448 25.641 99.3259 25.4225 99.1003 25.1973C99.2107 23.1773 99.2107 23.1773 99.9087 22.238C100.427 21.8862 100.427 21.8862 101.09 21.8862Z" fill="#4ADEE0"/>
<path d="M115.35 39.7659C115.364 40.4279 115.364 41.0904 115.35 41.7525C115.241 41.8618 115.131 41.9711 115.018 42.0836C114.94 42.92 114.878 43.7495 114.832 44.5876C114.817 44.823 114.803 45.0584 114.788 45.3009C114.753 45.884 114.72 46.4671 114.687 47.0503C114.358 47.0503 114.03 47.0503 113.692 47.0503C113.692 45.6298 113.692 44.2093 113.692 42.7458C113.254 42.8551 112.816 42.9644 112.365 43.077C112.561 42.5854 112.762 42.096 112.966 41.6077C113.078 41.3349 113.189 41.0622 113.304 40.7812C113.821 39.869 114.323 39.7659 115.35 39.7659Z" fill="#B4A1F7"/>
<path d="M81.8537 13.2773C82.517 13.6085 82.517 13.6085 82.8487 13.9396C83.4065 14.0167 83.9668 14.0762 84.5277 14.1258C84.9849 14.1674 84.9849 14.1674 85.4514 14.2099C85.8047 14.24 85.8047 14.24 86.1652 14.2707C86.1652 14.3799 86.1652 14.4892 86.1652 14.6018C85.2897 14.6018 84.4141 14.6018 83.512 14.6018C83.512 14.8203 83.512 15.0388 83.512 15.264C82.8576 15.7185 82.1935 16.1594 81.5221 16.5884C80.7147 17.2461 80.7147 17.2461 80.7966 18.5337C80.8189 19.4739 80.8903 20.325 81.1904 21.2239C80.7527 21.1147 80.3149 21.0054 79.8638 20.8928C79.5399 19.3429 79.2961 18.0709 80.1126 16.6505C81.3563 14.8915 81.3563 14.8915 81.8537 14.2707C81.6349 14.1614 81.416 14.0521 81.1904 13.9396C81.4093 13.721 81.6282 13.5025 81.8537 13.2773Z" fill="#094355"/>
<path d="M94.4566 38.1104C95.5511 38.4381 96.6455 38.7659 97.7732 39.1037C97.3763 40.5564 97.0067 41.4987 95.7832 42.4148C94.7054 42.6631 94.7054 42.6631 93.7933 42.7459C94.0835 41.1317 94.0835 41.1317 94.4566 40.7592C94.4803 40.3114 94.4845 39.8625 94.4774 39.4141C94.4705 38.9839 94.4637 38.5536 94.4566 38.1104Z" fill="#B1B8B2"/>
<path d="M113.361 23.542C113.361 24.1976 113.361 24.8532 113.361 25.5286C114.237 25.5286 115.112 25.5286 116.014 25.5286C114.632 26.78 113.469 26.6424 111.679 26.6009C110.609 26.514 109.7 26.2957 108.718 25.8598C109.609 24.9705 110.501 24.8464 111.703 24.5353C111.703 24.3168 111.703 24.0983 111.703 23.8731C112.698 23.542 112.698 23.542 113.361 23.542Z" fill="#30ABBA"/>
<path d="M83.5123 39.766C85.5527 39.7336 85.5527 39.7336 86.1655 39.766C86.275 39.8752 86.3844 39.9845 86.4972 40.0971C86.3697 41.4456 86.2055 42.569 85.5022 43.7393C84.0202 43.5749 83.6151 43.5108 82.5173 42.4148C83.2835 41.7592 84.0496 41.1036 84.8389 40.4282C84.4011 40.2096 83.9633 4011 83.5123 39.766Z" fill="#9F9D8F"/>
<path d="M109.444 44.7118C109.642 44.8279 109.84 44.944 110.045 45.0636C107.931 46.1148 106.115 46.9162 103.743 47.0502C103.853 46.8317 103.962 46.6132 104.075 46.388C101.667 46.2787 99.2593 46.1695 96.7786 46.0569C96.7786 45.9476 96.7786 45.8384 96.7786 45.7258C96.9805 45.7192 97.1824 45.7127 97.3905 45.7059C100.316 45.6059 107.081 43.701 109.444 44.7118Z" fill="#36E6E5"/>
<path d="M78.8692 15.595C79.0881 15.595 79.3069 15.595 79.5325 15.595C79.423 16.032 79.3136 16.4691 79.2008 16.9194C78.8725 16.9194 78.5441 16.9194 78.2059 16.9194C78.1033 17.2335 78.0007 17.5477 77.8949 17.8713C77.3459 19.4834 77.3459 19.4834 76.6512 19.9201C75.8843 20.2305 75.8843 20.2305 74.8272 20.396C74.5193 20.4507 74.2115 20.5053 73.8944 20.5616C73.7849 20.7801 73.6755 20.9987 73.5627 21.2238C73.2344 21.2238 72.9061 21.2238 72.5678 21.2238C72.5678 21.9887 72.5678 22.7535 72.5678 23.5416C72.4583 23.5416 72.3489 23.5416 72.2361 23.5416C72.2361 22.886 72.2361 22.2304 72.2361 21.5549C71.47 21.5549 70.7039 21.5549 69.9146 21.5549C70.3523 21.4457 70.7901 21.3364 71.2412 21.2238C71.2412 20.896 71.2412 20.5682 71.2412 20.2305C71.4601 20.2305 71.6789 20.2305 71.9045 20.2305C71.9045 20.449 71.9045 20.6676 71.9045 20.8927C72.2328 20.8927 72.5611 20.8927 72.8994 20.8927C73.0089 20.3464 73.1183 19.8 73.2311 19.2372C73.3405 19.4557 73.45 19.6742 73.5627 19.8994C75.3393 19.4689 76.1271 18.7575 77.2938 17.3747C77.8068 16.771 78.3292 16.1748 78.8692 15.595Z" fill="#969F99"/>
<path d="M129.944 6.65503C130.162 6.7643 130.381 6.87356 130.607 6.98614C130.343 7.17244 130.343 7.17244 130.073 7.36252C128.114 8.76264 128.114 8.76264 126.627 10.6283C126.516 11.6911 126.516 11.6911 126.627 12.615C126.08 12.7242 125.533 12.8335 124.969 12.9461C124.872 10.0434 124.872 10.0434 125.632 8.97279C126.617 8.3248 126.617 8.3248 127.788 7.71044C128.083 7.54942 128.083 7.54942 128.385 7.38515C128.893 7.11801 129.417 6.88379 129.944 6.65503Z" fill="#676D6E"/>
<path d="M90.4764 34.4683C91.1331 34.4683 91.7898 34.4683 92.4663 34.4683C92.798 35.4616 92.798 35.4616 92.4909 36.2247C92.2633 36.646 92.2633 36.646 92.031 37.0757C91.4429 38.1761 90.9222 39.2624 90.4764 40.4282C90.2575 40.4282 90.0386 40.4282 89.8131 40.4282C89.8602 39.7452 89.9089 39.0623 89.9582 38.3795C89.9851 37.9992 90.0121 37.6189 90.0398 37.2271C90.1295 36.2841 90.2692 35.3914 90.4764 34.4683Z" fill="#F3F7F4"/>
<path d="M111.702 50.3616C111.193 51.4913 110.527 52.3961 109.754 53.3622C109.529 53.6461 109.304 53.9299 109.072 54.2224C108.436 54.9407 107.875 55.4869 107.059 55.9904C105.981 56.0525 105.981 56.0525 105.069 55.9904C105.261 55.9085 105.452 55.8265 105.65 55.7421C107.137 54.9169 107.852 53.9478 108.386 52.3482C108.167 52.1297 107.948 51.9112 107.723 51.686C108.261 51.4639 108.8 51.2435 109.339 51.0238C109.639 50.9009 109.94 50.7779 110.249 50.6513C111.039 50.3616 111.039 50.3616 111.702 50.3616Z" fill="#103594"/>
<path d="M131.933 45.7261C132.042 45.7261 132.151 45.7261 132.264 45.7261C132.925 49.4073 133.425 52.9014 133.259 56.6527C133.15 56.6527 133.04 56.6527 132.928 56.6527C132.684 55.9229 132.44 55.1931 132.198 54.4629C131.986 53.8313 131.764 53.203 131.539 52.5759C131.269 51.686 131.269 51.686 131.269 50.3616C131.598 50.3616 131.926 50.3616 132.264 50.3616C132.21 50.0884 132.155 49.8153 132.098 49.5338C131.913 48.2383 131.91 47.0333 131.933 45.7261Z" fill="#3C8C91"/>
<path d="M89.8131 40.7595C89.9225 40.7595 90.032 40.7595 90.1447 40.7595C90.1516 41.1146 90.1584 41.4697 90.1655 41.8356C90.3564 43.1457 90.3564 43.1457 91.4506 43.8223C92.9354 44.5388 94.5249 44.9736 96.1145 45.395C95.7862 45.5043 95.4578 45.6136 95.1195 45.7262C95.1195 45.9447 95.1195 46.1632 95.1195 46.3884C95.3384 46.4976 95.5573 46.6069 95.7828 46.7195C93.1909 46.6707 91.5656 45.5356 89.4814 44.0706C89.5909 42.9779 89.7003 41.8853 89.8131 40.7595Z" fill="#2CD4D9"/>
<path d="M116.76 39.6626C117.318 40.3988 117.543 40.851 117.672 41.7527C117.454 41.7527 117.235 41.7527 117.009 41.7527C117.009 41.4249 117.009 41.0971 117.009 40.7594C116.79 40.7594 116.571 40.7594 116.346 40.7594C116.455 41.415 116.565 42.0706 116.678 42.746C116.349 42.746 116.021 42.746 115.683 42.746C115.683 44.6035 115.683 46.4611 115.683 48.3749C114.839 47.1114 114.933 46.0905 114.957 44.6292C114.957 44.3819 114.957 44.1345 114.958 43.8797C114.969 42.4747 115.076 41.1494 115.351 39.766C114.913 39.8753 114.475 39.9846 114.024 40.0971C114.356 39.4349 114.356 39.4349 115.123 39.1452C116.014 39.1038 116.014 39.1038 116.76 39.6626Z" fill="#264A5B"/>
<path d="M117.672 43.4082C118.11 43.9545 118.548 44.5009 118.999 45.0637C119.218 44.7359 119.437 44.4082 119.662 44.0704C119.68 45.05 119.693 46.0293 119.704 47.009C119.709 47.2877 119.715 47.5664 119.72 47.8536C119.723 48.1204 119.725 48.3871 119.727 48.662C119.73 48.9082 119.734 49.1544 119.738 49.4081C119.662 50.0304 119.662 50.0304 118.999 50.6926C118.774 49.914 118.554 49.1346 118.336 48.3541C118.241 48.0279 118.241 48.0279 118.144 47.6952C117.74 46.2334 117.609 44.9381 117.672 43.4082Z" fill="#217E82"/>
<path d="M107.411 44.0496C107.894 44.0598 107.894 44.0598 108.386 44.0703C105.776 45.8074 102.934 45.86 99.887 45.7879C99.5224 45.7834 99.1577 45.7789 98.782 45.7743C97.8926 45.7627 97.0037 45.7465 96.1145 45.7258C96.1145 45.6165 96.1145 45.5073 96.1145 45.3947C96.8806 45.3947 97.6467 45.3947 98.4361 45.3947C98.5455 45.0669 98.655 44.7391 98.7677 44.4014C99.0961 44.5106 99.4244 44.6199 99.7627 44.7325C100.251 44.7413 100.739 44.7296 101.227 44.704C101.506 44.6895 101.786 44.675 102.074 44.66C102.365 44.643 102.655 44.6259 102.955 44.6083C103.248 44.5938 103.541 44.5793 103.844 44.5643C105.149 44.4924 106.212 44.074 107.411 44.0496Z" fill="#F71919"/>
<path d="M81.8533 14.2705C81.4454 15.1189 81.0114 15.8624 80.4852 16.6504C79.6715 18.0345 79.7356 19.3295 79.8634 20.8927C80.3012 21.0019 80.7389 21.1112 81.19 21.2238C81.19 21.4423 81.19 21.6609 81.19 21.886C80.9711 21.886 80.7522 21.886 80.5267 21.886C80.4172 22.1045 80.3078 22.3231 80.195 22.5482C79.0922 20.6559 78.4516 19.1263 78.8684 16.9194C80.3156 14.2705 80.3156 14.2705 81.8533 14.2705Z" fill="#06111C"/>
<path d="M90.8081 26.5215C90.2836 26.9981 89.7583 27.4739 89.2327 27.9494C88.9403 28.2144 88.6479 28.4795 88.3466 28.7526C87.6393 29.372 86.9271 29.9454 86.165 30.4948C86.165 30.2762 86.165 30.0577 86.165 29.8326C85.8366 30.0511 85.5083 30.2696 85.17 30.4948C84.4445 30.3706 84.4445 30.3706 83.8434 30.1637C85.4187 29.1703 85.4187 29.1703 86.165 29.1703C86.2402 28.9586 86.3154 28.7469 86.393 28.5288C86.8283 27.8459 86.8283 27.8459 87.6988 27.5976C88.0887 27.5566 88.0887 27.5566 88.4865 27.5148C88.596 27.187 88.7054 26.8592 88.8182 26.5215C89.6443 26.1091 89.9494 26.2643 90.8081 26.5215Z" fill="#9DF1F1"/>
<path d="M97.4413 23.2102C98.2621 23.3741 98.2621 23.3741 99.0995 23.5413C99.1748 23.8555 99.25 24.1696 99.3276 24.4933C99.6603 25.5919 99.6603 25.5919 100.633 25.9832C100.893 26.0515 101.153 26.1198 101.421 26.1902C101.421 26.6272 101.421 27.0643 101.421 27.5146C100.087 27.4378 99.3249 27.3848 98.3119 26.4799C97.6856 25.3737 97.5402 24.4689 97.4413 23.2102Z" fill="#051018"/>
<path d="M86.4975 40.0972C87.1542 40.0972 87.8109 40.0972 88.4874 40.0972C88.4027 40.7394 88.3117 41.3808 88.218 42.0217C88.168 42.379 88.1179 42.7362 88.0664 43.1043C87.8188 44.0918 87.6183 44.4487 86.8292 45.0638C86.7197 44.5175 86.6103 43.9711 86.4975 43.4083C86.2786 43.4083 86.0598 43.4083 85.8342 43.4083C86.0531 42.3156 86.272 41.2229 86.4975 40.0972Z" fill="#1D2C2C"/>
<path d="M79.5322 36.7861C81.7211 36.7861 83.91 36.7861 86.1653 36.7861C86.1653 37.0047 86.1653 37.2232 86.1653 37.4484C84.1356 37.9134 82.2792 38.1876 80.1955 38.1106C80.1955 38.3291 80.1955 38.5476 80.1955 38.7728C79.9766 38.7728 79.7578 38.7728 79.5322 38.7728C79.5322 38.1172 79.5322 37.4616 79.5322 36.7861Z" fill="#8D938D"/>
<path d="M116.345 40.7595C116.564 40.7595 116.783 40.7595 117.009 40.7595C117.009 41.0873 117.009 41.4151 117.009 41.7528C117.207 41.7665 117.405 41.7802 117.61 41.7942C118.335 42.084 118.335 42.084 118.936 43.0152C119.324 44.0534 119.42 44.4015 118.999 45.395C118.561 44.958 118.123 44.5209 117.672 44.0706C117.015 44.2891 116.359 44.5077 115.682 44.7328C115.682 44.0772 115.682 43.4216 115.682 42.7462C116.01 42.7462 116.339 42.7462 116.677 42.7462C116.568 42.0906 116.458 41.435 116.345 40.7595Z" fill="#0D3945"/>
<path d="M82.5173 42.7458C82.7431 42.8551 82.9688 42.9644 83.2014 43.077C84.3442 43.4654 85.2979 43.455 86.4972 43.4081C86.6066 44.1729 86.7161 44.9378 86.8288 45.7258C86.296 45.641 85.7641 45.5502 85.2327 45.4568C84.9365 45.4069 84.6402 45.3569 84.3349 45.3055C83.4309 45.0397 83.0565 44.8375 82.5173 44.0703C82.5173 43.6332 82.5173 43.1962 82.5173 42.7458Z" fill="#0B0F0E"/>
<path d="M88.1552 26.5217C88.3741 26.631 88.593 26.7403 88.8185 26.8528C88.1041 27.6374 87.439 28.0381 86.497 28.5084C86.3486 28.6582 86.2003 28.808 86.0474 28.9624C84.5229 30.4699 82.6036 31.619 80.5272 32.1506C82.1888 29.6623 85.4048 27.658 88.1552 26.5217Z" fill="#32B6BA"/>
<path d="M100.426 19.8994C100.298 20.0398 100.17 20.1802 100.038 20.3249C98.8543 21.6553 97.9448 22.9635 97.1096 24.5349C96.8907 24.4256 96.6719 24.3164 96.4463 24.2038C96.3475 23.2337 96.2782 22.5007 96.4463 21.5549C97.6835 20.1433 98.5519 19.6766 100.426 19.8994Z" fill="#D3CBC3"/>
<path d="M90.1455 49.3682C90.638 49.696 90.638 49.696 91.1405 50.0304C91.1405 50.2489 91.1405 50.4674 91.1405 50.6926C91.3936 50.7814 91.6466 50.8702 91.9074 50.9616C92.7944 51.3529 93.2047 51.5961 93.7937 52.3481C93.8908 53.097 93.8908 53.097 93.8559 53.9002C93.8469 54.1678 93.8379 54.4354 93.8287 54.7112C93.8171 54.9148 93.8056 55.1184 93.7937 55.3281C91.8225 53.4133 90.9326 51.9764 90.1455 49.3682Z" fill="#183B45"/>
<path d="M90.6216 150V58.032H124.519C130.911 58.032 136.538 59.3825 141.4 62.0834C146.262 64.6944 150.043 68.2957 152.744 72.8873C155.535 77.479 156.93 82.7458 156.93 88.688C156.93 94.6301 155.535 99.897 152.744 104.489C150.043 109.08 146.262 112.682 141.4 115.293C136.538 117.813 130.911 119.074 124.519 119.074H103.181V104.219H122.493C128.075 104.219 132.487 102.868 135.728 100.167C139.059 97.3761 140.725 93.5497 140.725 88.688C140.725 83.4661 139.059 79.5497 135.728 76.9388C132.487 74.2378 128.075 72.8873 122.493 72.8873H103.046L106.287 69.3761V150H90.6216ZM140.725 150L119.927 112.051H137.078L157.876 150H140.725Z" fill="#323030"/>
<path d="M83.5241 150H67.8585V58.032H83.5241V150Z" fill="#323030"/>
<path d="M55.0998 90.3086V150H39.164V117.993L36.7332 113.132L45.3763 90.3086H55.0998ZM0 127.582V117.993L23.2283 58.032H39.029L15.5306 119.884L13.0997 112.456H67.7943V127.582H0Z" fill="#323030"/>
<path d="M244.855 145.852V127.459H251.823C253.534 127.459 254.876 127.657 255.848 128.053C256.82 128.449 257.505 129.034 257.901 129.809C258.297 130.565 258.495 131.501 258.495 132.618C258.495 133.464 258.333 134.211 258.009 134.859C257.685 135.49 257.225 135.985 256.631 136.345C256.037 136.705 255.335 136.885 254.524 136.885V136.426C255.569 136.426 256.397 136.633 257.009 137.047C257.622 137.443 258.063 137.966 258.333 138.614C258.603 139.262 258.738 139.946 258.738 140.666C258.738 142.413 258.207 143.719 257.144 144.583C256.082 145.429 254.479 145.852 252.337 145.852H244.855ZM249.744 129.728V143.394L248.096 141.18H252.175C252.643 141.18 253.021 141.081 253.309 140.883C253.615 140.684 253.768 140.369 253.768 139.937C253.768 139.505 253.624 139.19 253.336 138.992C253.048 138.794 252.679 138.695 252.229 138.695H248.096V134.616H251.877C252.418 134.616 252.814 134.517 253.066 134.319C253.336 134.121 253.471 133.806 253.471 133.374C253.471 132.942 253.336 132.627 253.066 132.429C252.814 132.23 252.418 132.131 251.877 132.131H248.177L249.744 129.728Z" fill="black"/>
<path d="M231.152 146.23C229.369 146.23 227.902 145.915 226.749 145.285C225.615 144.637 224.769 143.683 224.21 142.422C223.67 141.144 223.4 139.559 223.4 137.668V127.459H228.316V138.128C228.316 139.172 228.55 1401 229.018 140.585C229.486 141.162 230.198 141.45 231.152 141.45C232.106 141.45 232.818 141.162 233.286 140.585C233.754 1401 233.988 139.172 233.988 138.128V127.459H238.904V137.668C238.904 139.559 238.625 141.144 238.066 142.422C237.526 143.683 236.689 144.637 235.555 145.285C234.42 145.915 232.953 146.23 231.152 146.23Z" fill="black"/>
<path d="M218.072 145.852H206.458V127.459H211.347V143.394L209.834 141.099H218.072V145.852Z" fill="black"/>
<path d="M192.857 146.231C190.912 146.231 189.237 145.825 187.833 145.015C186.428 144.205 185.348 143.088 184.592 141.666C183.836 140.225 183.457 138.56 183.457 136.669C183.457 135.265 183.682 133.977 184.133 132.807C184.583 131.636 185.222 130.628 186.05 129.782C186.879 128.917 187.869 128.26 189.021 127.81C190.174 127.342 191.452 127.108 192.857 127.108C195.054 127.108 196.872 127.612 198.313 128.62C199.753 129.611 200.798 131.087 201.446 133.05L197.124 134.886C196.71 133.914 196.161 133.167 195.477 132.645C194.792 132.122 193.919 131.861 192.857 131.861C191.992 131.861 191.227 132.05 190.561 132.429C189.895 132.807 189.373 133.356 188.994 134.076C188.634 134.796 188.454 135.661 188.454 136.669C188.454 137.677 188.634 138.542 188.994 139.262C189.373 139.982 189.895 140.531 190.561 140.91C191.227 141.27 191.992 141.45 192.857 141.45C193.919 141.45 194.792 141.198 195.477 140.694C196.161 140.171 196.71 139.424 197.124 138.452L201.446 140.288C200.798 142.251 199.753 143.737 198.313 144.745C196.872 145.735 195.054 146.231 192.857 146.231Z" fill="black"/>
<path d="M369.184 113.441L360.514 101.178L362.35 100.692V113.441H357.461V95.0471H362.026L370.669 107.31L368.832 107.796V95.0471H373.748V113.441H369.184Z" fill="black"/>
<path d="M333.379 104.258C333.379 102.853 333.604 101.566 334.054 100.395C334.504 99.2248 335.144 98.2165 335.972 97.3702C336.8 96.5058 337.79 95.8396 338.943 95.3714C340.095 94.9033 341.374 94.6692 342.778 94.6692C344.183 94.6692 345.461 94.9033 346.614 95.3714C347.784 95.8396 348.783 96.5058 349.612 97.3702C350.458 98.2165 351.106 99.2248 351.556 100.395C352.007 101.566 352.232 102.853 352.232 104.258C352.232 105.662 352.007 106.95 351.556 108.12C351.106 109.29 350.458 110.308 349.612 111.172C348.783 112.018 347.784 112.676 346.614 113.144C345.461 113.594 344.183 113.819 342.778 113.819C341.374 113.819 340.095 113.594 338.943 113.144C337.79 112.676 336.8 112.018 335.972 111.172C335.144 110.308 334.504 109.29 334.054 108.12C333.604 106.95 333.379 105.662 333.379 104.258ZM338.376 104.258C338.376 105.266 338.556 106.121 338.916 106.824C339.294 107.526 339.816 108.057 340.482 108.417C341.149 108.777 341.914 108.957 342.778 108.957C343.661 108.957 344.435 108.777 345.101 108.417C345.767 108.057 346.29 107.526 346.668 106.824C347.046 106.103 347.235 105.239 347.235 104.231C347.235 103.222 347.046 102.367 346.668 101.665C346.29 100.962 345.767 100.431 345.101 100.071C344.435 99.711 343.661 99.5309 342.778 99.5309C341.914 99.5309 341.149 99.72 340.482 100.098C339.816 100.458 339.294 100.989 338.916 101.692C338.556 102.394 338.376 103.249 338.376 104.258Z" fill="black"/>
<path d="M328.121 113.441H323.232V95.0471H328.121V113.441Z" fill="black"/>
<path d="M307.947 113.441V96.7757H312.89V113.441H307.947ZM302.734 99.8008V95.0471H318.075V99.8008H302.734Z" fill="black"/>
<path d="M289.895 113.819C288.112 113.819 286.645 113.504 285.492 112.874C284.358 112.225 283.511 111.271 282.953 110.01C282.413 108.732 282.143 107.147 282.143 105.257V95.0471H287.059V105.716C287.059 106.76 287.293 107.58 287.761 108.174C288.229 108.75 288.94 109.038 289.895 109.038C290.849 109.038 291.56 108.75 292.028 108.174C292.497 107.58 292.731 106.76 292.731 105.716V95.0471H297.647V105.257C297.647 107.147 297.367 108.732 296.809 110.01C296.269 111.271 295.432 112.225 294.297 112.874C293.163 113.504 291.695 113.819 289.895 113.819Z" fill="black"/>
<path d="M276.815 113.441H265.201V95.0471H270.09V110.983L268.577 108.687H276.815V113.441Z" fill="black"/>
<path d="M241.119 104.258C241.119 102.853 241.344 101.566 241.794 100.395C242.244 99.2248 242.883 98.2165 243.712 97.3702C244.54 96.5058 245.53 95.8396 246.683 95.3714C247.835 94.9033 249.114 94.6692 250.518 94.6692C251.923 94.6692 253.201 94.9033 254.353 95.3714C255.524 95.8396 256.523 96.5058 257.352 97.3702C258.198 98.2165 258.846 99.2248 259.296 100.395C259.746 101.566 259.971 102.853 259.971 104.258C259.971 105.662 259.746 106.95 259.296 108.12C258.846 109.29 258.198 110.308 257.352 111.172C256.523 112.018 255.524 112.676 254.353 113.144C253.201 113.594 251.923 113.819 250.518 113.819C249.114 113.819 247.835 113.594 246.683 113.144C245.53 112.676 244.54 112.018 243.712 111.172C242.883 110.308 242.244 109.29 241.794 108.12C241.344 106.95 241.119 105.662 241.119 104.258ZM246.116 104.258C246.116 105.266 246.296 106.121 246.656 106.824C247.034 107.526 247.556 108.057 248.222 108.417C248.889 108.777 249.654 108.957 250.518 108.957C251.4 108.957 252.175 108.777 252.841 108.417C253.507 108.057 254.029 107.526 254.407 106.824C254.786 106.103 254.975 105.239 254.975 104.231C254.975 103.222 254.786 102.367 254.407 101.665C254.029 100.962 253.507 100.431 252.841 100.071C252.175 99.711 251.4 99.5309 250.518 99.5309C249.654 99.5309 248.889 99.72 248.222 100.098C247.556 100.458 247.034 100.989 246.656 101.692C246.296 102.394 246.116 103.249 246.116 104.258Z" fill="black"/>
<path d="M226.658 113.441L220.635 95.0471H225.658L230.439 110.119H228.116L232.924 95.0471H237.813L231.79 113.441H226.658Z" fill="black"/>
<path d="M206.765 106.58V101.908H214.436V106.58H206.765ZM206.684 99.7198L208.656 97.559V111.28L206.549 108.768H215.868V113.441H203.767V95.0471H215.868V99.7198H206.684Z" fill="black"/>
<path d="M184.187 113.441V95.0471H190.993C192.344 95.0471 193.568 95.3082 194.666 95.8304C195.783 96.3346 196.665 97.0909 197.313 98.0992C197.98 99.0896 198.313 100.323 198.313 101.8C198.313 103.276 197.98 104.519 197.313 105.527C196.665 106.517 195.783 107.264 194.666 107.769C193.568 108.273 192.344 108.525 190.993 108.525H187.914V103.771H190.831C191.659 103.771 192.281 103.609 192.695 103.285C193.127 102.961 193.343 102.466 193.343 101.8C193.343 101.151 193.127 100.656 192.695 100.314C192.281 99.9719 191.659 99.8008 190.831 99.8008H187.887L189.075 98.7474V113.441H184.187ZM193.154 113.441L189.535 106.094H194.883L198.502 113.441H193.154Z" fill="black"/>
<path d="M454.821 81.0291H443.207V62.6355H448.095V78.5712L446.583 76.2754H454.821V81.0291Z" fill="black"/>
<path d="M425.368 73.7635H433.066V78.2741H425.368V73.7635ZM420.912 81.0291L427.421 62.6355H432.31L438.225 81.0291H433.309L428.907 65.9577H430.851L425.801 81.0291H420.912Z" fill="black"/>
<path d="M415.923 81.0291H411.034V62.6355H415.923V81.0291Z" fill="black"/>
<path d="M391.453 81.0291V62.6355H398.259C399.61 62.6355 400.834 62.8966 401.933 63.4188C403.049 63.923 403.931 64.6792 404.58 65.6876C405.246 66.6779 405.579 67.9114 405.579 69.3879C405.579 70.8644 405.246 72.1069 404.58 73.1153C403.931 74.1056 403.049 74.8529 401.933 75.3571C400.834 75.8612 399.61 76.1133 398.259 76.1133H395.18V71.3596H398.097C398.926 71.3596 399.547 71.1976 399.961 70.8735C400.393 70.5493 400.609 70.0542 400.609 69.3879C400.609 68.7397 400.393 68.2445 399.961 67.9024C399.547 67.5603 398.926 67.3892 398.097 67.3892H395.153L396.342 66.3358V81.0291H391.453ZM400.42 81.0291L396.801 73.6825H402.149L405.768 81.0291H400.42Z" fill="black"/>
<path d="M376.168 81.0291V64.3641H381.111V81.0291H376.168ZM370.955 67.3892V62.6355H386.297V67.3892H370.955Z" fill="black"/>
<path d="M359.231 81.5154C358.078 81.5154 357.025 81.3533 356.07 81.0292C355.134 80.6871 354.297 80.2009 353.559 79.5707C352.838 78.9404 352.235 78.1752 351.749 77.2748L355.422 74.871C355.89 75.5372 356.494 76.0774 357.232 76.4916C357.988 76.8877 358.753 77.0858 359.528 77.0858C360.122 77.0858 360.563 76.9687 360.851 76.7346C361.157 76.5006 361.31 76.2125 361.31 75.8703C361.31 75.6362 361.238 75.4292 361.094 75.2491C360.968 75.069 360.707 74.898 360.311 74.7359C359.915 74.5559 359.339 74.3848 358.582 74.2227C356.998 73.8626 355.737 73.4125 354.801 72.8723C353.865 72.3141 353.198 71.6478 352.802 70.8735C352.406 70.0813 352.208 69.1809 352.208 68.1726C352.208 67.0562 352.496 66.0478 353.072 65.1475C353.649 64.2292 354.468 63.4999 355.53 62.9597C356.611 62.4195 357.889 62.1494 359.366 62.1494C361.022 62.1494 362.436 62.4825 363.606 63.1488C364.777 63.797 365.677 64.6343 366.307 65.6607L362.634 68.3076C362.22 67.7494 361.661 67.3533 360.959 67.1192C360.275 66.8671 359.618 66.7411 358.987 66.7411C358.429 66.7411 357.979 66.8491 357.637 67.0652C357.313 67.2632 357.151 67.5423 357.151 67.9025C357.151 68.2626 357.331 68.5507 357.691 68.7668C358.069 68.9829 358.807 69.2169 359.906 69.469C361.418 69.8112 362.652 70.2523 363.606 70.7925C364.578 71.3147 365.29 71.9719 365.74 72.7642C366.208 73.5385 366.442 74.4928 366.442 75.6272C366.442 76.7617 366.154 77.779 365.578 78.6793C365.002 79.5617 364.173 80.2549 363.093 80.7591C362.013 81.2633 360.725 81.5154 359.231 81.5154Z" fill="black"/>
<path d="M338.667 81.4072C336.884 81.4072 335.417 81.0921 334.265 80.4619C333.13 79.8137 332.284 78.8593 331.726 77.5989C331.185 76.3204 330.915 74.7358 330.915 72.8452V62.6355H335.831V73.3043C335.831 74.3487 336.065 75.168 336.533 75.7622C337.002 76.3384 337.713 76.6265 338.667 76.6265C339.621 76.6265 340.333 76.3384 340.801 75.7622C341.269 75.168 341.503 74.3487 341.503 73.3043V62.6355H346.419V72.8452C346.419 74.7358 346.14 76.3204 345.582 77.5989C345.041 78.8593 344.204 79.8137 343.07 80.4619C341.935 81.0921 340.468 81.4072 338.667 81.4072Z" fill="black"/>
<path d="M309.833 81.0291V62.6355H316.558C318.557 62.6355 320.24 63.0046 321.609 63.7429C322.995 64.4632 324.049 65.5075 324.769 66.876C325.489 68.2445 325.849 69.8921 325.849 71.8188C325.849 73.7455 325.489 75.4021 324.769 76.7886C324.049 78.1571 322.995 79.2104 321.609 79.9487C320.222 80.669 318.53 81.0291 316.531 81.0291H309.833ZM314.721 78.4362L312.588 76.2754H316.153C317.161 76.2754 318.007 76.1313 318.692 75.8432C319.394 75.5371 319.925 75.06 320.285 74.4117C320.663 73.7455 320.852 72.8812 320.852 71.8188C320.852 70.7564 320.672 69.9011 320.312 69.2529C319.952 68.6046 319.421 68.1365 318.719 67.8484C318.034 67.5423 317.188 67.3892 316.18 67.3892H312.398L314.721 66.1197V78.4362Z" fill="black"/>
<path d="M299.283 81.0291L290.613 68.7667L292.449 68.2805V81.0291H287.561V62.6355H292.125L300.768 74.8979L298.932 75.3841V62.6355H303.848V81.0291H299.283Z" fill="black"/>
<path d="M281.573 81.0291H276.684V62.6355H281.573V81.0291Z" fill="black"/>
<path d="M246.306 81.0291V62.6355H253.112C254.463 62.6355 255.687 62.8966 256.785 63.4188C257.902 63.923 258.784 64.6792 259.432 65.6876C260.099 66.6779 260.432 67.9114 260.432 69.3879C260.432 70.8644 260.099 72.1069 259.432 73.1153C258.784 74.1056 257.902 74.8529 256.785 75.3571C255.687 75.8612 254.463 76.1133 253.112 76.1133H250.033V71.3596H252.95C253.778 71.3596 254.4 71.1976 254.814 70.8735C255.246 70.5493 255.462 70.0542 255.462 69.3879C255.462 68.7397 255.246 68.2445 254.814 67.9024C254.4 67.5603 253.778 67.3892 252.95 67.3892H250.006L251.194 66.3358V81.0291H246.306ZM255.273 81.0291L251.654 73.6825H257.002L260.621 81.0291H255.273Z" fill="black"/>
<path d="M232.603 81.4072C230.82 81.4072 229.353 81.0921 228.2 80.4619C227.066 79.8137 226.219 78.8593 225.661 77.5989C225.121 76.3204 224.851 74.7358 224.851 72.8452V62.6355H229.767V73.3043C229.767 74.3487 230.001 75.168 230.469 75.7622C230.937 76.3384 231.648 76.6265 232.603 76.6265C233.557 76.6265 234.268 76.3384 234.736 75.7622C235.205 75.168 235.439 74.3487 235.439 73.3043V62.6355H240.354V72.8452C240.354 74.7358 240.075 76.3204 239.517 77.5989C238.977 78.8593 238.14 79.8137 237.005 80.4619C235.871 81.0921 234.403 81.4072 232.603 81.4072Z" fill="black"/>
<path d="M200.954 71.846C200.954 70.4415 201.179 69.154 201.63 67.9836C202.08 66.8132 202.719 65.8048 203.547 64.9585C204.376 64.0942 205.366 63.428 206.518 62.9598C207.671 62.4917 208.949 62.2576 210.354 62.2576C211.758 62.2576 213.037 62.4917 214.189 62.9598C215.36 63.428 216.359 64.0942 217.187 64.9585C218.033 65.8048 218.682 66.8132 219.132 67.9836C219.582 69.154 219.807 70.4415 219.807 71.846C219.807 73.2505 219.582 74.538 219.132 75.7084C218.682 76.8788 218.033 77.8962 217.187 78.7605C216.359 79.6068 215.36 80.264 214.189 80.7322C213.037 81.1824 211.758 81.4074 210.354 81.4074C208.949 81.4074 207.671 81.1824 206.518 80.7322C205.366 80.264 204.376 79.6068 203.547 78.7605C202.719 77.8962 202.08 76.8788 201.63 75.7084C201.179 74.538 200.954 73.2505 200.954 71.846ZM205.951 71.846C205.951 72.8544 206.131 73.7097 206.491 74.4119C206.869 75.1142 207.392 75.6454 208.058 76.0055C208.724 76.3656 209.489 76.5457 210.354 76.5457C211.236 76.5457 212.01 76.3656 212.677 76.0055C213.343 75.6454 213.865 75.1142 214.243 74.4119C214.621 73.6917 214.81 72.8274 214.81 71.819C214.81 70.8106 214.621 69.9553 214.243 69.2531C213.865 68.5508 213.343 68.0196 212.677 67.6595C212.01 67.2994 211.236 67.1193 210.354 67.1193C209.489 67.1193 208.724 67.3084 208.058 67.6865C207.392 68.0466 206.869 68.5778 206.491 69.2801C206.131 69.9823 205.951 70.8376 205.951 71.846Z" fill="black"/>
<path d="M187.428 74.8439V70.0902H195.099V74.8439H187.428ZM189.075 81.0291H184.187V62.6355H196.287V67.3892H187.104L189.075 65.1474V81.0291Z" fill="black"/>
</svg>
