<svg width="124" height="22" viewBox="0 0 124 22" fill="none" xmlns="http://www.w3.org/2000/svg">
<path d="M7.94357 10.7456C7.38249 11.4454 6.87571 12.1452 6.42927 12.833C6.35687 12.9416 6.29051 13.0502 6.22414 13.1527C6.15778 13.2553 6.09745 13.3579 6.03108 13.4604C6.00092 13.5087 5.97679 13.557 5.94662 13.5992C5.92249 13.6354 5.89836 13.6776 5.87423 13.7138C5.83803 13.7681 5.80786 13.8285 5.77166 13.8827C5.69927 14.0094 5.62687 14.1422 5.55447 14.2689C4.48662 13.0743 3.55753 11.8677 2.79736 10.6973C3.59976 9.53291 4.56505 8.33836 5.65704 7.17398C5.6691 7.19208 5.67513 7.21621 5.6872 7.23431C5.71133 7.28258 5.7415 7.33687 5.76563 7.39117C5.79579 7.4515 5.83199 7.51183 5.86216 7.57216C5.88629 7.62043 5.91646 7.66869 5.94059 7.71696C6.01298 7.84968 6.09142 7.98241 6.16985 8.11514C6.19398 8.1634 6.22414 8.21167 6.25431 8.2539L6.26034 8.25993C6.27844 8.2901 6.29654 8.32026 6.31464 8.35043C6.33877 8.39266 6.36894 8.44092 6.39307 8.48316C6.42927 8.54349 6.46547 8.60382 6.5077 8.66415C6.5439 8.72448 6.58613 8.79084 6.62233 8.85117C6.65852 8.9115 6.70076 8.97787 6.74299 9.0382C6.74299 9.0382 6.74299 9.0382 6.74299 9.04423C6.81538 9.15886 6.88778 9.26745 6.96621 9.38208C7.02051 9.46051 7.06877 9.53894 7.12307 9.61134C7.2015 9.71993 7.27993 9.83456 7.35836 9.94919C7.36439 9.96126 7.37646 9.97332 7.38249 9.97936C7.42472 10.0337 7.46695 10.094 7.50315 10.1543C7.51522 10.1664 7.52125 10.1845 7.53332 10.1965C7.57555 10.2508 7.61175 10.3051 7.65398 10.3594C7.69018 10.4137 7.73241 10.468 7.76861 10.5163C7.78067 10.5284 7.78671 10.5465 7.79877 10.5585C7.841 10.6189 7.88927 10.6792 7.93753 10.7395C7.94357 10.7395 7.94357 10.7456 7.94357 10.7456Z" fill="black"/>
<path d="M15.4909 3.88598C15.4547 3.90408 15.4246 3.92821 15.3884 3.95234C15.3341 3.98854 15.2798 4.01871 15.2315 4.05491C15.1893 4.07904 15.147 4.1092 15.1048 4.13937C15.0746 4.1635 15.0384 4.1816 15.0083 4.20573C14.9118 4.2721 14.8152 4.33243 14.7187 4.39879C14.6765 4.42895 14.6282 4.45912 14.586 4.48929C14.4351 4.59185 14.2843 4.70044 14.1335 4.80904C14.1033 4.83317 14.0671 4.8573 14.037 4.88143C13.7594 5.08656 13.4819 5.29772 13.2044 5.51491C13.1622 5.54507 13.1199 5.58127 13.0837 5.61144C13.0113 5.66573 12.945 5.72003 12.8726 5.78036C12.8243 5.82259 12.77 5.86483 12.7218 5.90102C12.6735 5.93722 12.6252 5.97945 12.577 6.02168C12.5046 6.08202 12.4322 6.14235 12.3598 6.20268C11.31 5.30978 10.2542 4.53755 9.22861 3.88598C10.2904 3.04738 11.3462 2.32945 12.3598 1.75027C13.3794 2.32945 14.4291 3.04738 15.4909 3.88598Z" fill="black"/>
<path d="M15.4487 17.8224C14.411 18.673 13.3673 19.403 12.3598 20.0063C11.3523 19.403 10.3146 18.667 9.27084 17.8224C9.34927 17.7681 9.4277 17.7198 9.50613 17.6655C9.54233 17.6414 9.58456 17.6112 9.62076 17.5871C9.77159 17.4845 9.92845 17.3759 10.0793 17.2613C10.1939 17.1829 10.3025 17.0984 10.4171 17.014C10.4956 16.9536 10.574 16.8993 10.6524 16.839C10.7007 16.8028 10.7489 16.7666 10.7972 16.7304C10.8032 16.7244 10.8093 16.7244 10.8153 16.7183C10.8636 16.6821 10.9118 16.6399 10.9661 16.6037C11.0989 16.5011 11.2256 16.3986 11.3583 16.296C11.4065 16.2538 11.4608 16.2116 11.5091 16.1754C11.5453 16.1452 11.5815 16.115 11.6177 16.0849C11.666 16.0487 11.7142 16.0064 11.7625 15.9642C11.9616 15.7953 12.1607 15.6263 12.3598 15.4514C12.5589 15.6263 12.758 15.7953 12.957 15.9642C13.0053 16.0064 13.0536 16.0426 13.1018 16.0849C13.138 16.115 13.1742 16.1452 13.2104 16.1754C13.2587 16.2176 13.313 16.2598 13.3613 16.296C13.494 16.4046 13.6207 16.5072 13.7534 16.6037C13.8017 16.6399 13.8499 16.6821 13.9042 16.7183C13.9103 16.7244 13.9163 16.7244 13.9223 16.7304C13.9706 16.7666 14.0189 16.8028 14.0671 16.839C14.1456 16.8993 14.224 16.9597 14.3024 17.014C14.417 17.0984 14.5256 17.1829 14.6403 17.2613C14.7911 17.3699 14.948 17.4785 15.0988 17.5871C15.135 17.6112 15.1772 17.6414 15.2134 17.6655C15.2918 17.7198 15.3703 17.7741 15.4487 17.8224Z" fill="black"/>
<path d="M21.9222 10.7033C21.162 11.8737 20.2389 13.0864 19.1651 14.2749C18.5376 13.1346 17.7292 11.9401 16.776 10.7456L16.782 10.7395C16.8303 10.6792 16.8725 10.6189 16.9208 10.5585C16.9328 10.5465 16.9389 10.5284 16.9509 10.5163C16.9932 10.462 17.0294 10.4077 17.0656 10.3594C17.1078 10.3051 17.144 10.2508 17.1862 10.1965C17.1983 10.1845 17.2043 10.1664 17.2164 10.1543C17.2586 10.094 17.3008 10.0397 17.337 9.97936C17.3431 9.96729 17.3551 9.95522 17.3612 9.94919C17.4396 9.83456 17.518 9.72597 17.5965 9.61134C17.6508 9.53291 17.699 9.45448 17.7533 9.38208C17.8318 9.26745 17.9042 9.15886 17.9765 9.04423C17.9765 9.04423 17.9765 9.04423 17.9765 9.0382C18.0188 8.97787 18.055 8.9115 18.0972 8.85117C18.1394 8.79084 18.1756 8.72448 18.2118 8.66415C18.248 8.60382 18.2842 8.54349 18.3265 8.48316C18.3506 8.44092 18.3808 8.39266 18.4049 8.35043C18.423 8.32026 18.4411 8.2901 18.4592 8.25993L18.4652 8.2539C18.4954 8.20564 18.5195 8.15737 18.5497 8.11514C18.6281 7.98241 18.7005 7.84968 18.7789 7.71696C18.8031 7.66869 18.8332 7.62043 18.8574 7.57216C18.8875 7.51183 18.9237 7.4515 18.9539 7.39117C18.9841 7.33687 19.0082 7.28861 19.0323 7.23431C19.0444 7.21621 19.0504 7.19208 19.0625 7.17398C20.1545 8.34439 21.1198 9.53291 21.9222 10.7033Z" fill="black"/>
<path d="M9.27686 17.8224C8.96918 18.0275 8.66149 18.2206 8.35984 18.4015C8.3176 18.4257 8.26934 18.4558 8.22711 18.48C8.17281 18.5162 8.11248 18.5463 8.05215 18.5825C8.00388 18.6127 7.95562 18.6368 7.90736 18.667C7.84099 18.7032 7.77463 18.7394 7.70827 18.7756C7.65397 18.8058 7.59364 18.8359 7.53934 18.8661C7.51521 18.8782 7.48504 18.8963 7.46091 18.9083C7.42471 18.9264 7.39454 18.9445 7.35835 18.9626C7.18339 19.0531 7.01446 19.1376 6.84554 19.222C6.74297 19.2703 6.64041 19.3186 6.53785 19.3668C6.49562 19.3849 6.45339 19.4091 6.40512 19.4272C6.33876 19.4573 6.2724 19.4875 6.20603 19.5116C6.1638 19.5297 6.12157 19.5478 6.07934 19.5659C5.69322 19.7288 5.31917 19.8676 4.95719 19.9822C4.90892 20.0003 4.86066 20.0124 4.81239 20.0244C4.7762 20.0365 4.74603 20.0425 4.70983 20.0546C4.6857 20.0606 4.66157 20.0667 4.63744 20.0727C4.5952 20.0848 4.55297 20.0968 4.51074 20.1089C4.47454 20.121 4.43231 20.127 4.39611 20.1391C4.28752 20.1692 4.18496 20.1934 4.07636 20.2115C3.9919 19.9038 3.94363 19.5599 3.94363 19.1919C3.94363 19.1496 3.94363 19.1074 3.94363 19.0712C3.94363 19.0652 3.94363 19.0591 3.94363 19.0531C3.94363 19.0169 3.94363 18.9807 3.94967 18.9445C3.94967 18.8963 3.9557 18.854 3.9557 18.8058C3.9557 18.7877 3.9557 18.7756 3.96173 18.7575C3.96777 18.7213 3.96777 18.6851 3.9738 18.6429C3.97983 18.6127 3.97983 18.5765 3.98586 18.5463V18.5403C3.98586 18.5222 3.9919 18.4981 3.9919 18.48C3.99793 18.4438 4.00396 18.4015 4.01 18.3653C4.01603 18.3412 4.01603 18.3171 4.02206 18.2929C4.02206 18.2748 4.0281 18.2628 4.0281 18.2447C4.03413 18.2205 4.03413 18.1964 4.04016 18.1783C4.04619 18.1542 4.05223 18.124 4.05223 18.0939C4.05826 18.0637 4.06429 18.0335 4.07033 18.0034V17.9973C4.07033 17.9853 4.07636 17.9732 4.07636 17.9611C4.07636 17.9611 4.07636 17.9611 4.07636 17.9551C4.08239 17.9249 4.08843 17.9008 4.09446 17.8706C4.11859 17.756 4.14876 17.6414 4.17892 17.5207C4.19099 17.4845 4.19702 17.4423 4.20909 17.4061C4.21512 17.388 4.22115 17.3699 4.22115 17.3518C4.22719 17.3277 4.23322 17.3035 4.24529 17.2734C4.25132 17.2432 4.26339 17.213 4.26942 17.1829C4.27545 17.1587 4.28148 17.1346 4.29355 17.1105C4.29958 17.0803 4.31165 17.0562 4.31768 17.026C4.32372 17.0019 4.33578 16.9777 4.34181 16.9536C4.45644 16.5977 4.58917 16.2357 4.75206 15.8616C4.76413 15.8375 4.77016 15.8134 4.78223 15.7892C4.7943 15.7591 4.81239 15.7229 4.82446 15.6927C4.83653 15.6686 4.84256 15.6444 4.85463 15.6263C4.87272 15.5781 4.89686 15.5298 4.92099 15.4815C4.94512 15.4272 4.96925 15.379 4.99339 15.3247C5.10801 15.0834 5.22868 14.842 5.35537 14.5947C5.3795 14.5464 5.40363 14.5042 5.42777 14.4559C5.4338 14.4499 5.43983 14.4378 5.43983 14.4258C5.45793 14.3956 5.47 14.3654 5.4881 14.3353C5.5062 14.3051 5.51826 14.281 5.53636 14.2508C5.93454 14.6912 6.35082 15.1377 6.78521 15.572C7.61777 16.4046 8.4443 17.1467 9.27686 17.8224Z" fill="black"/>
<path d="M16.776 10.7395C16.7277 10.7999 16.6794 10.8602 16.6372 10.9205C16.595 10.9748 16.5527 11.0291 16.5105 11.0834C16.4019 11.2222 16.2873 11.367 16.1727 11.5057C16.1425 11.5419 16.1123 11.5842 16.0761 11.6204C16.0098 11.7048 15.9374 11.7893 15.865 11.8677C15.8288 11.916 15.7865 11.9582 15.7443 12.0065C15.7081 12.0487 15.6719 12.097 15.6297 12.1392C15.6237 12.1452 15.6237 12.1452 15.6176 12.1513C15.5754 12.1995 15.5332 12.2538 15.4849 12.3021C15.4487 12.3383 15.4185 12.3805 15.3823 12.4167C15.3341 12.471 15.2858 12.5253 15.2375 12.5796C15.2013 12.6219 15.1591 12.6641 15.1229 12.7063C14.7489 13.1226 14.3567 13.5328 13.9465 13.9431C13.868 14.0215 13.7956 14.0939 13.7172 14.1663C13.6689 14.2146 13.6207 14.2628 13.5724 14.3051C13.494 14.3775 13.4216 14.4499 13.3432 14.5223C13.2768 14.5826 13.2165 14.6429 13.1501 14.7033C13.0053 14.836 12.8665 14.9687 12.7218 15.0954C12.6735 15.1376 12.6252 15.1799 12.577 15.2221C12.4985 15.2885 12.4261 15.3609 12.3477 15.4272C12.2693 15.3609 12.1969 15.2945 12.1184 15.2221C12.0702 15.1799 12.0219 15.1376 11.9737 15.0954C11.8289 14.9687 11.6901 14.836 11.5453 14.7033C11.4789 14.6429 11.4186 14.5826 11.3522 14.5223C11.2738 14.4499 11.2014 14.3775 11.123 14.3051C11.0747 14.2568 11.0265 14.2146 10.9782 14.1663C10.8998 14.0939 10.8274 14.0155 10.7489 13.9431C10.3387 13.5328 9.94654 13.1226 9.57249 12.7063C9.53026 12.6641 9.49406 12.6219 9.45786 12.5796C9.4096 12.5253 9.36134 12.471 9.31307 12.4167C9.27687 12.3805 9.24671 12.3383 9.21051 12.3021C9.16828 12.2538 9.12001 12.1995 9.07778 12.1513C9.07175 12.1452 9.07175 12.1452 9.06572 12.1392C9.02952 12.097 8.98729 12.0487 8.95109 12.0065C8.90886 11.9582 8.87266 11.916 8.83043 11.8677C8.75803 11.7833 8.69167 11.6988 8.61927 11.6204C8.5891 11.5842 8.55894 11.5419 8.52274 11.5057C8.40811 11.3609 8.29348 11.2222 8.18489 11.0834C8.14266 11.0291 8.10042 10.9748 8.05819 10.9205C8.00993 10.8602 7.96167 10.7999 7.91943 10.7395C7.96167 10.6852 8.00993 10.6249 8.05819 10.5706C8.09439 10.5284 8.13059 10.4801 8.16679 10.4379C8.22712 10.3655 8.28745 10.2871 8.35381 10.2147C8.39604 10.1664 8.43828 10.1121 8.48051 10.0638C8.50464 10.0337 8.52877 10.0095 8.55291 9.97937C8.57704 9.94921 8.60117 9.92508 8.6253 9.89491C8.67357 9.84061 8.72183 9.78028 8.7701 9.72599C9.09588 9.35194 9.43373 8.97789 9.78968 8.60987C9.85001 8.54954 9.91034 8.48318 9.97068 8.42284C10.0913 8.29615 10.218 8.17549 10.3387 8.04879C10.393 7.9945 10.4473 7.9402 10.5016 7.89194C10.5438 7.8497 10.586 7.80747 10.6283 7.76524C10.7489 7.65061 10.8636 7.53598 10.9842 7.42136C11.0385 7.37309 11.0928 7.31879 11.1471 7.27053C11.2557 7.16797 11.3643 7.07144 11.4729 6.96888C11.5513 6.89648 11.6298 6.82408 11.7142 6.75169C11.7565 6.71549 11.7987 6.67929 11.8409 6.64309C11.9254 6.57069 12.0098 6.4983 12.0943 6.4259C12.1788 6.3535 12.2632 6.28111 12.3477 6.20871C13.0174 6.77582 13.687 7.39119 14.3446 8.04879C15.2436 8.92962 16.052 9.83458 16.776 10.7395Z" fill="black"/>
<path d="M20.3596 2.95689C20.3596 2.98706 20.3596 3.01723 20.3536 3.05342C20.3536 3.06549 20.3536 3.07756 20.3536 3.08962C20.3536 3.11979 20.3476 3.15599 20.3476 3.18615C20.3476 3.19822 20.3476 3.21028 20.3476 3.22235C20.3476 3.25251 20.3415 3.27665 20.3415 3.30681C20.3415 3.32491 20.3415 3.33698 20.3355 3.35508C20.3355 3.38524 20.3295 3.40937 20.3234 3.43954C20.3234 3.46367 20.3174 3.48177 20.3174 3.5059C20.2933 3.69896 20.2571 3.89805 20.2148 4.10318C20.2088 4.12731 20.2028 4.15144 20.1967 4.17557C20.1907 4.20574 20.1847 4.22987 20.1786 4.26004C20.1726 4.30227 20.1605 4.33847 20.1485 4.3807C20.1424 4.41086 20.1364 4.44103 20.1243 4.47119C20.1183 4.49533 20.1123 4.52549 20.1062 4.54962C20.0821 4.64012 20.058 4.73062 20.0278 4.82111C20.0157 4.85731 20.0037 4.89351 19.9916 4.93574C19.9795 4.97194 19.9735 5.00814 19.9614 5.0383C19.9554 5.06847 19.9433 5.09863 19.9313 5.1288C19.9252 5.15896 19.9132 5.18309 19.9011 5.21326C19.8951 5.23136 19.889 5.24946 19.883 5.26153C19.8709 5.29169 19.8649 5.32186 19.8528 5.35202C19.8468 5.37615 19.8347 5.40029 19.8287 5.42442C19.8166 5.45458 19.8046 5.49078 19.7925 5.52095C19.7744 5.56921 19.7563 5.61748 19.7382 5.66574C19.6839 5.81053 19.6236 5.96136 19.5572 6.11219C19.5452 6.14235 19.5331 6.17252 19.521 6.20268C19.5029 6.24492 19.4848 6.28715 19.4667 6.32335C19.4486 6.35954 19.4305 6.40177 19.4124 6.43797C19.3943 6.47417 19.3762 6.5164 19.3581 6.5526C19.328 6.61896 19.2978 6.68533 19.2616 6.75169C19.2435 6.78789 19.2254 6.82409 19.2133 6.86029C19.1651 6.96285 19.1108 7.06541 19.0625 7.16797C18.8212 6.91459 18.5738 6.65516 18.3204 6.40177C17.3914 5.47268 16.4381 4.62805 15.4909 3.87995C15.5452 3.84376 15.5995 3.81359 15.6538 3.77739C15.69 3.75326 15.7262 3.73516 15.7624 3.71103C15.8348 3.6688 15.9012 3.62656 15.9736 3.58433C15.9977 3.56623 16.0279 3.55417 16.052 3.53607C16.1304 3.4878 16.2089 3.43954 16.2873 3.39731C16.3416 3.36714 16.3899 3.33698 16.4442 3.30681C16.4985 3.27665 16.5467 3.24648 16.601 3.21632C16.6312 3.19822 16.6674 3.18012 16.6975 3.16202C16.8363 3.08962 16.969 3.01723 17.1078 2.94483C17.1561 2.9207 17.2104 2.89053 17.2586 2.8664C17.3491 2.81813 17.4396 2.7759 17.5361 2.73367C17.5723 2.71557 17.6025 2.70351 17.6387 2.68541C17.7654 2.62508 17.8861 2.57078 18.0128 2.51648C18.061 2.49235 18.1093 2.47425 18.1575 2.45012C18.2058 2.43202 18.2541 2.40789 18.3023 2.38979C18.3506 2.37169 18.3989 2.34756 18.4471 2.32946C18.4954 2.31136 18.5437 2.29326 18.5919 2.27516C18.7367 2.22086 18.8755 2.16656 19.0203 2.1183C19.0685 2.1002 19.1108 2.08813 19.159 2.07004C19.2375 2.0459 19.3099 2.02177 19.3883 1.99764C19.4004 1.99161 19.4124 1.9916 19.4245 1.98557C19.4426 1.97954 19.4667 1.97351 19.4848 1.96747C19.5934 1.93731 19.696 1.90714 19.7985 1.87698C19.8227 1.87094 19.8528 1.86491 19.877 1.85888C19.9071 1.85285 19.9433 1.84078 19.9735 1.83474C20.0157 1.82268 20.058 1.81665 20.1002 1.80458C20.1424 1.79251 20.1847 1.78648 20.2269 1.77441C20.3295 2.13036 20.3717 2.52855 20.3596 2.95689Z" fill="black"/>
<path d="M9.23464 3.886C8.28745 4.6341 7.33423 5.47873 6.40514 6.40783C6.15175 6.66121 5.90439 6.9146 5.66307 7.17402C5.60877 7.07146 5.56051 6.9689 5.51225 6.86634C5.49415 6.83014 5.47605 6.79394 5.46398 6.75774C5.43381 6.69138 5.40365 6.62502 5.36745 6.55865C5.34935 6.52245 5.33125 6.48022 5.31315 6.44402C5.29505 6.40783 5.27696 6.36559 5.25886 6.3294C5.24076 6.28716 5.22266 6.24493 5.20456 6.20873C5.19249 6.17857 5.18043 6.1484 5.16836 6.11824C5.102 5.96741 5.0477 5.82262 4.98737 5.67179C4.96927 5.62353 4.95117 5.57526 4.93307 5.527C4.92101 5.49683 4.90894 5.46063 4.89687 5.43047C4.88481 5.40634 4.87877 5.38221 4.87274 5.35807C4.86067 5.32791 4.84861 5.29774 4.84258 5.26758C4.83654 5.24948 4.83051 5.23138 4.82448 5.21931C4.81241 5.18915 4.80638 5.16501 4.79431 5.13485C4.78224 5.10468 4.77621 5.07452 4.76414 5.04435C4.75208 5.00816 4.74001 4.97196 4.73398 4.94179C4.72191 4.90559 4.70985 4.86336 4.69778 4.82716C4.66762 4.73667 4.64348 4.64617 4.61935 4.55567C4.61332 4.53154 4.60729 4.50138 4.60125 4.47725C4.59522 4.44708 4.58315 4.41692 4.57712 4.38675C4.56505 4.34452 4.55902 4.30832 4.54696 4.26609C4.54092 4.23592 4.53489 4.21179 4.52886 4.18163C4.52282 4.15749 4.51679 4.13336 4.51076 4.10923C4.46853 3.9041 4.43233 3.70501 4.40819 3.51196C4.40216 3.48782 4.40216 3.46972 4.40216 3.44559C4.39613 3.41543 4.39613 3.39129 4.3901 3.36113C4.3901 3.34303 4.38406 3.33096 4.38406 3.31286C4.37803 3.2827 4.37803 3.25857 4.37803 3.2284C4.37803 3.21633 4.37803 3.20427 4.37803 3.1922C4.37803 3.16204 4.372 3.12584 4.372 3.09567C4.372 3.08361 4.372 3.07154 4.372 3.05948C4.372 3.02931 4.36596 2.99311 4.36596 2.96295C4.3539 2.5346 4.39613 2.13642 4.49266 1.7865C5.88026 2.07609 7.51522 2.80005 9.23464 3.886Z" fill="black"/>
<path d="M20.6371 20.2115C20.5346 20.1873 20.426 20.1632 20.3174 20.1391C20.2812 20.133 20.245 20.121 20.2028 20.1089C20.1605 20.0968 20.1183 20.0848 20.0761 20.0727C20.0519 20.0667 20.0278 20.0606 20.0037 20.0546C19.9675 20.0425 19.9373 20.0365 19.9011 20.0244C19.8528 20.0124 19.8046 19.9943 19.7563 19.9822C19.3943 19.8676 19.0203 19.7288 18.6342 19.5659C18.5919 19.5478 18.5497 19.5297 18.5075 19.5116C18.4411 19.4815 18.3747 19.4573 18.3084 19.4272C18.2662 19.4091 18.2239 19.3849 18.1757 19.3668C18.0731 19.3186 17.9705 19.2703 17.868 19.222C17.699 19.1376 17.5301 19.0531 17.3552 18.9626C17.319 18.9445 17.2888 18.9264 17.2526 18.9083C17.2285 18.8962 17.1983 18.8781 17.1742 18.8661C17.1199 18.8359 17.0595 18.8058 17.0052 18.7756C16.9389 18.7394 16.8725 18.7032 16.8061 18.667C16.7579 18.6368 16.7096 18.6127 16.6614 18.5825C16.6071 18.5524 16.5467 18.5162 16.4864 18.48C16.4442 18.4558 16.3959 18.4257 16.3537 18.4015C16.052 18.2205 15.7443 18.0275 15.4366 17.8224C16.2632 17.1467 17.0957 16.3986 17.9042 15.5901C18.3385 15.1558 18.7548 14.7153 19.153 14.2689C20.4803 16.6459 21.0414 18.7816 20.6371 20.2115Z" fill="black"/>
<path d="M5.55447 14.2688C4.23926 16.6458 3.68422 18.7876 4.08844 20.2174C2.63447 20.5251 1.44595 20.3562 0.72802 19.6382C-0.792312 18.1179 0.148846 14.5463 2.80339 10.7033C3.55753 11.8737 4.48662 13.0803 5.55447 14.2688Z" fill="#FC1693"/>
<path d="M20.2329 1.78038C18.8453 2.076 17.2103 2.79996 15.4909 3.88592C14.4291 3.04732 13.3733 2.32939 12.3598 1.75021C15.5392 -0.0717743 18.3325 -0.572518 19.6296 0.730624C19.9132 1.01418 20.1122 1.37013 20.2329 1.78038Z" fill="#FC1693"/>
<path d="M12.3598 1.75022C11.3462 2.3294 10.2904 3.04733 9.22862 3.88593C7.5092 2.79998 5.87424 2.07601 4.48663 1.78039C4.60126 1.36411 4.80035 1.01419 5.08391 0.730636C6.38705 -0.566473 9.18036 -0.071762 12.3598 1.75022Z" fill="#FC1693"/>
<path d="M18.3204 6.40775C18.5738 6.66114 18.8212 6.91452 19.0625 7.17394C19.0504 7.19204 19.0444 7.21618 19.0323 7.23428C19.0082 7.28254 18.978 7.33684 18.9539 7.39114C18.9237 7.45147 18.8875 7.5118 18.8574 7.57213C18.8332 7.62039 18.8031 7.66866 18.7789 7.71692C18.7367 7.78932 18.7005 7.86171 18.6583 7.93411C18.6221 7.99444 18.5919 8.05477 18.5557 8.1151C18.5316 8.16337 18.5014 8.21163 18.4713 8.25386L18.4652 8.2599C18.4471 8.29006 18.429 8.32023 18.4109 8.35039C18.3868 8.39262 18.3566 8.44089 18.3325 8.48312C18.2963 8.54345 18.2601 8.60378 18.2179 8.66411C18.1817 8.72444 18.1394 8.79081 18.1032 8.85114C18.067 8.91147 18.0248 8.97783 17.9826 9.03816C17.9826 9.03816 17.9826 9.03816 17.9826 9.04419C17.9102 9.15882 17.8378 9.26742 17.7594 9.38205C17.7051 9.46048 17.6568 9.53891 17.6025 9.6113C17.5241 9.7199 17.4456 9.83453 17.3672 9.94915C17.3612 9.96122 17.3491 9.97329 17.3431 9.97932C17.3008 10.0336 17.2586 10.0939 17.2224 10.1543C17.2103 10.1663 17.2043 10.1844 17.1922 10.1965C17.15 10.2508 17.1138 10.3051 17.0716 10.3594C17.0354 10.4137 16.9932 10.468 16.957 10.5163C16.9449 10.5283 16.9389 10.5464 16.9268 10.5585C16.8846 10.6188 16.8363 10.6792 16.788 10.7395L16.782 10.7455C16.058 9.84056 15.2496 8.9356 14.3627 8.04271C13.7051 7.3851 13.0355 6.76973 12.3658 6.20262C13.4156 5.30973 14.4713 4.5375 15.497 3.88593C16.4381 4.63403 17.3913 5.47866 18.3204 6.40775Z" fill="#FC1693"/>
<path d="M23.9975 19.6382C23.2736 20.3622 22.0911 20.5251 20.6371 20.2174C21.0413 18.7876 20.4863 16.6519 19.1711 14.2688C20.2389 13.0743 21.168 11.8676 21.9282 10.6972C24.5767 14.5463 25.5179 18.1119 23.9975 19.6382Z" fill="#FC1693"/>
<path d="M12.3598 6.20262C11.6901 6.76973 11.0204 7.3851 10.3628 8.04271C9.47598 8.92957 8.66755 9.83453 7.94358 10.7455L7.93755 10.7395C7.88929 10.6792 7.84705 10.6188 7.79879 10.5585C7.78672 10.5464 7.78069 10.5283 7.76862 10.5163C7.72639 10.462 7.6902 10.4077 7.654 10.3594C7.61177 10.3051 7.57557 10.2508 7.53334 10.1965C7.52127 10.1844 7.51524 10.1663 7.50317 10.1543C7.46094 10.0939 7.41871 10.0397 7.38251 9.97932C7.37648 9.96725 7.36441 9.95519 7.35838 9.94915C7.27995 9.83453 7.20152 9.72593 7.12309 9.6113C7.06879 9.53287 7.02052 9.45444 6.96623 9.38205C6.8878 9.26742 6.8154 9.15882 6.743 9.04419C6.743 9.04419 6.743 9.0442 6.743 9.03816C6.70077 8.97783 6.66457 8.91147 6.62234 8.85114C6.58011 8.79081 6.54391 8.72444 6.50771 8.66411C6.47152 8.60378 6.43532 8.54345 6.39309 8.48312C6.36895 8.44089 6.33879 8.39262 6.31466 8.35039C6.29656 8.32023 6.27846 8.29006 6.26036 8.2599L6.25433 8.25386C6.22416 8.2056 6.20003 8.15733 6.16986 8.1151C6.13366 8.05477 6.09747 7.99444 6.0673 7.93411C6.02507 7.86171 5.98284 7.78932 5.94664 7.71692C5.92251 7.66866 5.89234 7.62039 5.86821 7.57213C5.83804 7.5118 5.80185 7.45147 5.77168 7.39114C5.74152 7.33684 5.71738 7.28857 5.69325 7.23428C5.68119 7.21618 5.67515 7.19204 5.66309 7.17394C5.90441 6.92056 6.15176 6.66114 6.40515 6.40775C7.33424 5.47866 8.28747 4.63403 9.23466 3.88593C10.2542 4.5375 11.31 5.30973 12.3598 6.20262Z" fill="#FC1693"/>
<path d="M12.3598 20.0123C9.01142 22.0273 6.04315 22.6246 4.68571 21.2732C4.40216 20.9896 4.20307 20.6337 4.08844 20.2234C4.13067 20.2174 4.1729 20.2053 4.21513 20.1933C4.25737 20.1872 4.29356 20.1752 4.3358 20.1631C4.35993 20.1571 4.38406 20.151 4.40216 20.145C4.43836 20.139 4.47456 20.1269 4.51679 20.1148C4.55902 20.1028 4.60125 20.0907 4.64348 20.0787C4.66761 20.0726 4.69175 20.0666 4.71588 20.0606C4.75208 20.0485 4.78224 20.0425 4.81844 20.0304C4.86067 20.0183 4.9029 20.0063 4.94513 19.9882C5.31315 19.8735 5.69323 19.7348 6.07935 19.5658C6.12158 19.5477 6.16381 19.5296 6.20605 19.5115C6.27241 19.4814 6.33877 19.4572 6.40514 19.4271C6.44737 19.409 6.4896 19.3849 6.53786 19.3668C6.64043 19.3185 6.74299 19.2702 6.84555 19.222C7.01447 19.1375 7.1834 19.053 7.35836 18.9625C7.40662 18.9384 7.46092 18.9082 7.50919 18.8781C7.52729 18.866 7.54539 18.86 7.56348 18.8479C7.61175 18.8238 7.66001 18.7936 7.70828 18.7695C7.83497 18.7031 7.95563 18.6307 8.08233 18.5583C8.12456 18.5342 8.16679 18.5101 8.20902 18.4859C8.40208 18.3713 8.60117 18.2506 8.80026 18.1239C8.84249 18.0998 8.88472 18.0696 8.92696 18.0395C9.04158 17.9671 9.15621 17.8947 9.27084 17.8163C10.3146 18.6729 11.3522 19.409 12.3598 20.0123Z" fill="#188CC5"/>
<path d="M21.9222 10.6973C21.1198 9.53288 20.1545 8.33833 19.0625 7.17395C19.1168 7.07139 19.1651 6.96883 19.2133 6.86627C19.2314 6.83007 19.2495 6.79387 19.2616 6.75767C19.2918 6.69131 19.3219 6.62494 19.3581 6.55858C19.3762 6.52238 19.3943 6.48015 19.4124 6.44395C19.4305 6.40775 19.4486 6.36552 19.4667 6.32932C19.4848 6.28709 19.5029 6.24486 19.521 6.20866C19.5331 6.1785 19.5451 6.14833 19.5572 6.11817C19.6236 5.96734 19.6779 5.82255 19.7382 5.67172C19.7563 5.62345 19.7744 5.57519 19.7925 5.52693C19.8046 5.49676 19.8166 5.46056 19.8287 5.4304C19.8408 5.40626 19.8468 5.38213 19.8528 5.358C19.8649 5.32784 19.877 5.29767 19.883 5.2675C19.889 5.24941 19.8951 5.23131 19.9011 5.21924C19.9132 5.18907 19.9192 5.16494 19.9313 5.13478C19.9433 5.10461 19.9494 5.07445 19.9614 5.04428C19.9735 5.00808 19.9856 4.97188 19.9916 4.94172C20.0037 4.90552 20.0157 4.86329 20.0278 4.82709C20.058 4.73659 20.0821 4.6461 20.1062 4.5556C20.1123 4.53147 20.1183 4.50131 20.1243 4.47717C20.1304 4.44701 20.1424 4.41684 20.1485 4.38668C20.1605 4.34445 20.1666 4.30825 20.1786 4.26602C20.1846 4.23585 20.1907 4.21172 20.1967 4.18155C20.2027 4.15742 20.2088 4.13329 20.2148 4.10916C20.257 3.90403 20.2932 3.70494 20.3174 3.51188C20.3234 3.48775 20.3234 3.46965 20.3234 3.44552C20.3294 3.41535 20.3294 3.39122 20.3355 3.36106C20.3355 3.34296 20.3415 3.33089 20.3415 3.31279C20.3475 3.28263 20.3475 3.25849 20.3475 3.22833C20.3475 3.21626 20.3475 3.2042 20.3475 3.19213C20.3475 3.16196 20.3536 3.12577 20.3536 3.0956C20.3536 3.08354 20.3536 3.07147 20.3536 3.0594C20.3536 3.02924 20.3596 2.99304 20.3596 2.96287C20.3717 2.53453 20.3294 2.13634 20.2329 1.78643C21.6869 1.47874 22.8754 1.64767 23.5933 2.3656C25.0352 3.8075 24.263 7.08346 21.9222 10.6973Z" fill="#188CC5"/>
<path d="M5.66303 7.17396C4.56501 8.34437 3.60575 9.53289 2.80335 10.6973C0.462525 7.08347 -0.309706 3.80751 1.1322 2.35958C1.85616 1.63561 3.03864 1.47271 4.49261 1.7804C4.39005 2.13032 4.35385 2.5285 4.36592 2.95685C4.36592 2.98701 4.36592 3.01718 4.37195 3.05338C4.37195 3.06544 4.37195 3.07751 4.37195 3.08958C4.37195 3.11974 4.37798 3.15594 4.37798 3.18611C4.37798 3.19817 4.37798 3.21024 4.37798 3.2223C4.37798 3.25247 4.38402 3.2766 4.38402 3.30677C4.38402 3.32487 4.38402 3.33693 4.39005 3.35503C4.39005 3.3852 4.39608 3.40933 4.40212 3.43949C4.40212 3.46363 4.40815 3.48172 4.40815 3.50586C4.43228 3.69892 4.46848 3.89801 4.51071 4.10313C4.51674 4.12726 4.52278 4.1514 4.52881 4.17553C4.53484 4.20569 4.54088 4.22982 4.54691 4.25999C4.55294 4.30222 4.56501 4.33842 4.57708 4.38065C4.58311 4.41082 4.58914 4.44098 4.60121 4.47115C4.60724 4.49528 4.61327 4.52544 4.61931 4.54958C4.64344 4.64007 4.66757 4.73057 4.69774 4.82106C4.7098 4.85726 4.72187 4.89346 4.73393 4.93569C4.746 4.97189 4.75203 5.00809 4.7641 5.03826C4.77013 5.06842 4.7822 5.09859 4.79426 5.12875C4.8003 5.15892 4.81236 5.18305 4.82443 5.21321C4.83046 5.23131 4.8365 5.24941 4.84253 5.26148C4.8546 5.29164 4.86063 5.32181 4.8727 5.35198C4.87873 5.37611 4.89079 5.40024 4.89683 5.42437C4.90889 5.45454 4.92096 5.49073 4.93303 5.5209C4.95112 5.56916 4.96922 5.61743 4.98732 5.66569C5.04162 5.81049 5.10195 5.96131 5.16831 6.11214C5.18038 6.14231 5.19245 6.17247 5.20451 6.20264C5.22261 6.24487 5.24071 6.2871 5.25881 6.3233C5.27691 6.3595 5.29501 6.40173 5.31311 6.43793C5.33121 6.47412 5.34931 6.51636 5.36741 6.55255C5.39757 6.61892 5.42774 6.68528 5.46393 6.75164C5.48203 6.78784 5.50013 6.82404 5.5122 6.86024C5.56046 6.96884 5.60873 7.0714 5.66303 7.17396Z" fill="#188CC5"/>
<path d="M12.3598 15.4513C12.2874 15.5116 12.215 15.578 12.1486 15.6383C12.0883 15.6926 12.028 15.7409 11.9676 15.7952C11.9073 15.8495 11.847 15.8977 11.7866 15.952C11.7203 16.0063 11.66 16.0606 11.5936 16.1149C11.5272 16.1692 11.4669 16.2235 11.4005 16.2718C11.2557 16.3864 11.117 16.5011 10.9782 16.6097C10.93 16.6459 10.8817 16.6881 10.8274 16.7243C10.8214 16.7303 10.8153 16.7303 10.8093 16.7363C10.761 16.7725 10.7128 16.8087 10.6645 16.8449C10.574 16.9113 10.4835 16.9837 10.393 17.0501C10.2904 17.1225 10.1939 17.1949 10.0914 17.2673C9.94053 17.3758 9.78367 17.4844 9.63284 17.593C9.59664 17.6172 9.55441 17.6473 9.51822 17.6715C9.43979 17.7258 9.36136 17.774 9.28293 17.8283C8.4564 17.1526 7.62383 16.4045 6.8154 15.5961C6.38102 15.1617 5.96474 14.7213 5.56656 14.2749C6.194 13.1346 7.00243 11.9401 7.95565 10.7455C8.00392 10.8058 8.05218 10.8662 8.09441 10.9265C8.13664 10.9808 8.17888 11.0351 8.22111 11.0894C8.3297 11.2282 8.44433 11.373 8.55896 11.5117C8.58912 11.5479 8.61929 11.5901 8.65549 11.6263C8.75202 11.741 8.84251 11.8556 8.93904 11.9702C8.99334 12.0306 9.0416 12.0909 9.0959 12.1512L9.10193 12.1573C9.15623 12.2236 9.21656 12.2839 9.27086 12.3503C9.27086 12.3563 9.27689 12.3563 9.27689 12.3624C9.33119 12.4287 9.39152 12.4951 9.45185 12.5554C9.50615 12.6158 9.55441 12.6701 9.60871 12.7304C9.98276 13.1406 10.3689 13.5509 10.7731 13.9551C10.8515 14.0335 10.9239 14.1059 11.0023 14.1783C11.0506 14.2266 11.0989 14.2749 11.1471 14.3171C11.2256 14.3895 11.298 14.4619 11.3764 14.5343C11.4428 14.5946 11.5031 14.6549 11.5695 14.7153C11.6479 14.7877 11.7263 14.8661 11.8108 14.9385C11.8651 14.9868 11.9194 15.035 11.9676 15.0833C12.034 15.1436 12.1004 15.2039 12.1667 15.2643C12.2271 15.3306 12.2934 15.391 12.3598 15.4513Z" fill="#188CC5"/>
<path d="M20.6311 20.2174C20.5165 20.6337 20.3174 20.9836 20.0338 21.2672C18.6824 22.6186 15.7081 22.0213 12.3598 20.0063C13.3673 19.403 14.405 18.6669 15.4487 17.8223C15.5633 17.9007 15.6779 17.9731 15.7926 18.0455C15.8348 18.0757 15.877 18.0998 15.9193 18.13C16.1184 18.2567 16.3174 18.3773 16.5105 18.492C16.5527 18.5161 16.595 18.5402 16.6372 18.5644C16.7639 18.6368 16.8846 18.7092 17.0112 18.7755C17.0595 18.7997 17.1078 18.8298 17.156 18.854C17.1741 18.866 17.1922 18.8721 17.2103 18.8841C17.2586 18.9143 17.3129 18.9384 17.3612 18.9686C17.5361 19.0591 17.705 19.1435 17.874 19.228C17.9765 19.2763 18.0791 19.3245 18.1817 19.3728C18.2239 19.3909 18.2661 19.415 18.3144 19.4331C18.3808 19.4633 18.4471 19.4935 18.5135 19.5176C18.5557 19.5357 18.5979 19.5538 18.6402 19.5719C19.0323 19.7348 19.4124 19.8796 19.7744 19.9942C19.8166 20.0063 19.8589 20.0183 19.9011 20.0364C19.9373 20.0485 19.9735 20.0545 20.0036 20.0666C20.0278 20.0726 20.0519 20.0787 20.076 20.0847C20.1183 20.0968 20.1605 20.1088 20.2027 20.1209C20.2389 20.133 20.2812 20.139 20.3174 20.1511C20.3415 20.1571 20.3656 20.1631 20.3837 20.1692C20.426 20.1812 20.4622 20.1873 20.5044 20.1993C20.5466 20.1993 20.5889 20.2114 20.6311 20.2174Z" fill="#188CC5"/>
<path d="M19.1651 14.2688C18.7669 14.7092 18.3506 15.1557 17.9162 15.5901C17.1017 16.4045 16.2752 17.1466 15.4487 17.8223C15.3703 17.768 15.2918 17.7197 15.2134 17.6654C15.1772 17.6413 15.135 17.6112 15.0988 17.587C14.9479 17.4845 14.7911 17.3759 14.6403 17.2612C14.5377 17.1888 14.4412 17.1164 14.3386 17.044C14.2481 16.9777 14.1576 16.9113 14.0671 16.8389C14.0189 16.8027 13.9706 16.7665 13.9223 16.7303C13.9163 16.7243 13.9103 16.7243 13.9042 16.7183C13.856 16.6821 13.8077 16.6398 13.7534 16.6036C13.6146 16.495 13.4698 16.3804 13.3311 16.2658C13.2647 16.2115 13.2044 16.1632 13.138 16.1089C13.0717 16.0546 13.0113 16.0003 12.945 15.946C12.8846 15.8978 12.8243 15.8435 12.764 15.7892C12.7036 15.7349 12.6433 15.6866 12.583 15.6323C12.5106 15.572 12.4382 15.5116 12.3718 15.4453C12.4382 15.385 12.5046 15.3246 12.5709 15.2703C12.6373 15.216 12.7036 15.1497 12.77 15.0893C12.8243 15.0411 12.8786 14.9928 12.9269 14.9445C13.0053 14.8721 13.0898 14.7997 13.1682 14.7213C13.2346 14.661 13.2949 14.6007 13.3612 14.5403C13.4397 14.4679 13.5121 14.3955 13.5905 14.3231C13.6388 14.2749 13.687 14.2266 13.7353 14.1844C13.8137 14.112 13.8861 14.0335 13.9646 13.9611C14.3688 13.5569 14.7549 13.1467 15.1289 12.7364C15.1832 12.6761 15.2315 12.6218 15.2858 12.5615C15.3461 12.4951 15.4004 12.4287 15.4608 12.3684C15.4668 12.3624 15.4668 12.3624 15.4668 12.3564C15.5211 12.29 15.5814 12.2297 15.6357 12.1633L15.6417 12.1573C15.696 12.0969 15.7443 12.0366 15.7986 11.9763C15.8951 11.8616 15.9917 11.747 16.0822 11.6324C16.1123 11.5962 16.1425 11.554 16.1787 11.5178C16.2933 11.373 16.4079 11.2342 16.5165 11.0954C16.5588 11.0411 16.601 10.9868 16.6432 10.9325C16.6915 10.8722 16.7398 10.8119 16.782 10.7516C17.7352 11.9401 18.5376 13.1346 19.1651 14.2688Z" fill="#188CC5"/>
<path d="M31.935 8.442C31.935 7.542 32.241 6.84 32.853 6.336C33.477 5.832 34.413 5.58 35.661 5.58C36.477 5.58 37.209 5.67 37.857 5.85V7.83C37.137 7.626 36.447 7.524 35.787 7.524C35.139 7.524 34.695 7.62 34.455 7.812C34.227 7.992 34.113 8.262 34.113 8.622V15.048C34.113 15.78 34.635 16.146 35.679 16.146C36.555 16.146 37.299 16.05 37.911 15.858V17.82C37.263 18 36.501 18.09 35.625 18.09C33.165 18.09 31.935 17.142 31.935 15.246V8.442ZM44.432 8.676C44.432 7.86 43.982 7.452 43.082 7.452C42.194 7.452 41.75 7.86 41.75 8.676V14.994C41.75 15.81 42.194 16.218 43.082 16.218C43.982 16.218 44.432 15.81 44.432 14.994V8.676ZM39.59 8.568C39.59 7.632 39.884 6.888 40.472 6.336C41.06 5.772 41.93 5.49 43.082 5.49C44.234 5.49 45.104 5.772 45.692 6.336C46.292 6.888 46.592 7.632 46.592 8.568V15.102C46.592 16.038 46.292 16.788 45.692 17.352C45.104 17.904 44.234 18.18 43.082 18.18C41.93 18.18 41.06 17.904 40.472 17.352C39.884 16.788 39.59 16.038 39.59 15.102V8.568ZM53.9821 5.67H56.1241V18H53.9461C52.1821 13.5 51.1741 10.884 50.9221 10.152C50.6701 9.408 50.5321 9 50.5081 8.928C50.5081 8.952 50.5381 9.174 50.5981 9.594C50.7541 10.686 50.8321 12.036 50.8321 13.644V18H48.7081V5.67H50.9221C52.4461 9.522 53.3281 11.79 53.5681 12.474C53.8081 13.158 53.9821 13.686 54.0901 14.058C54.2101 14.418 54.2821 14.628 54.3061 14.688C54.3061 14.64 54.2761 14.412 54.2161 14.004C54.0601 12.804 53.9821 11.442 53.9821 9.918V5.67ZM63.3337 5.67H65.5837L63.1177 18H60.0937L57.5917 5.67H59.8057L60.8497 11.214C60.9577 11.826 61.1017 12.756 61.2817 14.004C61.4737 15.252 61.5877 15.942 61.6237 16.074C61.6717 15.846 61.7857 15.096 61.9657 13.824C62.1457 12.552 62.2717 11.688 62.3437 11.232L63.3337 5.67ZM67.059 5.67H72.981V7.56H69.219V10.818H72.477V12.708H69.219V16.11H72.981V18H67.059V5.67ZM76.9969 13.356V18H74.8369V5.67H78.4729C79.4449 5.67 80.1949 5.91 80.7229 6.39C81.2629 6.858 81.5329 7.53 81.5329 8.406V10.512C81.5329 11.904 81.0289 12.78 80.0209 13.14L81.9649 18H79.5889L77.8789 13.356H76.9969ZM76.9969 7.524V11.61H78.2569C78.6529 11.61 78.9349 11.526 79.1029 11.358C79.2829 11.178 79.3729 10.89 79.3729 10.494V8.568C79.3729 7.872 79.0009 7.524 78.2569 7.524H76.9969ZM83.5072 8.514C83.5072 7.602 83.8312 6.888 84.4792 6.372C85.1392 5.844 86.0272 5.58 87.1432 5.58C88.2592 5.58 89.1412 5.688 89.7892 5.904V7.956C89.0572 7.692 88.2652 7.56 87.4132 7.56C86.2612 7.56 85.6852 7.95 85.6852 8.73V15.048C85.6852 15.78 86.1652 16.146 87.1252 16.146C87.5452 16.146 87.8812 16.068 88.1332 15.912V11.592H90.2572V17.352C89.3212 17.844 88.2712 18.09 87.1072 18.09C85.9432 18.09 85.0492 17.85 84.4252 17.37C83.8132 16.878 83.5072 16.17 83.5072 15.246V8.514ZM92.344 5.67H98.266V7.56H94.504V10.818H97.762V12.708H94.504V16.11H98.266V18H92.344V5.67ZM104.892 8.496C104.892 7.812 104.52 7.47 103.776 7.47H102.282V16.128H103.776C104.52 16.128 104.892 15.744 104.892 14.976V8.496ZM100.122 5.67H104.046C105.006 5.67 105.744 5.91 106.26 6.39C106.788 6.858 107.052 7.536 107.052 8.424V15.138C107.052 17.046 106.086 18 104.154 18H100.122V5.67ZM118.121 18L117.527 14.922H114.755L114.179 18H112.109L114.665 5.67H117.671L120.209 18H118.121ZM115.097 13.086H117.167L116.123 7.614L115.097 13.086ZM121.716 5.67H123.894V18H121.716V5.67Z" fill="#272727"/>
</svg>
