<svg width="455" height="160" viewBox="0 0 455 160" fill="none" xmlns="http://www.w3.org/2000/svg">
<g filter="url(#filter0_d_1204_39)">
<path d="M101.09 29.5684C102.966 29.7022 103.75 30.2979 105.069 31.555C106.196 33.2426 105.91 35.2146 105.733 37.1839C105.007 38.9362 103.953 39.5282 102.287 40.2751C102.111 40.3476 101.934 40.4202 101.753 40.4949C102.844 40.6334 102.844 40.6334 104.075 40.4949C104.348 40.2218 104.622 39.9486 104.904 39.6672C105.733 38.8394 105.733 38.8394 106.831 38.6532C109.802 39.1056 112.042 40.9421 114.024 43.1438C114.024 44.1371 114.024 44.1371 113.479 44.6946C113.241 44.8862 113.004 45.0779 112.76 45.2753C111.811 46.0467 111.095 46.7927 110.376 47.7793C110.592 47.7392 110.808 47.6991 111.03 47.6578C112.007 47.4766 112.984 47.2969 113.962 47.1171C114.302 47.0539 114.641 46.9908 114.991 46.9257C115.317 46.8659 115.643 46.8062 115.979 46.7446C116.43 46.6614 116.43 46.6614 116.89 46.5765C117.672 46.4549 117.672 46.4549 118.667 46.4549C118.558 46.2364 118.448 46.0178 118.336 45.7927C118.286 45.0281 118.262 44.2617 118.253 43.4956C118.244 43.0829 118.236 42.6701 118.227 42.2449C118.336 41.1572 118.336 41.1572 118.793 40.5079C119.331 40.1638 119.331 40.1638 120.056 40.2673C120.254 40.3424 120.453 40.4175 120.657 40.4949C120.329 40.8227 120.329 40.8227 119.994 41.1572C119.878 42.2255 119.895 42.928 120.346 43.9095C121.266 44.7091 122.12 44.7097 123.31 44.7994C123.25 44.9919 123.19 45.1843 123.128 45.3827C122.777 47.1252 123.722 48.7077 124.628 50.1346C125.033 50.731 125.443 51.3237 125.853 51.9162C127.198 53.8794 128.395 55.9135 129.57 57.9816C129.752 58.2975 129.933 58.6134 130.12 58.9389C133.018 64.0805 133.018 64.0805 133.177 66.8595C133.196 67.1369 133.215 67.4143 133.234 67.7002C133.247 68.0011 133.247 68.0011 133.26 68.3081C132.603 68.3081 131.947 68.3081 131.27 68.3081C131.152 68.0541 131.035 67.8001 130.914 67.5385C129.674 64.9573 128.281 62.5067 126.772 60.0717C126.592 59.7808 126.413 59.4898 126.228 59.19C125.396 57.8623 124.546 56.5762 123.589 55.3353C122.691 54.1638 122.019 52.9927 121.362 51.6699C121.26 51.4718 121.158 51.2738 121.054 51.0697C120.508 49.9713 120.325 49.3664 120.325 48.1104C120.018 48.2607 119.71 48.4109 119.393 48.5657C118.3 49.0509 117.301 49.2095 116.118 49.3521C115.175 49.4804 115.175 49.4804 114.356 49.766C113.717 50.744 113.717 50.744 113.427 51.4603C112.543 52.8463 110.864 53.4825 109.381 54.0704C108.365 54.2816 107.438 54.3512 106.396 54.4015C106.287 54.5108 106.177 54.62 106.064 54.7326C105.033 54.8584 103.993 54.8882 102.955 54.9396C102.664 54.9566 102.374 54.9737 102.074 54.9913C101.795 55.0058 101.515 55.0203 101.227 55.0353C100.97 55.0488 100.714 55.0623 100.449 55.0762C99.763 55.0637 99.763 55.0637 98.7681 54.7326C98.6586 54.9511 98.5492 55.1697 98.4364 55.3948C97.5609 55.3948 96.6853 55.3948 95.7832 55.3948C95.7832 54.9578 95.7832 54.5207 95.7832 54.0704C100.216 53.7426 100.216 53.7426 104.738 53.4082C104.59 51.5059 104.59 51.5059 104.43 49.6046C104.298 47.6357 104.298 47.6357 104.897 46.5946C105.063 46.4392 105.23 46.2839 105.401 46.1238C104.397 45.5336 103.831 45.4036 102.686 45.5857C100.173 45.9064 97.6483 45.819 95.1199 45.7927C95.1199 46.4483 95.1199 47.1039 95.1199 47.7793C94.901 47.5608 94.6821 47.3423 94.4566 47.1171C94.2446 47.1717 94.0325 47.2264 93.814 47.2827C93.4754 47.3646 93.4754 47.3646 93.13 47.4482C92.8017 47.2297 92.4733 47.0112 92.135 46.786C92.2445 46.1304 92.3539 45.4748 92.4667 44.7994C92.2581 44.7383 92.0494 44.6773 91.8345 44.6144C89.3796 43.7839 88.0578 42.532 86.4969 40.4949C86.8907 39.3155 87.2813 39.0616 88.2589 38.322C88.5175 38.1236 88.7762 37.9251 89.0426 37.7206C89.8135 37.1839 89.8135 37.1839 90.5558 36.8191C91.1917 36.5695 91.1917 36.5695 91.4303 35.9215C91.9762 34.8617 92.8838 34.2984 93.7933 33.5417C94.2485 32.8298 94.2485 32.8298 94.4566 32.2172C94.6755 32.2172 94.8944 32.2172 95.1199 32.2172C95.7766 34.0747 96.4333 35.9323 97.1098 37.8461C97.1098 37.0812 97.1098 36.3164 97.1098 35.5283C98.1048 36.5216 98.1048 36.5216 99.0997 37.515C99.7548 37.565 100.412 37.5884 101.069 37.5977C101.428 37.6063 101.786 37.6148 102.156 37.6236C102.461 37.5878 102.766 37.5519 103.08 37.515C103.711 36.5697 103.896 36.0517 104.116 34.9696C104.172 34.702 104.227 34.4343 104.284 34.1586C104.325 33.955 104.365 33.7514 104.406 33.5417C104.187 33.5417 103.968 33.5417 103.743 33.5417C103.757 33.8968 103.77 34.2519 103.784 34.6178C103.725 36.3857 103.725 36.3857 103.08 37.1839C102.209 37.4322 102.209 37.4322 101.421 37.515C101.421 37.0779 101.421 36.6408 101.421 36.1905C100.984 36.0813 100.546 35.972 100.095 35.8594C100.861 35.8594 101.627 35.8594 102.416 35.8594C102.053 34.2124 101.694 32.9769 100.758 31.555C100.594 31.0633 100.594 31.0633 100.426 30.5617C100.645 30.2339 100.864 29.9061 101.09 29.5684ZM107.059 41.4883C106.306 42.0966 106.306 42.0966 106.331 43.0119C106.339 43.3422 106.347 43.6726 106.355 44.013C106.368 44.6003 106.382 45.1876 106.396 45.7927C107.6 45.7927 108.804 45.7927 110.044 45.7927C109.892 44.2389 109.729 43.045 108.718 41.8194C107.892 41.4666 107.892 41.4666 107.059 41.4883Z" fill="#06121B"/>
<path d="M135.582 19.9661C135.413 21.4648 135.072 22.4057 134.193 23.629C134.003 23.8992 133.814 24.1694 133.619 24.4477C132.007 26.3531 130.474 27.2189 128.139 27.9645C127.739 28.0984 127.739 28.0984 127.331 28.235C126.482 28.5181 125.632 28.7951 124.782 29.0716C123.669 29.4391 122.556 29.8089 121.444 30.1788C121.175 30.2675 120.906 30.3563 120.629 30.4478C118.702 31.088 116.812 31.7894 114.929 32.5504C113.554 33.0504 112.152 33.3235 110.708 33.5416C110.708 33.7601 110.708 33.9786 110.708 34.2038C111.255 34.2038 111.802 34.2038 112.366 34.2038C111.65 34.9182 111.218 35.0899 110.272 35.4041C109.895 35.5334 109.895 35.5334 109.509 35.6653C108.718 35.8593 108.718 35.8593 107.059 35.8593C107.059 34.7667 107.059 33.674 107.059 32.5483C107.612 32.2723 108.165 31.9964 108.718 31.7205C109.266 31.4465 109.266 31.4465 109.825 31.1669C110.637 30.7616 111.45 30.3582 112.264 29.9563C115.073 28.5647 117.856 27.1302 120.618 25.6444C120.873 25.5086 121.128 25.3728 121.39 25.2328C121.617 25.111 121.844 24.9891 122.078 24.8636C122.647 24.6017 122.647 24.6017 123.31 24.6017C123.42 24.2739 123.529 23.9461 123.642 23.6083C124.277 23.2325 124.277 23.2325 125.105 22.8827C125.406 22.7545 125.707 22.6262 126.017 22.4941C126.335 22.3632 126.652 22.2324 126.979 22.0976C127.288 21.9655 127.596 21.8334 127.914 21.6973C130.467 20.6246 132.788 19.8499 135.582 19.9661Z" fill="#061821"/>
<path d="M86.1651 19.635C88.5634 19.7348 89.986 20.7949 91.6529 22.4675C93.3547 24.3964 93.5951 26.0825 93.5431 28.5762C93.2947 31.5947 91.5821 33.9251 89.378 35.9214C88.329 36.7767 87.2107 37.3846 86.0161 38.0128C84.2441 39.0505 82.3142 40.3662 80.8587 41.8193C80.0849 41.8328 79.3108 41.8333 78.5371 41.8193C78.5578 41.2192 78.5578 41.2192 78.8688 40.4949C79.6376 40.1522 80.4115 39.8209 81.1903 39.5015C81.6392 38.5472 81.6392 38.5472 81.1903 37.846C80.6431 37.846 80.0959 37.846 79.5321 37.846C79.4295 38.0509 79.3269 38.2557 79.2211 38.4668C78.9931 38.9221 78.7651 39.3774 78.5371 39.8326C77.7729 39.9175 77.0046 39.967 76.2363 4082C74.5477 39.9661 74.5477 39.9661 73.2307 40.826C72.9023 40.826 72.574 40.826 72.2357 40.826C72.4546 39.8426 72.6735 38.8592 72.899 37.846C74.5407 37.846 76.1824 37.846 77.8738 37.846C77.8738 37.6275 77.8738 37.4089 77.8738 37.1838C78.6303 36.6728 79.4143 36.2249 80.2057 35.7701C80.9563 35.2421 80.9563 35.2421 80.952 34.3034C80.9058 33.9263 80.9058 33.9263 80.8587 33.5416C81.1391 33.644 81.4196 33.7464 81.7085 33.852C82.8641 34.2086 83.9745 34.371 85.1702 34.5349C85.2796 34.6442 85.3891 34.7534 85.5018 34.866C85.8575 34.7294 86.2132 34.5928 86.5797 34.4521C86.7798 34.3753 86.9798 34.2985 87.186 34.2193C88.0506 33.7491 88.5525 33.3392 89.15 32.5482C89.2559 31.654 89.2919 30.9099 89.2536 30.0235C89.2504 29.7982 89.2472 29.5728 89.2439 29.3406C89.2242 28.0878 89.2242 28.0878 88.8183 26.9194C88.7738 26.0346 88.804 25.1571 88.8183 24.2705C89.0372 24.2705 89.2561 24.2705 89.4816 24.2705C88.725 22.1909 88.1297 21.036 86.1651 19.9661C86.1651 19.8569 86.1651 19.7476 86.1651 19.635Z" fill="#05121B"/>
<path d="M114.025 12.3508C114.913 14.1245 114.551 17.0786 114.141 18.9743C113.098 21.8904 110.632 23.38 108.2 25.1399C107.99 25.2936 107.78 25.4472 107.563 25.6055C107.15 25.9059 106.736 26.204 106.32 26.4996C105.769 26.8943 105.228 27.3036 104.688 27.7138C103.743 28.244 103.743 28.244 102.94 28.2221C101.84 27.8242 100.755 27.4041 99.6805 26.9403C99.4693 26.8526 99.2581 26.7649 99.0406 26.6745C97.4827 26.0077 97.4827 26.0077 97.1102 25.2641C97.4044 25.148 97.6985 25.0319 98.0015 24.9123C101.354 23.4626 104.293 21.6799 107.06 19.3041C107.38 19.0536 107.7 18.803 108.03 18.5449C109.183 17.5869 110.057 16.4598 110.957 15.2687C113.193 12.3508 113.193 12.3508 114.025 12.3508Z" fill="#1C2B30"/>
<path d="M77.8717 45.7164C78.5376 45.7927 78.5376 45.7927 79.5326 46.4549C79.5947 47.6552 79.5947 47.6552 79.5326 48.7727C79.7514 48.7727 79.9703 48.7727 80.1959 48.7727C80.1959 49.2097 80.1959 49.6468 80.1959 50.0971C79.977 50.0971 79.7581 50.0971 79.5326 50.0971C79.5685 50.462 79.5685 50.462 79.6051 50.8343C79.5129 52.0017 79.1552 52.3439 78.3718 53.2012C77.0353 54.7784 76.1111 56.3979 75.1751 58.2234C74.5857 59.3681 73.9766 60.4497 73.2312 61.4996C71.7523 63.6124 70.7037 65.9936 69.583 68.3081C69.0358 68.3081 68.4885 68.3081 67.9247 68.3081C67.8887 67.5703 67.8631 66.8321 67.8418 66.0938C67.8264 65.6828 67.811 65.2717 67.7952 64.8482C67.9504 63.4395 68.3234 63.064 69.2513 62.017C69.8181 61.094 70.3212 60.1394 70.8267 59.1819C70.9631 58.932 71.0994 58.6821 71.2399 58.4246C71.433 58.0613 71.433 58.0613 71.6299 57.6906C71.7465 57.4723 71.8631 57.2539 71.9832 57.029C72.3173 56.2976 72.3173 56.2976 72.2362 55.0637C72.2362 54.8452 72.2362 54.6267 72.2362 54.4015C72.5645 54.4015 72.8929 54.4015 73.2312 54.4015C73.3575 54.1288 73.3575 54.1288 73.4864 53.8505C74.1343 52.6226 74.9653 51.5135 75.7639 50.3791C76.4216 49.0056 76.0586 48.0918 75.6771 46.6825C75.636 46.4982 75.595 46.3138 75.5527 46.1238C76.175 45.5025 77.0445 45.7331 77.8717 45.7164Z" fill="#0A1317"/>
<path d="M113.028 53.7393C113.217 57.3275 113.217 57.3275 112.033 58.7059C110.395 60.3824 108.602 60.9815 106.395 61.6859C106.117 61.7857 105.838 61.8856 105.551 61.9885C103.456 62.7011 101.64 62.764 99.4307 62.6792C99.5401 61.0402 99.6496 59.4012 99.7623 57.7126C100.963 57.5077 100.963 57.5077 102.188 57.2987C105.488 56.698 108.382 55.6461 111.339 54.0548C112.033 53.7393 112.033 53.7393 113.028 53.7393Z" fill="#011A28"/>
<path d="M78.8686 29.8994C79.0875 30.2272 79.3063 30.555 79.5319 30.8927C79.8705 31.3844 79.8705 31.3844 80.2159 31.8861C80.8492 32.865 81.1901 33.4915 81.1901 34.6591C80.6997 35.9444 79.7269 36.539 78.5369 37.1838C78.318 37.1838 78.0991 37.1838 77.8736 37.1838C77.8736 37.4023 77.8736 37.6209 77.8736 37.846C74.7528 38.2262 74.7528 38.2262 73.2305 38.1771C72.9021 38.942 72.5738 39.7069 72.2355 40.4949C71.1864 39.248 70.2456 37.7774 70.2456 36.1077C70.5773 35.5283 70.5773 35.5283 71.3442 35.1144C72.4555 34.392 72.7018 33.6986 73.2473 32.5276C73.6818 31.6423 74.0735 31.1268 74.8887 30.5616C76.2296 30.2131 77.5471 30.0669 78.8686 30.5616C78.8686 30.3431 78.8686 30.1246 78.8686 29.8994Z" fill="#324147"/>
<path d="M113.361 12.6818C112.637 13.574 111.91 14.4636 111.178 15.3501C110.718 15.909 110.261 16.4706 109.813 17.0393C107.397 19.9975 104.193 22.1048 100.904 23.9809C100.678 24.1102 100.453 24.2395 100.221 24.3727C99.0711 25.0064 98.4523 25.2639 97.1102 25.2639C97.2673 23.1728 98.0281 21.6054 99.5795 20.1916C100.742 19.2114 101.954 18.299 103.181 17.4006C103.659 17.0485 104.129 16.6854 104.597 16.3201C106.246 15.0765 107.979 14.1833 109.858 13.344C110.09 13.2396 110.322 13.1351 110.561 13.0275C112.242 12.3095 112.242 12.3095 113.361 12.6818Z" fill="#C2C6BE"/>
<path d="M121.983 17.9797C122.001 18.6212 122.014 19.2627 122.025 19.9043C122.033 20.2616 122.04 20.6188 122.048 20.9869C121.983 21.953 121.983 21.953 121.32 22.9464C120.764 23.2836 120.764 23.2836 120.11 23.5827C118.751 24.227 117.445 24.9363 116.138 25.678C115.911 25.8061 115.684 25.9343 115.449 26.0663C114.323 26.7022 113.199 27.3423 112.078 27.9867C110.099 29.1238 108.124 30.2371 106.064 31.2241C105.401 30.2308 105.401 30.2308 105.42 29.5918C105.874 28.5959 106.529 28.1832 107.411 27.5405C107.586 27.4134 107.76 27.2862 107.939 27.1552C109.607 25.9588 111.347 24.8801 113.096 23.8066C114.893 22.7031 116.623 21.5274 118.335 20.2975C118.949 19.8618 119.564 19.4273 120.18 18.9938C120.454 18.7996 120.728 18.6054 121.01 18.4053C121.652 17.9797 121.652 17.9797 121.983 17.9797Z" fill="#81837B"/>
<path d="M136.577 12.0195C136.686 12.0195 136.795 12.0195 136.908 12.0195C137.01 15.05 137.072 17.7636 135.913 20.6284C135.804 20.4098 135.694 20.1913 135.582 19.9661C132.386 20.5023 129.577 21.2274 126.627 22.615C126.385 21.72 126.385 21.72 126.295 20.6284C126.797 19.8058 126.797 19.8058 127.518 19.0556C127.752 18.8046 127.986 18.5536 128.227 18.2951C128.901 17.6908 129.468 17.3732 130.275 16.9862C130.429 16.8291 130.583 16.672 130.742 16.5102C131.68 15.5917 132.899 15.1001 134.058 14.5028C134.824 14.0608 135.305 13.6353 135.913 13.0129C136.132 13.0129 136.351 13.0129 136.577 13.0129C136.577 12.6851 136.577 12.3573 136.577 12.0195Z" fill="#38474F"/>
<path d="M77.2107 10.033C80.0674 9.84896 82.2099 10.4214 84.5485 12.1024C85.3813 13.3218 85.4366 14.2549 85.1703 15.6618C84.7884 16.9023 84.3385 18.1043 83.8437 19.304C84.5004 19.304 85.1571 19.304 85.8336 19.304C85.8336 19.5225 85.8336 19.7411 85.8336 19.9662C85.5395 20.0345 85.2454 20.1028 84.9423 20.1732C83.8563 20.6232 83.6488 20.7802 82.9939 21.6632C82.1854 22.6151 82.1854 22.6151 81.2527 22.7393C80.8936 22.6778 80.8936 22.6778 80.5272 22.6151C80.3807 20.8598 80.6549 19.8646 81.4911 18.3262C82.2218 16.9609 82.8488 15.6206 82.8488 14.0477C82.5745 13.2789 82.5745 13.2789 81.7838 12.9728C80.7986 12.6629 80.0232 12.6042 78.9933 12.6197C78.6812 12.6219 78.3691 12.624 78.0476 12.6262C77.1689 12.6493 77.1689 12.6493 76.2157 13.0129C75.0342 13.075 75.0342 13.075 73.8941 13.0129C73.2308 12.3507 73.2308 12.3507 73.2308 11.0263C75.2008 10.8624 75.2008 10.8624 77.2107 10.6952C77.2107 10.4766 77.2107 10.2581 77.2107 10.033Z" fill="#131B21"/>
<path d="M137.239 10.6951C137.239 12.1155 137.239 13.536 137.239 14.9995C137.13 14.9995 137.021 14.9995 136.908 14.9995C136.744 14.0161 136.744 14.0161 136.576 13.0128C136.163 13.3822 136.163 13.3822 135.741 13.7591C134.594 14.7123 133.379 15.3375 132.037 15.9721C131.568 16.2044 131.1 16.4368 130.631 16.6693C129.809 17.0706 128.992 17.437 128.146 17.7893C127.173 18.2245 126.419 18.5836 125.632 19.3039C125.146 20.6279 124.998 21.8725 124.968 23.2772C124.476 23.4411 124.476 23.4411 123.973 23.6083C123.973 21.5323 123.973 19.4562 123.973 17.3172C123.536 17.208 123.098 17.0987 122.647 16.9861C123.057 16.87 123.468 16.7539 123.89 16.6343C125.967 15.9467 127.75 14.8019 129.611 13.675C134.739 10.6951 134.739 10.6951 137.239 10.6951Z" fill="#96978F"/>
<path d="M93.4612 62.3481C94.2349 62.5264 94.9382 62.7386 95.6791 63.0311C98.6995 63.8845 102.291 63.21 105.401 63.0104C105.22 64.2928 105.13 64.6069 104.157 65.5558C101.73 67.2797 99.3182 67.1847 96.4461 66.9837C95.2637 66.7274 94.4359 66.3689 93.6478 65.4109C93.3894 64.3791 93.4204 63.4062 93.4612 62.3481Z" fill="#151A71"/>
<path d="M95.4517 48.4417C98.1879 48.4417 100.924 48.4417 103.743 48.4417C104.556 52.0928 104.556 52.0928 104.406 53.0772C103.338 53.7883 102.894 53.8525 101.646 53.9489C101.305 53.9767 100.964 54.0044 100.612 54.033C100.079 54.072 100.079 54.072 99.5352 54.1119C98.9962 54.1548 98.9962 54.1548 98.4463 54.1985C97.5588 54.2688 96.6712 54.3364 95.7834 54.4016C95.7834 54.7294 95.7834 55.0572 95.7834 55.3949C94.1298 55.2298 92.9122 54.9013 91.4719 54.0705C91.212 53.9339 90.952 53.7973 90.6842 53.6566C90.1453 53.0772 90.1453 53.0772 90.0624 51.8562C90.0897 51.4943 90.1171 51.1323 90.1453 50.7594C90.4223 50.963 90.4223 50.963 90.705 51.1707C93.6901 53.275 96.1513 53.4935 99.7632 53.7394C99.7632 52.2097 99.7632 50.6799 99.7632 49.1039C99.2365 49.1175 98.7098 49.1312 98.1671 49.1453C96.8926 49.1783 96.5507 49.1731 95.4517 48.4417Z" fill="#254655"/>
<path d="M125.936 45.4972C126.935 45.9241 127.185 46.5293 127.712 47.4675C127.903 47.807 128.095 48.1466 128.293 48.4964C128.489 48.8539 128.685 49.2113 128.887 49.5796C129.19 50.1139 129.19 50.1139 129.5 50.659C130.592 52.6159 130.592 52.6159 130.939 53.4081C130.829 53.6266 130.72 53.8451 130.607 54.0703C130.388 53.961 130.169 53.8518 129.944 53.7392C129.944 54.067 129.944 54.3948 129.944 54.7325C129.397 54.7325 128.849 54.7325 128.286 54.7325C128.286 54.951 128.286 55.1696 128.286 55.3947C128.067 55.3947 127.848 55.3947 127.622 55.3947C127.11 54.6098 126.635 53.8278 126.171 53.0149C125.467 51.7902 124.793 50.6195 123.899 49.5214C123.329 48.7957 123.113 48.3482 122.979 47.4481C123.334 47.1051 123.694 46.7682 124.057 46.4341C124.257 46.2459 124.457 46.0576 124.663 45.8637C125.301 45.4615 125.301 45.4615 125.936 45.4972Z" fill="#303F43"/>
<path d="M81.1905 18.6421C81.1905 19.6354 81.1905 19.6354 80.8588 20.2976C80.8455 21.0701 80.8445 21.8429 80.8588 22.6154C81.1872 22.7247 81.5155 22.8339 81.8538 22.9465C81.2316 24.3959 80.3762 25.296 79.014 26.092C78.1682 26.6117 77.785 27.1213 77.2107 27.9131C76.9918 27.9131 76.7729 27.9131 76.5474 27.9131C76.4516 28.118 76.3558 28.3229 76.2572 28.534C75.8841 29.2376 75.8841 29.2376 75.2207 29.8998C74.3502 29.9412 74.3502 29.9412 73.5625 29.8998C73.3384 29.3397 73.3384 29.3397 73.2308 28.5753C74.5687 25.687 76.8951 23.1176 78.8689 20.6287C79.1002 20.3206 79.3315 20.0124 79.5698 19.6949C80.1955 18.9732 80.1955 18.9732 81.1905 18.6421Z" fill="#AAAFA7"/>
<path d="M75.878 19.7605C75.878 20.4762 75.878 20.4762 75.6903 20.9533C75.6827 21.5099 75.6822 22.0667 75.6903 22.6233C75.8761 22.702 76.0619 22.7808 76.2534 22.8619C75.9012 23.9062 75.4171 24.5547 74.6462 25.1283C74.1675 25.5027 73.9506 25.8698 73.6256 26.4404C73.5017 26.4404 73.3778 26.4404 73.2502 26.4404C73.196 26.588 73.1418 26.7356 73.0859 26.8877C72.8748 27.3946 72.8748 27.3946 72.4994 27.8718C72.0067 27.9016 72.0067 27.9016 71.5609 27.8718C71.434 27.4683 71.434 27.4683 71.3732 26.9175C72.1303 24.8365 73.4469 22.9852 74.5641 21.1919C74.695 20.9699 74.8259 20.7478 74.9607 20.5191C75.3149 19.9991 75.3149 19.9991 75.878 19.7605Z" fill="#E5E9E2"/>
<path d="M90.4761 45.1303C89.8157 48.6212 89.8157 48.6212 88.8179 50.097C87.7175 50.509 87.288 50.4708 86.1647 50.097C84.2559 50.0313 82.4187 50.1832 80.5266 50.4281C79.8633 49.4348 79.8633 49.4348 79.9876 48.7105C80.056 48.5124 80.1244 48.3144 80.1949 48.1103C80.8787 47.9984 81.5628 47.8884 82.247 47.7792C82.6279 47.7178 83.0089 47.6563 83.4013 47.593C84.3419 47.4697 85.2185 47.4196 86.1647 47.4481C86.2536 47.2501 86.3425 47.052 86.4341 46.848C87.4839 44.9174 88.3747 45.0272 90.4761 45.1303Z" fill="#0A0F12"/>
<path d="M86.4967 55.7259C85.6518 58.8443 85.6518 58.8443 84.8384 60.2373C83.7359 62.2778 83.543 64.722 83.1801 66.9836C82.1852 66.6525 82.1852 66.6525 81.8704 66.0847C81.2217 64.135 81.0746 62.4092 81.1902 60.3614C81.628 60.3614 82.0658 60.3614 82.5168 60.3614C82.5784 59.8698 82.5784 59.8698 82.6412 59.3681C82.8384 58.0094 83.1247 56.7134 83.5118 55.3948C84.5733 54.8649 85.4098 55.3843 86.4967 55.7259Z" fill="#0E171D"/>
<path d="M94.7881 27.9127C97.0354 27.8042 99.0031 28.0051 101.09 28.9061C101.199 29.1246 101.308 29.3431 101.421 29.5683C101.312 29.78 101.202 29.9917 101.09 30.2098C100.642 30.9297 100.642 30.9297 101.09 31.886C100.323 32.5416 99.5573 33.1972 98.7679 33.8727C98.4396 33.6542 98.1113 33.4356 97.773 33.2105C98.2208 31.7473 98.8546 31.1101 100.095 30.2305C98.3848 30.3285 98.3848 30.3285 97.006 31.2652C96.3605 32.3632 96.0743 33.2994 95.7831 34.5349C95.2987 33.6583 95.1198 33.2454 95.1198 32.2171C94.3793 32.5118 94.3793 32.5118 93.9797 33.3553C93.4615 34.2038 93.4615 34.2038 92.4666 34.866C92.8495 33.8466 93.2951 32.903 93.8139 31.9481C94.5085 30.5946 94.6801 29.4229 94.7881 27.9127Z" fill="#1D2830"/>
<path d="M89.8136 55.7261C90.3263 56.4938 90.741 57.2182 91.1402 58.0438C91.3591 57.6068 91.578 57.1697 91.8035 56.7194C92.8542 56.6694 93.667 56.6743 94.664 57.0298C96.3321 57.5541 98.0244 57.606 99.7632 57.7127C99.5144 60.2788 99.5144 60.2788 98.7682 61.0238C98.0855 61.0393 98.0855 61.0393 97.2965 60.941C96.9073 60.8975 96.9073 60.8975 96.5101 60.8531C95.7834 60.6927 95.7834 60.6927 94.7884 60.0305C94.0154 59.914 93.2415 59.8042 92.4668 59.6994C90.6474 59.2538 90.6474 59.2538 90.0209 58.4577C89.7616 57.5258 89.7698 56.6884 89.8136 55.7261Z" fill="#364E5A"/>
<path d="M117.009 53.7393C117.672 54.0704 117.672 54.0704 118.027 55.1219C119.127 59.2516 119.642 62.6854 117.672 66.6525C117.563 66.6525 117.454 66.6525 117.341 66.6525C117.308 66.4032 117.276 66.154 117.242 65.8972C116.907 63.5201 116.436 61.229 115.789 58.9199C115.404 57.492 115.226 56.2095 115.351 54.7326C116.139 54.0704 116.139 54.0704 117.009 53.7393Z" fill="#092A34"/>
<path d="M70.4451 54.0056C70.776 54.0133 71.1069 54.021 71.4479 54.0289C71.9468 54.0379 71.9468 54.0379 72.4558 54.047C72.7114 54.0547 72.9671 54.0624 73.2305 54.0703C72.9022 54.1796 72.5738 54.2888 72.2355 54.4014C72.3655 54.6472 72.4955 54.8931 72.6294 55.1464C72.7183 55.4469 72.8072 55.7473 72.8988 56.0569C72.5755 56.5045 72.2413 56.9442 71.9039 57.3814C71.316 58.4915 70.7917 59.6347 70.2618 60.7733C69.6504 62.0401 69.19 62.9458 67.9241 63.6724C67.7689 60.591 68.0894 57.7037 68.919 54.7325C69.5823 54.0703 69.5823 54.0703 70.4451 54.0056Z" fill="#7C807F"/>
<path d="M73.9162 53.9216C73.6141 53.9152 73.3119 53.9087 73.0006 53.902C72.545 53.8945 72.545 53.8945 72.0802 53.8868C71.8467 53.8803 71.6133 53.8739 71.3727 53.8672C71.6726 53.7753 71.9724 53.6833 72.2813 53.5886C72.1626 53.3818 72.0439 53.1749 71.9217 52.9618C71.8405 52.709 71.7593 52.4561 71.6756 52.1957C71.9709 51.8191 72.2761 51.4491 72.5842 51.0813C73.1209 50.1472 73.5997 49.1853 74.0836 48.2273C74.642 47.1614 75.0624 46.3994 76.2184 45.788C76.3601 48.3807 76.0674 50.81 75.3098 53.31C74.7041 53.8672 74.7041 53.8672 73.9162 53.9216Z" fill="#C5D0C9"/>
<path d="M81.5227 37.846C81.6322 38.1738 81.7416 38.5016 81.8544 38.8393C80.9144 39.9168 80.3002 40.3362 78.8695 40.4949C78.7601 40.9319 78.6506 41.369 78.5379 41.8193C79.1945 41.8193 79.8512 41.8193 80.5278 41.8193C79.4392 42.9061 78.2498 42.8764 76.7552 42.9161C75.0255 42.9046 74.1832 42.6347 72.8998 41.4882C72.7903 41.2697 72.6809 41.0511 72.5681 40.826C73.4147 40.0128 73.8479 39.8366 75.04 39.7356C75.4555 39.7472 75.8711 39.7587 76.2992 39.7706C76.7182 39.7795 77.1371 39.7885 77.5688 39.7977C78.0485 39.815 78.0485 39.815 78.5379 39.8327C78.6405 39.6278 78.7431 39.4229 78.8488 39.2118C79.5445 37.8226 79.8548 37.2909 81.5227 37.846Z" fill="#0F1171"/>
<path d="M71.1164 16.138C72.5482 17.0776 73.7775 18.4478 74.5573 19.9664C74.4942 21.2752 74.0151 22.0409 73.21 23.0499C73.0283 23.2808 72.8466 23.5117 72.6594 23.7496C72.5196 23.9216 72.3798 24.0936 72.2357 24.2708C71.9041 23.2775 71.9041 23.2775 72.1528 22.2014C72.2512 20.7279 71.9866 20.2515 71.0814 19.1412C69.6999 17.7727 68.144 17.505 66.266 17.3176C66.1565 16.8805 66.0471 16.4434 65.9343 15.9931C67.7481 15.3895 69.3391 15.4344 71.1164 16.138Z" fill="#12181D"/>
<path d="M121.652 40.1638C123.114 40.3307 123.903 40.8135 124.969 41.8194C125.582 42.6546 125.632 43.0716 125.632 44.1164C125.174 45.5163 124.493 45.9317 123.31 46.786C123.091 46.4582 122.872 46.1304 122.647 45.7927C122.756 45.5741 122.866 45.3556 122.979 45.1304C121.994 44.9665 121.994 44.9665 120.989 44.7993C120.595 43.619 120.57 42.728 120.657 41.4883C121.155 40.6812 121.155 40.6812 121.652 40.1638Z" fill="#1A272F"/>
<path d="M87.4917 25.9259C87.4917 26.4722 87.4917 27.0186 87.4917 27.5814C87.0505 27.6941 87.0505 27.6941 86.6004 27.8091C85.4513 28.175 85.4513 28.175 84.6727 29.1128C83.8435 29.8992 83.8435 29.8992 82.7864 30.0441C81.8536 29.8992 81.8536 29.8992 81.1903 29.237C81.1748 28.5437 81.1748 28.5437 81.2732 27.747C81.3023 27.4841 81.3314 27.2212 81.3613 26.9503C81.522 26.257 81.522 26.257 82.1853 25.5948C84.0331 25.0414 85.6677 25.4904 87.4917 25.9259Z" fill="#EEFCFE"/>
<path d="M78.2056 26.9194C78.4245 26.9194 78.6433 26.9194 78.8689 26.9194C78.8689 28.1214 78.8689 29.3233 78.8689 30.5616C78.597 30.5702 78.3251 30.5787 78.0449 30.5875C77.5088 30.6157 77.5088 30.6157 76.9619 30.6444C76.4309 30.6675 76.4309 30.6675 75.8892 30.691C74.6886 30.9332 74.3025 31.258 73.5624 32.2172C73.2491 32.891 73.2491 32.891 73.0649 33.583C72.643 34.8125 72.643 34.8125 71.9249 35.3213C71.6992 35.3896 71.4734 35.4579 71.2409 35.5283C70.9946 35.6512 70.7484 35.7741 70.4946 35.9008C70.3031 35.9964 70.1116 36.092 69.9142 36.1905C69.5707 34.5184 69.5486 32.9211 69.5826 31.2238C69.993 31.2853 70.4034 31.3468 70.8263 31.4101C72.226 31.5971 72.226 31.5971 73.5624 31.2238C73.6719 30.896 73.7813 30.5683 73.8941 30.2305C74.9885 30.012 76.083 29.7935 77.2106 29.5683C77.3132 29.2542 77.4158 28.94 77.5215 28.6164C77.8739 27.5817 77.8739 27.5817 78.2056 26.9194Z" fill="#5D6D6E"/>
<path d="M103.743 45.1304C104.564 45.6221 104.564 45.6221 105.401 46.1237C105.293 46.3943 105.184 46.6649 105.072 46.9437C104.682 48.3066 104.663 49.478 104.696 50.8834C104.699 51.1271 104.702 51.3708 104.705 51.6219C104.713 52.2173 104.725 52.8127 104.738 53.4081C104.3 53.5174 103.862 53.6266 103.411 53.7392C103.521 53.5207 103.63 53.3021 103.743 53.077C103.962 53.077 104.181 53.077 104.406 53.077C104.187 51.5473 103.968 50.0175 103.743 48.4415C103.271 48.473 102.799 48.5046 102.313 48.5372C101.684 48.5745 101.055 48.6115 100.426 48.6484C99.9614 48.6804 99.9614 48.6804 99.4871 48.7131C97.5484 48.8214 95.9733 48.7268 94.125 48.1103C93.9061 47.8918 93.6872 47.6733 93.4617 47.4481C93.6669 47.3594 93.8721 47.2706 94.0835 47.1791C94.8876 46.8006 94.8876 46.8006 95.4516 45.7926C95.4516 46.2297 95.4516 46.6667 95.4516 47.117C99.8081 47.2325 99.8081 47.2325 104.075 46.4548C103.965 46.0177 103.856 45.5807 103.743 45.1304Z" fill="#0A2E3A"/>
<path d="M117.341 25.9261C117.28 26.5273 117.28 26.5273 117.009 27.2505C116.276 27.7551 116.276 27.7551 115.32 28.2257C114.978 28.3977 114.636 28.5697 114.285 28.747C113.925 28.9224 113.565 29.0978 113.195 29.2786C112.486 29.6295 111.778 29.9821 111.07 30.3365C110.597 30.5684 110.597 30.5684 110.114 30.8049C109.337 31.1595 109.337 31.1595 109.049 31.886C108.283 32.2349 107.509 32.5672 106.728 32.8794C106.618 32.2238 106.509 31.5682 106.396 30.8927C107.539 30.2424 108.684 29.5945 109.829 28.9486C110.409 28.6213 110.987 28.2923 111.565 27.9632C111.933 27.7562 112.301 27.5492 112.679 27.3359C113.016 27.1451 113.353 26.9544 113.7 26.7579C116.332 25.4227 116.332 25.4227 117.341 25.9261Z" fill="#182E3A"/>
<path d="M88.8185 30.2305C89.0374 30.2305 89.2563 30.2305 89.4818 30.2305C89.6477 31.2445 89.6477 31.2445 89.4818 32.5482C88.412 33.8426 87.1998 34.9356 85.502 35.1971C85.0326 35.2185 84.5623 35.2256 84.0925 35.2178C83.4769 35.2075 83.4769 35.2075 82.8488 35.1971C82.8488 34.9786 82.8488 34.76 82.8488 34.5349C82.3038 34.1912 81.7502 33.8608 81.1905 33.5416C80.5272 32.8793 80.5272 32.8793 80.5272 31.886C80.7461 31.886 80.965 31.886 81.1905 31.886C81.3 31.6675 81.4094 31.4489 81.5222 31.2238C81.7274 31.4423 81.9326 31.6609 82.144 31.886C83.5902 32.8101 84.8216 32.8662 86.497 32.5482C87.5308 31.9866 88.2843 31.2971 88.8185 30.2305Z" fill="#8C0002"/>
<path d="M91.8038 46.4551C92.3578 46.7521 92.3578 46.7521 92.9231 47.0552C93.2348 47.2223 93.2348 47.2223 93.5527 47.3928C94.1253 47.7795 94.1253 47.7795 94.7886 48.7728C94.9531 50.0313 94.8777 50.608 94.229 51.7114C93.462 52.415 93.462 52.415 92.6536 52.6427C91.3528 52.2942 90.9292 51.5014 90.1455 50.4284C90.6927 49.1172 91.24 47.806 91.8038 46.4551Z" fill="#C5D0C9"/>
<path d="M129.944 53.7393C130.746 53.9514 130.746 53.9514 131.602 54.4015C131.909 55.2655 131.909 55.2655 132.038 56.3053C132.084 56.6451 132.131 56.9848 132.179 57.3349C132.264 58.3495 132.282 59.3438 132.266 60.3614C131.937 60.3614 131.609 60.3614 131.271 60.3614C131.161 60.58 131.052 60.7985 130.939 61.0236C130.431 60.1636 129.927 59.3013 129.426 58.4369C129.208 58.0703 129.208 58.0703 128.986 57.6964C128.85 57.4606 128.715 57.2248 128.575 56.9818C128.448 56.765 128.321 56.5483 128.191 56.325C127.954 55.7259 127.954 55.7259 128.286 54.7326C128.833 54.7326 129.38 54.7326 129.944 54.7326C129.944 54.4048 129.944 54.077 129.944 53.7393Z" fill="#1B3C44"/>
<path d="M97.773 49.1035C98.4297 49.1035 99.0863 49.1035 99.7629 49.1035C99.7629 50.6332 99.7629 52.163 99.7629 53.739C97.4101 53.7924 95.3691 53.822 93.1299 53.0768C92.911 52.8583 92.6921 52.6398 92.4666 52.4146C93.1091 52.2284 93.1091 52.2284 93.7932 52.0835C93.9026 52.1928 94.0121 52.302 94.1248 52.4146C95.0761 52.2746 95.0761 52.2746 96.1147 51.7524C96.5749 51.0764 96.9379 50.3992 97.2859 49.6597C97.4466 49.4761 97.6074 49.2926 97.773 49.1035Z" fill="#8B9492"/>
<path d="M89.482 56.7192C89.9105 57.3609 90.3227 58.0139 90.7141 58.6787C91.5801 59.8449 92.3987 60.3961 93.6484 61.1271C93.8397 61.2417 94.031 61.3563 94.2282 61.4744C97.266 63.2689 100.464 62.9402 103.785 62.0998C107.019 61.2433 110.226 60.2404 113.029 58.3748C111.967 60.5721 111.967 60.5721 111.09 60.9719C110.726 61.0795 110.726 61.0795 110.355 61.1892C110.088 61.2707 109.821 61.3523 109.546 61.4362C109.273 61.5186 108.999 61.601 108.718 61.6859C108.22 61.8572 107.723 62.0297 107.225 62.2032C103.704 63.3691 98.5862 64.7613 95.0825 63.0245C94.8761 62.9106 94.6696 62.7966 94.4568 62.6792C94.1853 62.5345 93.9139 62.3898 93.6342 62.2407C91.9038 61.2685 90.5436 60.4016 89.482 58.7059C89.3784 57.5884 89.3784 57.5884 89.482 56.7192Z" fill="#72BFC4"/>
<path d="M122.647 32.5484C121.035 33.8427 119.702 34.4728 117.685 34.9411C117.462 35.0257 117.239 35.1102 117.009 35.1972C116.9 35.525 116.79 35.8528 116.677 36.1906C116.021 36.2998 115.364 36.4091 114.687 36.5217C114.797 36.3031 114.906 36.0846 115.019 35.8595C114.472 35.7502 113.925 35.6409 113.361 35.5283C113.361 34.982 113.361 34.4357 113.361 33.8728C115.596 32.9061 117.446 32.4029 119.89 32.5341C121.042 32.5555 121.493 32.1642 122.647 32.5484Z" fill="#4BD3D2"/>
<path d="M118.004 41.8196C118.113 41.8196 118.223 41.8196 118.335 41.8196C118.5 44.1142 118.5 44.1142 118.667 46.4551C117.596 46.6778 116.525 46.8982 115.454 47.1173C115.152 47.1805 114.849 47.2437 114.538 47.3087C114.097 47.3984 114.097 47.3984 113.647 47.4898C113.378 47.5453 113.109 47.6008 112.831 47.658C112.001 47.7846 111.215 47.8004 110.376 47.7795C112.149 46.2857 114.025 45.087 116.138 44.1373C117.109 43.6737 117.299 43.5516 117.838 42.5646C117.893 42.3187 117.947 42.0729 118.004 41.8196Z" fill="#656B6B"/>
<path d="M91.1405 59.0369C93.2178 59.3505 94.8985 59.7321 96.7786 60.6924C97.8568 60.7758 97.8568 60.7758 98.7685 60.6924C98.9874 60.1461 99.2063 59.5997 99.4318 59.0369C99.5413 59.0369 99.6507 59.0369 99.7635 59.0369C99.7635 60.1295 99.7635 61.2222 99.7635 62.348C100.201 62.5665 100.639 62.785 101.09 63.0102C97.3709 63.3336 94.8586 62.5263 91.8556 60.3354C91.5016 60.0204 91.5016 60.0204 91.1405 59.6991C91.1405 59.4806 91.1405 59.262 91.1405 59.0369Z" fill="#122735"/>
<path d="M87.8233 25.595C89.4613 27.1775 89.4613 27.1775 89.514 28.2257C89.5032 28.894 89.4924 29.5622 89.4816 30.2305C89.2627 30.2305 89.0438 30.2305 88.8183 30.2305C88.7294 30.4354 88.6405 30.6402 88.5488 30.8513C88.155 31.5549 88.155 31.5549 87.16 32.2171C87.16 31.9986 87.16 31.7801 87.16 31.5549C86.175 31.5549 85.19 31.5549 84.1752 31.5549C84.3941 30.8993 84.613 30.2437 84.8385 29.5683C85.0574 29.5683 85.2763 29.5683 85.5018 29.5683C85.5018 29.3497 85.5018 29.1312 85.5018 28.9061C86.3798 28.4224 86.7934 28.2438 87.8233 28.2438C87.8233 27.3697 87.8233 26.4956 87.8233 25.595Z" fill="#FF1A1A"/>
<path d="M87.4921 20.6282C88.6487 21.3595 89.0888 21.9683 89.482 23.277C89.482 23.6048 89.482 23.9326 89.482 24.2704C89.2631 24.2704 89.0442 24.2704 88.8187 24.2704C88.8187 24.926 88.8187 25.5816 88.8187 26.257C88.5891 26.0835 88.5891 26.0835 88.3549 25.9065C86.7408 24.7823 85.5123 24.407 83.546 24.3493C82.849 24.2704 82.849 24.2704 82.1857 23.6082C82.5173 22.9459 82.5173 22.9459 83.0718 22.7403C84.0303 22.5845 84.9459 22.5836 85.9168 22.5941C86.2742 22.5971 86.6316 22.6001 86.9998 22.6032C87.2717 22.607 87.5436 22.6109 87.8238 22.6148C87.7143 21.9592 87.6049 21.3036 87.4921 20.6282Z" fill="#0F2534"/>
<path d="M83.8438 18.9729C84.9631 18.9315 84.9631 18.9315 86.1653 18.9729C87.361 20.1667 87.8656 21.3022 88.1552 22.9462C87.8671 22.9424 87.5789 22.9386 87.2821 22.9346C86.8999 22.9316 86.5177 22.9286 86.1239 22.9255C85.5583 22.9198 85.5583 22.9198 84.9812 22.9139C83.8475 22.9154 83.8475 22.9154 82.7685 23.1545C81.8538 23.2773 81.8538 23.2773 80.8589 22.6151C81.0983 22.5468 81.3377 22.4785 81.5844 22.4082C82.515 21.954 82.7547 21.7131 83.3463 20.9182C84.1754 19.9663 84.1754 19.9663 85.1082 19.8421C85.3476 19.8831 85.587 19.924 85.8337 19.9663C85.8337 19.7477 85.8337 19.5292 85.8337 19.304C85.177 19.304 84.5203 19.304 83.8438 19.304C83.8438 19.1948 83.8438 19.0855 83.8438 18.9729Z" fill="#5C625C"/>
<path d="M131.27 26.2573C131.489 26.3666 131.708 26.4759 131.934 26.5884C130.672 27.7332 129.598 28.1647 127.954 28.5751C127.844 28.6844 127.735 28.7936 127.622 28.9062C127.95 29.0155 128.279 29.1247 128.617 29.2373C128.617 29.6744 128.617 30.1114 128.617 30.5617C128.179 30.5617 127.741 30.5617 127.29 30.5617C127.29 30.7803 127.29 30.9988 127.29 31.224C126.251 31.8391 125.508 31.9529 124.306 31.8862C124.306 31.6676 124.306 31.4491 124.306 31.224C124.962 31.224 125.619 31.224 126.295 31.224C126.295 30.8962 126.295 30.5684 126.295 30.2306C124.873 30.2306 123.45 30.2306 121.984 30.2306C121.984 30.0121 121.984 29.7936 121.984 29.5684C122.254 29.4799 122.523 29.3913 122.801 29.3001C123.798 28.972 124.795 28.643 125.792 28.3134C126.224 28.1708 126.656 28.0285 127.088 27.8866C127.708 27.6829 128.328 27.4778 128.947 27.2726C129.508 27.088 129.508 27.088 130.079 26.8996C130.904 26.6694 130.904 26.6694 131.27 26.2573Z" fill="#8961DA"/>
<path d="M72.5673 23.6084C72.899 24.2706 72.899 24.2706 72.6528 25.0855C72.5288 25.4039 72.4049 25.7223 72.2771 26.0503C71.8691 27.1071 71.4876 28.1308 71.2407 29.2372C71.569 29.3465 71.8974 29.4558 72.2357 29.5684C72.6295 30.2513 72.6295 30.2513 72.899 30.8928C72.5706 30.8928 72.2423 30.8928 71.904 30.8928C71.904 30.6743 71.904 30.4557 71.904 30.2306C71.6851 30.2306 71.4662 30.2306 71.2407 30.2306C71.2407 30.5584 71.2407 30.8862 71.2407 31.2239C70.6935 31.2239 70.1463 31.2239 69.5824 31.2239C69.5824 31.8795 69.5824 32.5351 69.5824 33.2105C69.473 33.2105 69.3636 33.2105 69.2508 33.2105C69.1432 29.9337 69.2596 26.502 71.5724 23.9395C71.9007 23.8302 72.229 23.721 72.5673 23.6084Z" fill="#CEDFDB"/>
<path d="M103.743 45.1304C103.853 45.5674 103.962 46.0045 104.075 46.4548C101.427 47.568 98.9537 47.6303 96.1151 47.4481C95.8962 47.3389 95.6773 47.2296 95.4518 47.117C95.4518 46.68 95.4518 46.2429 95.4518 45.7926C95.9975 45.7625 95.9975 45.7625 96.5543 45.7318C97.0366 45.7038 97.519 45.6758 98.0014 45.6477C98.2406 45.6347 98.4798 45.6217 98.7262 45.6083C100.418 45.508 102.055 45.1304 103.743 45.1304Z" fill="#CC2020"/>
<path d="M108.718 62.0169C107.915 64.6394 107.915 64.6394 106.72 65.4547C105.959 65.7842 105.192 66.0542 104.407 66.3213C104.065 66.5125 103.723 66.7037 103.37 66.9008C101.497 67.7265 99.1205 67.3844 97.1102 67.3146C97.1102 67.2054 97.1102 67.0961 97.1102 66.9835C97.5309 66.9707 97.5309 66.9707 97.9601 66.9577C100.596 66.8261 102.84 66.6402 104.718 64.6451C105.115 63.9662 105.115 63.9662 105.402 63.0102C104.854 63.0102 104.307 63.0102 103.743 63.0102C103.743 62.901 103.743 62.7917 103.743 62.6791C105.476 62.1935 106.921 61.9421 108.718 62.0169Z" fill="#3C8C91"/>
<path d="M107.059 41.4883C107.868 41.509 107.868 41.509 108.717 41.8194C109.728 43.045 109.891 44.2389 110.044 45.7927C108.84 45.7927 107.636 45.7927 106.396 45.7927C106.331 43.0119 106.331 43.0119 106.396 42.1505C106.615 41.932 106.834 41.7134 107.059 41.4883Z" fill="#243033"/>
<path d="M123.166 17.2966C123.566 17.3069 123.566 17.3069 123.974 17.3173C123.984 18.3589 123.989 19.4005 123.995 20.4422C123.997 20.7394 124 21.0367 124.003 21.343C124.004 21.6258 124.005 21.9085 124.006 22.1999C124.008 22.4617 124.01 22.7235 124.012 22.9933C123.974 23.6084 123.974 23.6084 123.642 23.9395C123.09 23.953 122.537 23.9536 121.984 23.9395C121.974 22.8979 121.969 21.8563 121.963 20.8147C121.961 20.5174 121.958 20.2201 121.955 19.9138C121.954 19.631 121.953 19.3483 121.952 19.0569C121.949 18.6642 121.949 18.6642 121.946 18.2635C122.006 17.2852 122.181 17.3206 123.166 17.2966Z" fill="#080B0E"/>
<path d="M106.727 65.9902C105.351 67.5222 103.981 68.3375 101.908 68.4516C101.359 68.4572 100.809 68.4575 100.26 68.4529C99.9851 68.4595 99.7102 68.4661 99.427 68.4729C97.5654 68.4714 96.5466 68.1943 95.1194 66.9836C95.0099 66.765 94.9005 66.5465 94.7877 66.3213C95.1195 66.4285 95.4512 66.5356 95.793 66.646C99.8656 67.8025 102.929 65.7581 106.727 65.9902Z" fill="#E64646"/>
<path d="M93.4619 26.5884C93.5713 26.5884 93.6808 26.5884 93.7935 26.5884C93.7935 27.681 93.7935 28.7737 93.7935 29.8995C94.0124 29.8995 94.2313 29.8995 94.4568 29.8995C94.5663 29.4624 94.6757 29.0253 94.7885 28.575C94.919 30.2691 94.5503 31.258 93.7313 32.7346C93.5351 33.097 93.3389 33.4593 93.1367 33.8327C92.4499 34.8923 91.7677 35.7005 90.8086 36.5216C89.71 36.6251 89.71 36.6251 88.8187 36.5216C88.9431 36.3812 89.0675 36.2408 89.1957 36.0961C91.8718 33.0341 93.1063 30.7085 93.4619 26.5884Z" fill="#94DEDC"/>
<path d="M68.1523 15.3102C68.5544 15.3147 68.5544 15.3147 68.9646 15.3193C69.2705 15.325 69.2705 15.325 69.5826 15.3309C69.5826 15.4402 69.5826 15.5495 69.5826 15.662C68.4881 15.8806 67.3937 16.0991 66.2661 16.3242C66.4849 16.5428 66.7038 16.7613 66.9294 16.9865C66.5977 17.6487 66.5977 17.6487 65.6649 18.104C64.5912 18.576 64.5912 18.576 63.903 19.387C63.6978 19.5782 63.4926 19.7694 63.2812 19.9664C62.5454 19.9035 62.1485 19.829 61.6229 19.3042C61.6094 18.7525 61.6087 18.2003 61.6229 17.6487C62.2651 17.3237 62.9078 16.9996 63.5506 16.6761C63.9085 16.4955 64.2663 16.315 64.635 16.1289C65.8832 15.5267 66.7815 15.2904 68.1523 15.3102Z" fill="#1F262C"/>
<path d="M123.683 30.0445C124.058 30.0705 124.058 30.0705 124.441 30.0969C125.059 30.1399 125.677 30.1851 126.294 30.2308C126.294 30.5586 126.294 30.8864 126.294 31.2241C125.638 31.2241 124.981 31.2241 124.305 31.2241C124.305 31.4426 124.305 31.6612 124.305 31.8863C120.283 33.0866 120.283 33.0866 118.666 32.8797C118.448 32.6611 118.229 32.4426 118.003 32.2174C118.769 31.9989 119.535 31.7804 120.325 31.5552C120.106 31.3367 119.887 31.1182 119.661 30.893C119.88 30.893 120.099 30.893 120.325 30.893C120.325 30.6745 120.325 30.4559 120.325 30.2308C121.39 29.6988 122.523 29.9576 123.683 30.0445Z" fill="#322CD9"/>
<path d="M95.1194 55.7261C99.7161 55.89 99.7161 55.89 104.406 56.0572C104.187 56.4942 103.968 56.9313 103.742 57.3816C102.602 57.3912 101.462 57.3971 100.322 57.4023C99.8364 57.4065 99.8364 57.4065 99.3408 57.4107C99.0298 57.4118 98.7188 57.4129 98.3983 57.414C98.1118 57.4157 97.8252 57.4174 97.5299 57.4192C96.7776 57.3816 96.7776 57.3816 95.7827 57.0505C95.7827 56.832 95.7827 56.6134 95.7827 56.3883C95.5638 56.3883 95.3449 56.3883 95.1194 56.3883C95.1194 56.1698 95.1194 55.9512 95.1194 55.7261Z" fill="#68F4F4"/>
<path d="M81.1899 26.5884C81.6285 27.464 81.5537 28.1372 81.5423 29.1131C81.5393 29.4451 81.5363 29.7772 81.5332 30.1193C81.5294 30.3746 81.5255 30.6298 81.5216 30.8928C82.2877 30.8928 83.0538 30.8928 83.8431 30.8928C84.062 30.4557 84.2809 30.0187 84.5064 29.5684C84.6159 29.7869 84.7253 30.0054 84.8381 30.2306C84.5272 30.9342 84.5272 30.9342 84.1748 31.555C84.5031 31.4457 84.8315 31.3365 85.1697 31.2239C85.836 31.3152 86.5003 31.4233 87.1597 31.555C87.1597 31.8828 87.1597 32.2106 87.1597 32.5483C85.9229 33.1657 84.5265 33.065 83.1798 32.8794C82.1217 32.3426 81.4499 31.566 80.7339 30.6238C80.4024 29.4655 80.4488 28.4549 80.5266 27.2506C80.7455 27.0321 80.9644 26.8135 81.1899 26.5884Z" fill="#E54646"/>
<path d="M89.4814 54.0706C90.4467 54.4107 91.1819 54.7639 92.0103 55.3743C95.1663 57.2998 98.8251 57.2598 102.416 57.3816C102.416 57.4909 102.416 57.6002 102.416 57.7128C101.352 57.7321 100.288 57.7438 99.2237 57.7541C98.924 57.7597 98.6243 57.7652 98.3156 57.771C96.6542 57.7831 95.3606 57.6613 93.7929 57.0505C92.7149 56.9949 92.7149 56.9949 91.803 57.0505C91.5841 57.4876 91.3652 57.9247 91.1397 58.375C90.9277 58.1018 90.7156 57.8286 90.4971 57.5472C90.2714 57.274 90.0457 57.0009 89.8131 56.7194C89.7037 56.7194 89.5942 56.7194 89.4814 56.7194C89.4814 55.8453 89.4814 54.9712 89.4814 54.0706Z" fill="#33868D"/>
<path d="M121.652 21.9529C121.871 22.0621 122.09 22.1714 122.315 22.284C122.315 22.9396 122.315 23.5952 122.315 24.2706C121.564 24.7232 120.811 25.1707 120.056 25.6158C119.843 25.7449 119.629 25.874 119.41 26.007C118.845 26.3372 118.259 26.6308 117.672 26.9195C117.344 26.8102 117.015 26.701 116.677 26.5884C116.677 26.3699 116.677 26.1513 116.677 25.9262C116.458 25.8169 116.239 25.7077 116.014 25.5951C116.71 25.1509 117.408 24.7099 118.107 24.2706C118.305 24.1443 118.502 24.018 118.705 23.8878C120.212 22.9462 120.212 22.9462 121.32 22.9462C121.43 22.6184 121.539 22.2906 121.652 21.9529Z" fill="#1F343B"/>
<path d="M82.5172 54.0706C83.0645 54.5076 83.6117 54.9447 84.1755 55.395C83.9566 55.395 83.7377 55.395 83.5122 55.395C83.4711 55.7843 83.4301 56.1735 83.3878 56.5746C83.2255 57.8919 82.9134 59.096 82.5172 60.3616C82.0795 60.3616 81.6417 60.3616 81.1906 60.3616C81.1294 56.5467 81.1294 56.5467 81.5223 54.7328C81.8506 54.7328 82.1789 54.7328 82.5172 54.7328C82.5172 54.5142 82.5172 54.2957 82.5172 54.0706Z" fill="#728A89"/>
<path d="M112.366 52.0835C112.585 52.1928 112.803 52.302 113.029 52.4146C113.029 52.5239 113.029 52.6331 113.029 52.7457C113.248 52.7457 113.467 52.7457 113.692 52.7457C113.895 57.3771 113.895 57.3771 112.138 59.3265C111.922 59.5109 111.922 59.5109 111.702 59.699C111.484 59.5897 111.265 59.4805 111.039 59.3679C111.249 59.1955 111.46 59.023 111.676 58.8454C112.548 57.8316 112.622 57.1237 112.78 55.8085C112.83 55.4209 112.879 55.0334 112.931 54.6341C112.963 54.3387 112.996 54.0433 113.029 53.739C112.708 53.8961 112.386 54.0532 112.055 54.215C110.629 54.8274 109.255 54.9371 107.723 55.0635C106.947 55.1643 106.175 55.2796 105.401 55.3946C106.727 54.5117 108.145 54.0588 109.637 53.5127C110.711 53.1095 110.711 53.1095 111.632 52.5064C111.874 52.3669 112.116 52.2273 112.366 52.0835Z" fill="#FF0B0B"/>
<path d="M123.706 32.0077C123.904 32.0768 124.102 32.146 124.306 32.2172C123.947 32.5655 123.947 32.5655 123.58 32.9208C122.93 33.5628 122.359 34.2285 121.798 34.9489C120.96 35.8918 120.828 36.0104 119.663 36.1905C119.138 36.2122 118.612 36.2189 118.087 36.2112C117.822 36.2082 117.557 36.2052 117.284 36.2022C117.084 36.1983 116.884 36.1945 116.678 36.1905C117.009 35.1972 117.009 35.1972 117.758 34.7962C118.072 34.6691 118.386 34.5419 118.709 34.4108C119.911 33.9004 120.936 33.3945 121.963 32.5897C122.979 31.8861 122.979 31.8861 123.706 32.0077Z" fill="#797DE4"/>
<path d="M83.5121 24.6018C86.5037 24.3453 86.5037 24.3453 87.72 25.3054C88.2451 26.4538 88.1588 27.0447 87.8236 28.244C87.0575 28.4625 86.2914 28.6811 85.502 28.9062C85.502 29.1247 85.502 29.3433 85.502 29.5684C85.29 29.664 85.0779 29.7596 84.8595 29.8582C84.125 30.1738 84.125 30.1738 83.8438 30.8929C83.0777 30.8929 82.3115 30.8929 81.5222 30.8929C81.4128 30.3465 81.3033 29.8002 81.1906 29.2373C81.5189 29.4012 81.5189 29.4012 81.8539 29.5684C82.8067 29.7343 82.8067 29.7343 83.8438 29.5684C84.4035 29.0236 84.9561 28.4715 85.502 27.9129C86.6006 27.6439 86.6006 27.6439 87.4919 27.5818C87.4919 27.0355 87.4919 26.4891 87.4919 25.9262C85.1936 25.7623 85.1936 25.7623 82.8488 25.5951C83.0677 25.4859 83.2866 25.3766 83.5121 25.264C83.5121 25.0455 83.5121 24.827 83.5121 24.6018Z" fill="#E64646"/>
<path d="M96.1151 32.2173C96.2245 32.2173 96.334 32.2173 96.4468 32.2173C96.5562 32.8729 96.6656 33.5285 96.7784 34.2039C96.9973 33.9854 97.2162 33.7669 97.4417 33.5417C97.5264 33.8113 97.5264 33.8113 97.6127 34.0862C97.7333 34.4416 97.7333 34.4416 97.8563 34.8041C97.9332 35.0384 98.0102 35.2727 98.0895 35.5141C98.5282 36.3689 98.926 36.713 99.7633 37.1839C100.622 37.3032 100.622 37.3032 101.504 37.246C102.024 37.2255 102.544 37.205 103.08 37.1839C103.299 35.982 103.518 34.7801 103.743 33.5417C103.962 33.5417 104.181 33.5417 104.406 33.5417C104.377 34.0112 104.341 34.4802 104.303 34.9489C104.284 35.2101 104.264 35.4714 104.244 35.7405C104.036 36.7017 103.794 37.1651 103.08 37.8461C101.734 38.1409 100.452 38.0972 99.1 37.8461C98.2623 37.2508 97.9706 36.7647 97.4417 35.8595C97.4417 36.6243 97.4417 37.3892 97.4417 38.1772C96.3995 37.3259 96.0734 36.4999 95.7834 35.1973C95.8262 34.1914 95.9516 33.2102 96.1151 32.2173Z" fill="#345C66"/>
<path d="M120.325 30.8929C120.544 31.1114 120.763 31.3299 120.989 31.5551C113.822 34.2539 113.822 34.2539 110.707 34.204C110.707 33.9854 110.707 33.7669 110.707 33.5417C111.056 33.4376 111.404 33.3334 111.763 33.2261C115.163 32.2028 115.163 32.2028 118.403 30.7609C119.173 30.5037 119.575 30.6049 120.325 30.8929Z" fill="#FC1693"/>
<path d="M123.311 23.9397C123.311 24.1582 123.311 24.3768 123.311 24.6019C115.667 28.811 115.667 28.811 112.097 30.5205C111.867 30.6327 111.638 30.745 111.402 30.8606C109.833 31.5951 109.833 31.5951 108.718 31.2241C108.965 31.0975 109.212 30.971 109.466 30.8406C110.613 30.2521 111.759 29.6623 112.905 29.0719C113.11 28.9664 113.315 28.8609 113.526 28.7522C116.233 27.3567 118.908 25.9283 121.518 24.3562C122.316 23.9397 122.316 23.9397 123.311 23.9397Z" fill="#A3C4C8"/>
<path d="M101.09 31.8862C102.189 33.2408 102.583 34.1167 102.417 35.8595C100.409 35.9242 100.409 35.9242 99.7636 35.8595C99.5448 35.641 99.3259 35.4225 99.1003 35.1973C99.2107 33.1773 99.2107 33.1773 99.9087 32.238C100.427 31.8862 100.427 31.8862 101.09 31.8862Z" fill="#4ADEE0"/>
<path d="M115.35 49.7659C115.364 50.4279 115.364 51.0904 115.35 51.7525C115.241 51.8618 115.131 51.9711 115.018 52.0836C114.94 52.92 114.878 53.7495 114.832 54.5876C114.817 54.823 114.803 55.0584 114.788 55.3009C114.753 55.884 114.72 56.4671 114.687 57.0503C114.358 57.0503 114.03 57.0503 113.692 57.0503C113.692 55.6298 113.692 54.2093 113.692 52.7458C113.254 52.8551 112.816 52.9644 112.365 53.077C112.561 52.5854 112.762 52.096 112.966 51.6077C113.078 51.3349 113.189 51.0622 113.304 50.7812C113.821 49.869 114.323 49.7659 115.35 49.7659Z" fill="#B4A1F7"/>
<path d="M81.8537 23.2773C82.517 23.6085 82.517 23.6085 82.8487 23.9396C83.4065 24.0167 83.9668 24.0762 84.5277 24.1258C84.9849 24.1674 84.9849 24.1674 85.4514 24.2099C85.8047 24.24 85.8047 24.24 86.1652 24.2707C86.1652 24.3799 86.1652 24.4892 86.1652 24.6018C85.2897 24.6018 84.4141 24.6018 83.512 24.6018C83.512 24.8203 83.512 25.0388 83.512 25.264C82.8576 25.7185 82.1935 26.1594 81.5221 26.5884C80.7147 27.2461 80.7147 27.2461 80.7966 28.5337C80.8189 29.4739 80.8903 30.325 81.1904 31.224C80.7527 31.1147 80.3149 31.0054 79.8638 30.8928C79.5399 29.3429 79.2961 28.0709 80.1126 26.6505C81.3563 24.8915 81.3563 24.8915 81.8537 24.2707C81.6349 24.1614 81.416 24.0521 81.1904 23.9396C81.4093 23.721 81.6282 23.5025 81.8537 23.2773Z" fill="#094355"/>
<path d="M94.4566 48.1104C95.5511 48.4381 96.6455 48.7659 97.7732 49.1037C97.3763 50.5564 97.0067 51.4987 95.7832 52.4148C94.7054 52.6631 94.7054 52.6631 93.7933 52.7459C94.0835 51.1317 94.0835 51.1317 94.4566 50.7592C94.4803 50.3114 94.4845 49.8625 94.4774 49.4141C94.4705 48.9839 94.4637 48.5536 94.4566 48.1104Z" fill="#B1B8B2"/>
<path d="M113.361 33.542C113.361 34.1976 113.361 34.8532 113.361 35.5286C114.237 35.5286 115.112 35.5286 116.014 35.5286C114.632 36.78 113.469 36.6424 111.679 36.6009C110.609 36.514 109.7 36.2957 108.718 35.8598C109.609 34.9705 110.501 34.8464 111.703 34.5353C111.703 34.3168 111.703 34.0983 111.703 33.8731C112.698 33.542 112.698 33.542 113.361 33.542Z" fill="#30ABBA"/>
<path d="M83.5123 49.766C85.5527 49.7336 85.5527 49.7336 86.1655 49.766C86.275 49.8752 86.3844 49.9845 86.4972 50.0971C86.3697 51.4456 86.2055 52.569 85.5022 53.7393C84.0202 53.5749 83.6151 53.5108 82.5173 52.4148C83.2835 51.7592 84.0496 51.1036 84.8389 50.4282C84.4011 50.2096 83.9633 49.9911 83.5123 49.766Z" fill="#9F9D8F"/>
<path d="M109.444 54.7118C109.642 54.8279 109.84 54.944 110.045 55.0636C107.931 56.1148 106.115 56.9162 103.743 57.0502C103.853 56.8317 103.962 56.6132 104.075 56.388C101.667 56.2787 99.2593 56.1695 96.7786 56.0569C96.7786 55.9476 96.7786 55.8384 96.7786 55.7258C96.9805 55.7192 97.1824 55.7127 97.3905 55.7059C100.316 55.6059 107.081 53.701 109.444 54.7118Z" fill="#36E6E5"/>
<path d="M78.8692 25.595C79.0881 25.595 79.3069 25.595 79.5325 25.595C79.423 26.032 79.3136 26.4691 79.2008 26.9194C78.8725 26.9194 78.5441 26.9194 78.2059 26.9194C78.1033 27.2335 78.0007 27.5477 77.8949 27.8713C77.3459 29.4834 77.3459 29.4834 76.6512 29.9201C75.8843 30.2305 75.8843 30.2305 74.8272 30.396C74.5193 30.4507 74.2115 30.5053 73.8944 30.5616C73.7849 30.7801 73.6755 30.9987 73.5627 31.2238C73.2344 31.2238 72.9061 31.2238 72.5678 31.2238C72.5678 31.9887 72.5678 32.7535 72.5678 33.5416C72.4583 33.5416 72.3489 33.5416 72.2361 33.5416C72.2361 32.886 72.2361 32.2304 72.2361 31.5549C71.47 31.5549 70.7039 31.5549 69.9146 31.5549C70.3523 31.4457 70.7901 31.3364 71.2412 31.2238C71.2412 30.896 71.2412 30.5682 71.2412 30.2305C71.4601 30.2305 71.6789 30.2305 71.9045 30.2305C71.9045 30.449 71.9045 30.6676 71.9045 30.8927C72.2328 30.8927 72.5611 30.8927 72.8994 30.8927C73.0089 30.3464 73.1183 29.8 73.2311 29.2372C73.3405 29.4557 73.45 29.6742 73.5627 29.8994C75.3393 29.4689 76.1271 28.7575 77.2938 27.3747C77.8068 26.771 78.3292 26.1748 78.8692 25.595Z" fill="#969F99"/>
<path d="M129.944 16.655C130.162 16.7643 130.381 16.8736 130.607 16.9861C130.343 17.1724 130.343 17.1724 130.073 17.3625C128.114 18.7626 128.114 18.7626 126.627 20.6283C126.516 21.6911 126.516 21.6911 126.627 22.615C126.08 22.7242 125.533 22.8335 124.969 22.9461C124.872 20.0434 124.872 20.0434 125.632 18.9728C126.617 18.3248 126.617 18.3248 127.788 17.7104C128.083 17.5494 128.083 17.5494 128.385 17.3851C128.893 17.118 129.417 16.8838 129.944 16.655Z" fill="#676D6E"/>
<path d="M90.4764 44.4683C91.1331 44.4683 91.7898 44.4683 92.4663 44.4683C92.798 45.4616 92.798 45.4616 92.4909 46.2247C92.2633 46.646 92.2633 46.646 92.031 47.0757C91.4429 48.1761 90.9222 49.2624 90.4764 50.4282C90.2575 50.4282 90.0386 50.4282 89.8131 50.4282C89.8602 49.7452 89.9089 49.0623 89.9582 48.3795C89.9851 47.9992 90.0121 47.6189 90.0398 47.2271C90.1295 46.2841 90.2692 45.3914 90.4764 44.4683Z" fill="#F3F7F4"/>
<path d="M111.702 60.3616C111.193 61.4913 110.527 62.3961 109.754 63.3622C109.529 63.6461 109.304 63.9299 109.072 64.2224C108.436 64.9407 107.875 65.4869 107.059 65.9904C105.981 66.0525 105.981 66.0525 105.069 65.9904C105.261 65.9085 105.452 65.8265 105.65 65.7421C107.137 64.9169 107.852 63.9478 108.386 62.3482C108.167 62.1297 107.948 61.9112 107.723 61.686C108.261 61.4639 108.8 61.2435 109.339 61.0238C109.639 60.9009 109.94 60.7779 110.249 60.6513C111.039 60.3616 111.039 60.3616 111.702 60.3616Z" fill="#103594"/>
<path d="M131.933 55.7261C132.042 55.7261 132.151 55.7261 132.264 55.7261C132.925 59.4073 133.425 62.9014 133.259 66.6527C133.15 66.6527 133.04 66.6527 132.928 66.6527C132.684 65.9229 132.44 65.1931 132.198 64.4629C131.986 63.8313 131.764 63.203 131.539 62.5759C131.269 61.686 131.269 61.686 131.269 60.3616C131.598 60.3616 131.926 60.3616 132.264 60.3616C132.21 60.0884 132.155 59.8153 132.098 59.5338C131.913 58.2383 131.91 57.0333 131.933 55.7261Z" fill="#3C8C91"/>
<path d="M89.8131 50.7595C89.9225 50.7595 90.032 50.7595 90.1448 50.7595C90.1516 51.1146 90.1584 51.4697 90.1655 51.8356C90.3564 53.1457 90.3564 53.1457 91.4506 53.8223C92.9354 54.5388 94.5249 54.9736 96.1145 55.395C95.7862 55.5043 95.4578 55.6136 95.1195 55.7262C95.1195 55.9447 95.1195 56.1632 95.1195 56.3884C95.3384 56.4976 95.5573 56.6069 95.7828 56.7195C93.1909 56.6707 91.5656 55.5356 89.4814 54.0706C89.5909 52.9779 89.7003 51.8853 89.8131 50.7595Z" fill="#2CD4D9"/>
<path d="M116.76 49.6626C117.318 50.3988 117.543 50.851 117.672 51.7527C117.454 51.7527 117.235 51.7527 117.009 51.7527C117.009 51.4249 117.009 51.0971 117.009 50.7594C116.79 50.7594 116.571 50.7594 116.346 50.7594C116.455 51.415 116.565 52.0706 116.678 52.746C116.349 52.746 116.021 52.746 115.683 52.746C115.683 54.6035 115.683 56.4611 115.683 58.3749C114.839 57.1114 114.933 56.0905 114.957 54.6292C114.957 54.3819 114.957 54.1345 114.958 53.8797C114.969 52.4747 115.076 51.1494 115.351 49.766C114.913 49.8753 114.475 49.9846 114.024 50.0971C114.356 49.4349 114.356 49.4349 115.123 49.1452C116.014 49.1038 116.014 49.1038 116.76 49.6626Z" fill="#264A5B"/>
<path d="M117.672 53.4082C118.11 53.9545 118.548 54.5009 118.999 55.0637C119.218 54.7359 119.437 54.4082 119.662 54.0704C119.68 55.05 119.693 56.0293 119.704 57.009C119.709 57.2877 119.715 57.5664 119.72 57.8536C119.723 58.1204 119.725 58.3871 119.727 58.662C119.73 58.9082 119.734 59.1544 119.738 59.4081C119.662 60.0304 119.662 60.0304 118.999 60.6926C118.774 59.914 118.554 59.1346 118.336 58.3541C118.241 58.0279 118.241 58.0279 118.144 57.6952C117.74 56.2334 117.609 54.9381 117.672 53.4082Z" fill="#217E82"/>
<path d="M107.411 54.0496C107.894 54.0598 107.894 54.0598 108.386 54.0703C105.776 55.8074 102.934 55.86 99.887 55.7879C99.5224 55.7834 99.1577 55.7789 98.782 55.7743C97.8926 55.7627 97.0037 55.7465 96.1145 55.7258C96.1145 55.6165 96.1145 55.5073 96.1145 55.3947C96.8806 55.3947 97.6467 55.3947 98.4361 55.3947C98.5455 55.0669 98.655 54.7391 98.7677 54.4014C99.0961 54.5106 99.4244 54.6199 99.7627 54.7325C100.251 54.7413 100.739 54.7296 101.227 54.704C101.506 54.6895 101.786 54.675 102.074 54.66C102.365 54.643 102.655 54.6259 102.955 54.6083C103.248 54.5938 103.541 54.5793 103.844 54.5643C105.149 54.4924 106.212 54.074 107.411 54.0496Z" fill="#F71919"/>
<path d="M81.8533 24.2705C81.4454 25.1189 81.0114 25.8624 80.4852 26.6504C79.6715 28.0345 79.7356 29.3295 79.8634 30.8927C80.3012 31.0019 80.7389 31.1112 81.19 31.2238C81.19 31.4423 81.19 31.6609 81.19 31.886C80.9711 31.886 80.7522 31.886 80.5267 31.886C80.4172 32.1045 80.3078 32.3231 80.195 32.5482C79.0922 30.6559 78.4516 29.1263 78.8684 26.9194C80.3156 24.2705 80.3156 24.2705 81.8533 24.2705Z" fill="#06111C"/>
<path d="M90.8081 36.5215C90.2836 36.9981 89.7583 37.4739 89.2327 37.9494C88.9403 38.2144 88.6479 38.4795 88.3466 38.7526C87.6393 39.372 86.9271 39.9454 86.165 40.4948C86.165 40.2762 86.165 40.0577 86.165 39.8326C85.8366 40.0511 85.5083 40.2696 85.17 40.4948C84.4445 40.3706 84.4445 40.3706 83.8434 40.1637C85.4187 39.1703 85.4187 39.1703 86.165 39.1703C86.2402 38.9586 86.3154 38.7469 86.393 38.5288C86.8283 37.8459 86.8283 37.8459 87.6988 37.5976C88.0887 37.5566 88.0887 37.5566 88.4865 37.5148C88.596 37.187 88.7054 36.8592 88.8182 36.5215C89.6443 36.1091 89.9494 36.2643 90.8081 36.5215Z" fill="#9DF1F1"/>
<path d="M97.4413 33.2102C98.2621 33.3741 98.2621 33.3741 99.0995 33.5413C99.1748 33.8555 99.25 34.1696 99.3276 34.4933C99.6603 35.5919 99.6603 35.5919 100.633 35.9832C100.893 36.0515 101.153 36.1198 101.421 36.1902C101.421 36.6272 101.421 37.0643 101.421 37.5146C100.087 37.4378 99.3249 37.3848 98.3119 36.4799C97.6856 35.3737 97.5402 34.4689 97.4413 33.2102Z" fill="#051018"/>
<path d="M86.4975 50.0972C87.1542 50.0972 87.8109 50.0972 88.4874 50.0972C88.4027 50.7394 88.3117 51.3808 88.218 52.0217C88.168 52.379 88.1179 52.7362 88.0664 53.1043C87.8188 54.0918 87.6183 54.4487 86.8292 55.0638C86.7197 54.5175 86.6103 53.9711 86.4975 53.4083C86.2786 53.4083 86.0598 53.4083 85.8342 53.4083C86.0531 52.3156 86.272 51.2229 86.4975 50.0972Z" fill="#1D2C2C"/>
<path d="M79.5322 46.7861C81.7211 46.7861 83.91 46.7861 86.1653 46.7861C86.1653 47.0047 86.1653 47.2232 86.1653 47.4484C84.1356 47.9134 82.2792 48.1876 80.1955 48.1106C80.1955 48.3291 80.1955 48.5476 80.1955 48.7728C79.9766 48.7728 79.7578 48.7728 79.5322 48.7728C79.5322 48.1172 79.5322 47.4616 79.5322 46.7861Z" fill="#8D938D"/>
<path d="M116.345 50.7595C116.564 50.7595 116.783 50.7595 117.009 50.7595C117.009 51.0873 117.009 51.4151 117.009 51.7528C117.207 51.7665 117.405 51.7802 117.61 51.7942C118.335 52.084 118.335 52.084 118.936 53.0152C119.324 54.0534 119.42 54.4015 118.999 55.395C118.561 54.958 118.123 54.5209 117.672 54.0706C117.015 54.2891 116.359 54.5077 115.682 54.7328C115.682 54.0772 115.682 53.4216 115.682 52.7462C116.01 52.7462 116.339 52.7462 116.677 52.7462C116.568 52.0906 116.458 51.435 116.345 50.7595Z" fill="#0D3945"/>
<path d="M82.5173 52.7458C82.7431 52.8551 82.9688 52.9644 83.2014 53.077C84.3442 53.4654 85.2979 53.455 86.4972 53.4081C86.6066 54.1729 86.7161 54.9378 86.8288 55.7258C86.296 55.641 85.7641 55.5502 85.2327 55.4568C84.9365 55.4069 84.6402 55.3569 84.3349 55.3055C83.4309 55.0397 83.0565 54.8375 82.5173 54.0703C82.5173 53.6332 82.5173 53.1962 82.5173 52.7458Z" fill="#0B0F0E"/>
<path d="M88.1552 36.5217C88.3741 36.631 88.593 36.7403 88.8185 36.8528C88.1041 37.6374 87.439 38.0381 86.497 38.5084C86.3486 38.6582 86.2003 38.808 86.0474 38.9624C84.5229 40.4699 82.6036 41.619 80.5272 42.1506C82.1888 39.6623 85.4048 37.658 88.1552 36.5217Z" fill="#32B6BA"/>
<path d="M100.426 29.8994C100.298 30.0398 100.17 30.1802 100.038 30.3249C98.8543 31.6553 97.9448 32.9635 97.1096 34.5349C96.8907 34.4256 96.6719 34.3164 96.4463 34.2038C96.3475 33.2337 96.2782 32.5007 96.4463 31.5549C97.6835 30.1433 98.5519 29.6766 100.426 29.8994Z" fill="#D3CBC3"/>
<path d="M90.1455 59.3682C90.638 59.696 90.638 59.696 91.1405 60.0304C91.1405 60.2489 91.1405 60.4674 91.1405 60.6926C91.3936 60.7814 91.6466 60.8702 91.9074 60.9616C92.7944 61.3529 93.2047 61.5961 93.7937 62.3481C93.8908 63.097 93.8908 63.097 93.8559 63.9002C93.8469 64.1678 93.8379 64.4354 93.8287 64.7112C93.8171 64.9148 93.8056 65.1184 93.7937 65.3281C91.8225 63.4133 90.9326 61.9764 90.1455 59.3682Z" fill="#183B45"/>
</g>
<path d="M90.6216 160V68.032H124.519C130.911 68.032 136.538 69.3825 141.4 72.0834C146.262 74.6944 150.043 78.2957 152.744 82.8873C155.535 87.479 156.93 92.7458 156.93 98.688C156.93 104.63 155.535 109.897 152.744 114.489C150.043 119.08 146.262 122.682 141.4 125.293C136.538 127.813 130.911 129.074 124.519 129.074H103.181V114.219H122.493C128.075 114.219 132.487 112.868 135.728 110.167C139.059 107.376 140.725 103.55 140.725 98.688C140.725 93.4661 139.059 89.5497 135.728 86.9388C132.487 84.2378 128.075 82.8873 122.493 82.8873H103.046L106.287 79.3761V160H90.6216ZM140.725 160L119.927 122.051H137.078L157.876 160H140.725Z" fill="#FBFBFB"/>
<path d="M83.5241 160H67.8585V68.032H83.5241V160Z" fill="#FBFBFB"/>
<path d="M55.0998 100.309V160H39.164V127.993L36.7332 123.132L45.3763 100.309H55.0998ZM0 137.582V127.993L23.2283 68.032H39.029L15.5306 129.884L13.0997 122.456H67.7943V137.582H0Z" fill="#FBFBFB"/>
<path d="M244.855 155.852V137.459H251.823C253.534 137.459 254.876 137.657 255.848 138.053C256.82 138.449 257.505 139.034 257.901 139.809C258.297 140.565 258.495 141.501 258.495 142.618C258.495 143.464 258.333 144.211 258.009 144.859C257.685 145.49 257.225 145.985 256.631 146.345C256.037 146.705 255.335 146.885 254.524 146.885V146.426C255.569 146.426 256.397 146.633 257.009 147.047C257.622 147.443 258.063 147.966 258.333 148.614C258.603 149.262 258.738 149.946 258.738 150.666C258.738 152.413 258.207 153.719 257.144 154.583C256.082 155.429 254.479 155.852 252.337 155.852H244.855ZM249.744 139.728V153.394L248.096 151.18H252.175C252.643 151.18 253.021 151.081 253.309 150.883C253.615 150.684 253.768 150.369 253.768 149.937C253.768 149.505 253.624 149.19 253.336 148.992C253.048 148.794 252.679 148.695 252.229 148.695H248.096V144.616H251.877C252.418 144.616 252.814 144.517 253.066 144.319C253.336 144.121 253.471 143.806 253.471 143.374C253.471 142.942 253.336 142.627 253.066 142.429C252.814 142.23 252.418 142.131 251.877 142.131H248.177L249.744 139.728Z" fill="#FBFBFB"/>
<path d="M231.152 156.23C229.369 156.23 227.902 155.915 226.749 155.285C225.615 154.637 224.769 153.683 224.21 152.422C223.67 151.144 223.4 149.559 223.4 147.668V137.459H228.316V148.128C228.316 149.172 228.55 149.991 229.018 150.585C229.486 151.162 230.198 151.45 231.152 151.45C232.106 151.45 232.818 151.162 233.286 150.585C233.754 149.991 233.988 149.172 233.988 148.128V137.459H238.904V147.668C238.904 149.559 238.625 151.144 238.066 152.422C237.526 153.683 236.689 154.637 235.555 155.285C234.42 155.915 232.953 156.23 231.152 156.23Z" fill="#FBFBFB"/>
<path d="M218.072 155.852H206.458V137.459H211.347V153.394L209.834 151.099H218.072V155.852Z" fill="#FBFBFB"/>
<path d="M192.857 156.231C190.912 156.231 189.237 155.825 187.833 155.015C186.428 154.205 185.348 153.088 184.592 151.666C183.836 150.225 183.457 148.56 183.457 146.669C183.457 145.265 183.682 143.977 184.133 142.807C184.583 141.636 185.222 140.628 186.05 139.782C186.879 138.917 187.869 138.26 189.021 137.81C190.174 137.342 191.452 137.108 192.857 137.108C195.054 137.108 196.872 137.612 198.313 138.62C199.753 139.611 200.798 141.087 201.446 143.05L197.124 144.886C196.71 143.914 196.161 143.167 195.477 142.645C194.792 142.122 193.919 141.861 192.857 141.861C191.992 141.861 191.227 142.05 190.561 142.429C189.895 142.807 189.373 143.356 188.994 144.076C188.634 144.796 188.454 145.661 188.454 146.669C188.454 147.677 188.634 148.542 188.994 149.262C189.373 149.982 189.895 150.531 190.561 150.91C191.227 151.27 191.992 151.45 192.857 151.45C193.919 151.45 194.792 151.198 195.477 150.694C196.161 150.171 196.71 149.424 197.124 148.452L201.446 150.288C200.798 152.251 199.753 153.737 198.313 154.745C196.872 155.735 195.054 156.231 192.857 156.231Z" fill="#FBFBFB"/>
<path d="M369.184 123.441L360.514 111.178L362.35 110.692V123.441H357.461V105.047H362.026L370.669 117.31L368.832 117.796V105.047H373.748V123.441H369.184Z" fill="#FBFBFB"/>
<path d="M333.379 114.258C333.379 112.853 333.604 111.566 334.054 110.395C334.504 109.225 335.144 108.216 335.972 107.37C336.8 106.506 337.79 105.84 338.943 105.371C340.095 104.903 341.374 104.669 342.778 104.669C344.183 104.669 345.461 104.903 346.614 105.371C347.784 105.84 348.783 106.506 349.612 107.37C350.458 108.216 351.106 109.225 351.556 110.395C352.007 111.566 352.232 112.853 352.232 114.258C352.232 115.662 352.007 116.95 351.556 118.12C351.106 119.29 350.458 120.308 349.612 121.172C348.783 122.018 347.784 122.676 346.614 123.144C345.461 123.594 344.183 123.819 342.778 123.819C341.374 123.819 340.095 123.594 338.943 123.144C337.79 122.676 336.8 122.018 335.972 121.172C335.144 120.308 334.504 119.29 334.054 118.12C333.604 116.95 333.379 115.662 333.379 114.258ZM338.376 114.258C338.376 115.266 338.556 116.121 338.916 116.824C339.294 117.526 339.816 118.057 340.482 118.417C341.149 118.777 341.914 118.957 342.778 118.957C343.661 118.957 344.435 118.777 345.101 118.417C345.767 118.057 346.29 117.526 346.668 116.824C347.046 116.103 347.235 115.239 347.235 114.231C347.235 113.222 347.046 112.367 346.668 111.665C346.29 110.962 345.767 110.431 345.101 110.071C344.435 109.711 343.661 109.531 342.778 109.531C341.914 109.531 341.149 109.72 340.482 110.098C339.816 110.458 339.294 110.989 338.916 111.692C338.556 112.394 338.376 113.249 338.376 114.258Z" fill="#FBFBFB"/>
<path d="M328.121 123.441H323.232V105.047H328.121V123.441Z" fill="#FBFBFB"/>
<path d="M307.947 123.441V106.776H312.89V123.441H307.947ZM302.734 109.801V105.047H318.075V109.801H302.734Z" fill="#FBFBFB"/>
<path d="M289.895 123.819C288.112 123.819 286.645 123.504 285.492 122.874C284.358 122.225 283.511 121.271 282.953 120.01C282.413 118.732 282.143 117.147 282.143 115.257V105.047H287.059V115.716C287.059 116.76 287.293 117.58 287.761 118.174C288.229 118.75 288.94 119.038 289.895 119.038C290.849 119.038 291.56 118.75 292.028 118.174C292.497 117.58 292.731 116.76 292.731 115.716V105.047H297.647V115.257C297.647 117.147 297.367 118.732 296.809 120.01C296.269 121.271 295.432 122.225 294.297 122.874C293.163 123.504 291.695 123.819 289.895 123.819Z" fill="#FBFBFB"/>
<path d="M276.815 123.441H265.201V105.047H270.09V120.983L268.577 118.687H276.815V123.441Z" fill="#FBFBFB"/>
<path d="M241.119 114.258C241.119 112.853 241.344 111.566 241.794 110.395C242.244 109.225 242.883 108.216 243.712 107.37C244.54 106.506 245.53 105.84 246.683 105.371C247.835 104.903 249.114 104.669 250.518 104.669C251.923 104.669 253.201 104.903 254.353 105.371C255.524 105.84 256.523 106.506 257.352 107.37C258.198 108.216 258.846 109.225 259.296 110.395C259.746 111.566 259.971 112.853 259.971 114.258C259.971 115.662 259.746 116.95 259.296 118.12C258.846 119.29 258.198 120.308 257.352 121.172C256.523 122.018 255.524 122.676 254.353 123.144C253.201 123.594 251.923 123.819 250.518 123.819C249.114 123.819 247.835 123.594 246.683 123.144C245.53 122.676 244.54 122.018 243.712 121.172C242.883 120.308 242.244 119.29 241.794 118.12C241.344 116.95 241.119 115.662 241.119 114.258ZM246.116 114.258C246.116 115.266 246.296 116.121 246.656 116.824C247.034 117.526 247.556 118.057 248.222 118.417C248.889 118.777 249.654 118.957 250.518 118.957C251.4 118.957 252.175 118.777 252.841 118.417C253.507 118.057 254.029 117.526 254.407 116.824C254.786 116.103 254.975 115.239 254.975 114.231C254.975 113.222 254.786 112.367 254.407 111.665C254.029 110.962 253.507 110.431 252.841 110.071C252.175 109.711 251.4 109.531 250.518 109.531C249.654 109.531 248.889 109.72 248.222 110.098C247.556 110.458 247.034 110.989 246.656 111.692C246.296 112.394 246.116 113.249 246.116 114.258Z" fill="#FBFBFB"/>
<path d="M226.658 123.441L220.635 105.047H225.658L230.439 120.119H228.116L232.924 105.047H237.813L231.79 123.441H226.658Z" fill="#FBFBFB"/>
<path d="M206.765 116.58V111.908H214.436V116.58H206.765ZM206.684 109.72L208.656 107.559V121.28L206.549 118.768H215.868V123.441H203.767V105.047H215.868V109.72H206.684Z" fill="#FBFBFB"/>
<path d="M184.187 123.441V105.047H190.993C192.344 105.047 193.568 105.308 194.666 105.83C195.783 106.335 196.665 107.091 197.313 108.099C197.98 109.09 198.313 110.323 198.313 111.8C198.313 113.276 197.98 114.519 197.313 115.527C196.665 116.517 195.783 117.264 194.666 117.769C193.568 118.273 192.344 118.525 190.993 118.525H187.914V113.771H190.831C191.659 113.771 192.281 113.609 192.695 113.285C193.127 112.961 193.343 112.466 193.343 111.8C193.343 111.151 193.127 110.656 192.695 110.314C192.281 109.972 191.659 109.801 190.831 109.801H187.887L189.075 108.747V123.441H184.187ZM193.154 123.441L189.535 116.094H194.883L198.502 123.441H193.154Z" fill="#FBFBFB"/>
<path d="M454.821 91.0291H443.207V72.6355H448.095V88.5712L446.583 86.2754H454.821V91.0291Z" fill="#FBFBFB"/>
<path d="M425.368 83.7635H433.066V88.2741H425.368V83.7635ZM420.912 91.0291L427.421 72.6355H432.31L438.225 91.0291H433.309L428.907 75.9577H430.851L425.801 91.0291H420.912Z" fill="#FBFBFB"/>
<path d="M415.923 91.0291H411.034V72.6355H415.923V91.0291Z" fill="#FBFBFB"/>
<path d="M391.453 91.0291V72.6355H398.259C399.61 72.6355 400.834 72.8966 401.933 73.4188C403.049 73.923 403.931 74.6792 404.58 75.6876C405.246 76.6779 405.579 77.9114 405.579 79.3879C405.579 80.8644 405.246 82.1069 404.58 83.1153C403.931 84.1056 403.049 84.8529 401.933 85.3571C400.834 85.8612 399.61 86.1133 398.259 86.1133H395.18V81.3596H398.097C398.926 81.3596 399.547 81.1976 399.961 80.8735C400.393 80.5493 400.609 80.0542 400.609 79.3879C400.609 78.7397 400.393 78.2445 399.961 77.9024C399.547 77.5603 398.926 77.3892 398.097 77.3892H395.153L396.342 76.3358V91.0291H391.453ZM400.42 91.0291L396.801 83.6825H402.149L405.768 91.0291H400.42Z" fill="#FBFBFB"/>
<path d="M376.168 91.0291V74.3641H381.111V91.0291H376.168ZM370.955 77.3892V72.6355H386.297V77.3892H370.955Z" fill="#FBFBFB"/>
<path d="M359.231 91.5154C358.078 91.5154 357.025 91.3533 356.07 91.0292C355.134 90.6871 354.297 90.2009 353.559 89.5707C352.838 88.9404 352.235 88.1752 351.749 87.2748L355.422 84.871C355.89 85.5372 356.494 86.0774 357.232 86.4916C357.988 86.8877 358.753 87.0858 359.528 87.0858C360.122 87.0858 360.563 86.9687 360.851 86.7346C361.157 86.5006 361.31 86.2125 361.31 85.8703C361.31 85.6362 361.238 85.4292 361.094 85.2491C360.968 85.069 360.707 84.898 360.311 84.7359C359.915 84.5559 359.339 84.3848 358.582 84.2227C356.998 83.8626 355.737 83.4125 354.801 82.8723C353.865 82.3141 353.198 81.6478 352.802 80.8735C352.406 80.0813 352.208 79.1809 352.208 78.1726C352.208 77.0562 352.496 76.0478 353.072 75.1475C353.649 74.2292 354.468 73.4999 355.53 72.9597C356.611 72.4195 357.889 72.1494 359.366 72.1494C361.022 72.1494 362.436 72.4825 363.606 73.1488C364.777 73.797 365.677 74.6343 366.307 75.6607L362.634 78.3076C362.22 77.7494 361.661 77.3533 360.959 77.1192C360.275 76.8671 359.618 76.7411 358.987 76.7411C358.429 76.7411 357.979 76.8491 357.637 77.0652C357.313 77.2632 357.151 77.5423 357.151 77.9025C357.151 78.2626 357.331 78.5507 357.691 78.7668C358.069 78.9829 358.807 79.2169 359.906 79.469C361.418 79.8112 362.652 80.2523 363.606 80.7925C364.578 81.3147 365.29 81.9719 365.74 82.7642C366.208 83.5385 366.442 84.4928 366.442 85.6272C366.442 86.7617 366.154 87.779 365.578 88.6793C365.002 89.5617 364.173 90.2549 363.093 90.7591C362.013 91.2633 360.725 91.5154 359.231 91.5154Z" fill="#FBFBFB"/>
<path d="M338.667 91.4072C336.884 91.4072 335.417 91.0921 334.265 90.4619C333.13 89.8137 332.284 88.8593 331.726 87.5989C331.185 86.3204 330.915 84.7358 330.915 82.8452V72.6355H335.831V83.3043C335.831 84.3487 336.065 85.168 336.533 85.7622C337.002 86.3384 337.713 86.6265 338.667 86.6265C339.621 86.6265 340.333 86.3384 340.801 85.7622C341.269 85.168 341.503 84.3487 341.503 83.3043V72.6355H346.419V82.8452C346.419 84.7358 346.14 86.3204 345.582 87.5989C345.041 88.8593 344.204 89.8137 343.07 90.4619C341.935 91.0921 340.468 91.4072 338.667 91.4072Z" fill="#FBFBFB"/>
<path d="M309.833 91.0291V72.6355H316.558C318.557 72.6355 320.24 73.0046 321.609 73.7429C322.995 74.4632 324.049 75.5075 324.769 76.876C325.489 78.2445 325.849 79.8921 325.849 81.8188C325.849 83.7455 325.489 85.4021 324.769 86.7886C324.049 88.1571 322.995 89.2104 321.609 89.9487C320.222 90.669 318.53 91.0291 316.531 91.0291H309.833ZM314.721 88.4362L312.588 86.2754H316.153C317.161 86.2754 318.007 86.1313 318.692 85.8432C319.394 85.5371 319.925 85.06 320.285 84.4117C320.663 83.7455 320.852 82.8812 320.852 81.8188C320.852 80.7564 320.672 79.9011 320.312 79.2529C319.952 78.6046 319.421 78.1365 318.719 77.8484C318.034 77.5423 317.188 77.3892 316.18 77.3892H312.398L314.721 76.1197V88.4362Z" fill="#FBFBFB"/>
<path d="M299.283 91.0291L290.613 78.7667L292.449 78.2805V91.0291H287.561V72.6355H292.125L300.768 84.8979L298.932 85.3841V72.6355H303.848V91.0291H299.283Z" fill="#FBFBFB"/>
<path d="M281.573 91.0291H276.684V72.6355H281.573V91.0291Z" fill="#FBFBFB"/>
<path d="M246.306 91.0291V72.6355H253.112C254.463 72.6355 255.687 72.8966 256.785 73.4188C257.902 73.923 258.784 74.6792 259.432 75.6876C260.099 76.6779 260.432 77.9114 260.432 79.3879C260.432 80.8644 260.099 82.1069 259.432 83.1153C258.784 84.1056 257.902 84.8529 256.785 85.3571C255.687 85.8612 254.463 86.1133 253.112 86.1133H250.033V81.3596H252.95C253.778 81.3596 254.4 81.1976 254.814 80.8735C255.246 80.5493 255.462 80.0542 255.462 79.3879C255.462 78.7397 255.246 78.2445 254.814 77.9024C254.4 77.5603 253.778 77.3892 252.95 77.3892H250.006L251.194 76.3358V91.0291H246.306ZM255.273 91.0291L251.654 83.6825H257.002L260.621 91.0291H255.273Z" fill="#FBFBFB"/>
<path d="M232.603 91.4072C230.82 91.4072 229.353 91.0921 228.2 90.4619C227.066 89.8137 226.219 88.8593 225.661 87.5989C225.121 86.3204 224.851 84.7358 224.851 82.8452V72.6355H229.767V83.3043C229.767 84.3487 230.001 85.168 230.469 85.7622C230.937 86.3384 231.648 86.6265 232.603 86.6265C233.557 86.6265 234.268 86.3384 234.736 85.7622C235.205 85.168 235.439 84.3487 235.439 83.3043V72.6355H240.354V82.8452C240.354 84.7358 240.075 86.3204 239.517 87.5989C238.977 88.8593 238.14 89.8137 237.005 90.4619C235.871 91.0921 234.403 91.4072 232.603 91.4072Z" fill="#FBFBFB"/>
<path d="M200.954 81.846C200.954 80.4415 201.179 79.154 201.63 77.9836C202.08 76.8132 202.719 75.8048 203.547 74.9585C204.376 74.0942 205.366 73.428 206.518 72.9598C207.671 72.4917 208.949 72.2576 210.354 72.2576C211.758 72.2576 213.037 72.4917 214.189 72.9598C215.36 73.428 216.359 74.0942 217.187 74.9585C218.033 75.8048 218.682 76.8132 219.132 77.9836C219.582 79.154 219.807 80.4415 219.807 81.846C219.807 83.2505 219.582 84.538 219.132 85.7084C218.682 86.8788 218.033 87.8962 217.187 88.7605C216.359 89.6068 215.36 90.264 214.189 90.7322C213.037 91.1824 211.758 91.4074 210.354 91.4074C208.949 91.4074 207.671 91.1824 206.518 90.7322C205.366 90.264 204.376 89.6068 203.547 88.7605C202.719 87.8962 202.08 86.8788 201.63 85.7084C201.179 84.538 200.954 83.2505 200.954 81.846ZM205.951 81.846C205.951 82.8544 206.131 83.7097 206.491 84.4119C206.869 85.1142 207.392 85.6454 208.058 86.0055C208.724 86.3656 209.489 86.5457 210.354 86.5457C211.236 86.5457 212.01 86.3656 212.677 86.0055C213.343 85.6454 213.865 85.1142 214.243 84.4119C214.621 83.6917 214.81 82.8274 214.81 81.819C214.81 80.8106 214.621 79.9553 214.243 79.2531C213.865 78.5508 213.343 78.0196 212.677 77.6595C212.01 77.2994 211.236 77.1193 210.354 77.1193C209.489 77.1193 208.724 77.3084 208.058 77.6865C207.392 78.0466 206.869 78.5778 206.491 79.2801C206.131 79.9823 205.951 80.8376 205.951 81.846Z" fill="#FBFBFB"/>
<path d="M187.428 84.8439V80.0902H195.099V84.8439H187.428ZM189.075 91.0291H184.187V72.6355H196.287V77.3892H187.104L189.075 75.1474V91.0291Z" fill="#FBFBFB"/>
<defs>
<filter id="filter0_d_1204_39" x="51.6125" y="0" width="95.6268" height="78.4729" filterUnits="userSpaceOnUse" color-interpolation-filters="sRGB">
<feFlood flood-opacity="0" result="BackgroundImageFix"/>
<feColorMatrix in="SourceAlpha" type="matrix" values="0 0 0 0 0 0 0 0 0 0 0 0 0 0 0 0 0 0 127 0" result="hardAlpha"/>
<feOffset/>
<feGaussianBlur stdDeviation="5"/>
<feComposite in2="hardAlpha" operator="out"/>
<feColorMatrix type="matrix" values="0 0 0 0 0 0 0 0 0 0.866667 0 0 0 0 1 0 0 0 1 0"/>
<feBlend mode="normal" in2="BackgroundImageFix" result="effect1_dropShadow_1204_39"/>
<feBlend mode="normal" in="SourceGraphic" in2="effect1_dropShadow_1204_39" result="shape"/>
</filter>
</defs>
</svg>
